<svg width="361" height="200" viewBox="0 0 361 200" fill="none" xmlns="http://www.w3.org/2000/svg">
<path d="M100.813 6.6768C53.0614 2.98939 11.3621 38.7102 7.67469 86.4615C3.98728 134.213 39.7081 175.912 87.4594 179.599L260.382 192.953C308.133 196.64 349.833 160.919 353.52 113.168C357.207 65.4168 321.487 23.7175 273.735 20.0301L100.813 6.6768Z" fill="#FF5903"/>
<path d="M44.5037 64.2917L87.3921 67.6036L83.2961 120.646L78.295 120.259L82.0399 71.7639L49.1538 69.2244L45.4089 117.72L40.4078 117.334L44.5037 64.2917ZM102.519 68.7717L121.765 70.2579C128.383 70.769 133.337 72.7523 136.627 76.2079C139.922 79.6129 141.337 84.3212 140.872 90.3326C140.412 96.2935 138.291 100.729 134.509 103.638C130.731 106.497 125.533 107.671 118.916 107.16L104.67 106.06L103.424 122.2L98.4226 121.814L102.519 68.7717ZM119.267 102.614C124.116 102.988 127.969 102.117 130.826 99.9998C133.734 97.8867 135.365 94.5317 135.72 89.9347C136.079 85.2872 134.984 81.6963 132.435 79.1619C129.937 76.6314 126.264 75.1789 121.414 74.8044L107.169 73.7043L105.021 101.514L119.267 102.614ZM155.205 72.8402L160.207 73.2264L156.526 120.889L156.753 120.906L191.274 75.6255L198.776 76.2048L194.68 129.247L189.679 128.861L193.359 81.1986L193.132 81.181L158.611 126.462L151.109 125.882L155.205 72.8402ZM248.602 134.173C244.258 133.838 240.658 132.747 237.802 130.9C234.947 129.053 232.678 126.845 230.996 124.276C229.368 121.66 228.238 118.854 227.606 115.858C226.973 112.862 226.735 110.023 226.892 107.342L216.738 106.558L214.865 130.806L209.864 130.419L213.96 77.3773L218.961 77.7635L217.089 102.011L227.318 102.801C227.447 101.134 227.76 99.3798 228.258 97.538C228.811 95.6496 229.561 93.8273 230.51 92.0712C231.463 90.2645 232.609 88.5744 233.951 87.001C235.346 85.381 236.951 84.0058 238.766 82.8755C240.585 81.6947 242.661 80.8133 244.993 80.2311C247.328 79.5983 249.936 79.3931 252.815 79.6155C256.806 79.9237 260.235 80.9253 263.102 82.6204C265.97 84.3156 268.291 86.5021 270.066 89.1801C271.845 91.8075 273.086 94.8253 273.788 98.2335C274.545 101.595 274.783 105.094 274.502 108.732C274.217 112.419 273.443 115.866 272.179 119.071C270.966 122.281 269.276 125.072 267.111 127.446C264.95 129.769 262.322 131.548 259.229 132.783C256.135 134.018 252.593 134.481 248.602 134.173ZM248.965 129.475C252.249 129.729 255.101 129.314 257.522 128.23C259.994 127.151 262.068 125.634 263.743 123.68C265.418 121.726 266.715 119.412 267.633 116.739C268.551 114.065 269.123 111.264 269.349 108.334C269.575 105.404 269.438 102.573 268.938 99.8408C268.441 97.0584 267.515 94.573 266.16 92.3848C264.808 90.1461 262.994 88.3036 260.717 86.8574C258.491 85.415 255.736 84.5671 252.452 84.3135C249.169 84.06 246.291 84.473 243.819 85.5525C241.398 86.636 239.348 88.18 237.668 90.1847C236.044 92.1427 234.772 94.4584 233.854 97.1317C232.94 99.7544 232.37 102.531 232.144 105.461C231.918 108.391 232.053 111.247 232.549 114.029C233.046 116.812 233.947 119.295 235.252 121.48C236.607 123.668 238.398 125.483 240.625 126.925C242.901 128.372 245.681 129.222 248.965 129.475ZM300.509 88.6343L280.732 87.1071L281.083 82.5606L325.638 86.0012L325.287 90.5477L305.51 89.0205L301.765 137.516L296.764 137.13L300.509 88.6343Z" fill="#F2F2F2"/>
</svg>
