<svg width="371" height="226" viewBox="0 0 371 226" fill="none" xmlns="http://www.w3.org/2000/svg">
<path d="M122.551 34.8251C120.366 35.1687 118.324 36.1297 116.668 37.5945C115.012 39.0594 113.81 40.9669 113.205 43.0916C111.961 41.2266 110.201 39.7627 108.14 38.8778C106.078 37.9929 103.804 37.725 101.592 38.1068C99.3802 38.4885 97.3269 39.5034 95.6814 41.0282C94.036 42.553 92.8692 44.522 92.3229 46.696C90.9862 44.6343 89.0271 43.0511 86.7292 42.1752C84.4313 41.2993 81.9135 41.1763 79.5403 41.8239C77.167 42.4716 75.0612 43.8563 73.5276 45.7777C71.9939 47.6991 71.112 50.0577 71.0092 52.5121C69.2908 50.7594 67.0586 49.5977 64.6352 49.1951C62.2117 48.7924 59.7225 49.1696 57.5271 50.2721C55.3317 51.3746 53.5437 53.1453 52.4216 55.3284C51.2995 57.5116 50.9012 59.9942 51.2844 62.4175L51.3265 62.6867C49.4211 61.7613 47.2978 61.3753 45.1875 61.5707C43.0772 61.7661 41.0606 62.5355 39.3571 63.7951C37.6536 65.0547 36.3282 66.7565 35.5251 68.7153C34.722 70.6741 34.4719 72.815 34.802 74.9053C34.9729 75.9773 35.2927 77.0202 35.7521 78.0038C33.3905 77.6128 30.9653 77.962 28.8099 79.0033C26.6544 80.0447 24.8747 81.727 23.7153 83.8192C22.5559 85.9113 22.0738 88.3104 22.3352 90.6866C22.5967 93.0628 23.5889 95.2995 25.1754 97.0891C24.9548 97.1237 24.7285 97.1215 24.5018 97.157C22.1241 97.5273 19.9205 98.6276 18.1969 100.305C16.4734 101.983 15.3155 104.154 14.8839 106.519C14.4523 108.883 14.7684 111.322 15.7885 113.498C16.8085 115.674 18.4818 117.478 20.576 118.661C18.1227 119.483 16.0154 121.102 14.5899 123.259C13.1644 125.416 12.5029 127.988 12.7107 130.563C12.9185 133.139 13.9838 135.57 15.7366 137.47C17.4895 139.37 19.8291 140.629 22.3825 141.046C20.1835 142.372 18.4874 144.39 17.5604 146.782C16.6334 149.174 16.5281 151.806 17.261 154.263C17.9938 156.721 19.5233 158.866 21.6094 160.361C23.6955 161.856 26.22 162.617 28.7867 162.524C27.3728 164.357 26.5417 166.572 26.4007 168.881C26.2598 171.19 26.8154 173.489 27.9958 175.479C29.1762 177.469 30.9273 179.06 33.0228 180.046C35.1183 181.032 37.462 181.368 39.7511 181.011C40.1991 180.936 40.6427 180.838 41.0797 180.715C40.284 182.963 40.2028 185.401 40.8472 187.697C41.4916 189.992 42.8301 192.033 44.6798 193.539C46.5296 195.046 48.8003 195.945 51.1818 196.114C53.5632 196.283 55.9392 195.714 57.985 194.484C57.9289 195.316 57.965 196.151 58.0928 196.975C58.4337 199.14 59.3828 201.163 60.8298 202.811C62.2768 204.458 64.1623 205.661 66.2672 206.28C68.3722 206.9 70.6102 206.91 72.7214 206.31C74.8325 205.71 76.73 204.524 78.1935 202.89C78.664 205.359 79.9271 207.607 81.7917 209.294C83.6562 210.981 86.0207 212.016 88.5272 212.241C91.0338 212.466 93.5458 211.869 95.6832 210.541C97.8205 209.213 99.4668 207.226 100.373 204.881C101.294 207.098 102.884 208.974 104.922 210.248C106.959 211.521 109.344 212.13 111.744 211.988C114.144 211.847 116.441 210.964 118.316 209.46C120.192 207.956 121.552 205.907 122.208 203.597C123.434 205.436 125.162 206.886 127.188 207.774C129.214 208.663 131.452 208.953 133.639 208.61C135.825 208.268 137.867 207.307 139.524 205.841C141.181 204.376 142.383 202.467 142.988 200.341C144.212 202.181 145.94 203.631 147.965 204.52C149.991 205.409 152.229 205.699 154.415 205.356C156.601 205.014 158.643 204.053 160.3 202.587C161.956 201.121 163.157 199.212 163.761 197.086C164.987 198.925 166.715 200.375 168.741 201.263C170.766 202.151 173.005 202.442 175.191 202.099C177.377 201.756 179.42 200.795 181.077 199.33C182.734 197.864 183.935 195.956 184.54 193.83C185.765 195.669 187.493 197.12 189.518 198.008C191.543 198.897 193.782 199.188 195.968 198.845C198.154 198.503 200.196 197.541 201.852 196.076C203.509 194.61 204.71 192.701 205.313 190.575C206.539 192.414 208.267 193.863 210.293 194.752C212.319 195.64 214.557 195.93 216.744 195.588C218.93 195.245 220.972 194.284 222.629 192.819C224.286 191.353 225.488 189.444 226.093 187.318C227.318 189.158 229.045 190.608 231.07 191.497C233.096 192.386 235.334 192.676 237.52 192.334C239.706 191.991 241.749 191.03 243.405 189.564C245.061 188.098 246.262 186.189 246.866 184.063C248.091 185.903 249.818 187.353 251.844 188.242C253.869 189.131 256.107 189.421 258.293 189.079C260.48 188.736 262.522 187.775 264.178 186.309C265.835 184.843 267.036 182.934 267.639 180.808C268.937 182.749 270.791 184.253 272.96 185.122C275.129 185.991 277.511 186.185 279.793 185.678C282.075 185.172 284.15 183.988 285.747 182.282C287.344 180.577 288.387 178.43 288.741 176.122C290.204 178.166 292.294 179.678 294.695 180.431C297.096 181.183 299.677 181.135 302.049 180.293C304.42 179.452 306.454 177.862 307.841 175.765C309.229 173.668 309.896 171.177 309.741 168.669C311.6 169.984 313.806 170.723 316.083 170.792C318.361 170.862 320.608 170.259 322.545 169.06C324.482 167.86 326.022 166.117 326.972 164.049C327.923 161.981 328.241 159.679 327.889 157.431C327.793 156.86 327.656 156.297 327.48 155.746C329.756 156.465 332.199 156.464 334.475 155.744C336.75 155.023 338.748 153.617 340.194 151.72C341.639 149.822 342.462 147.525 342.55 145.142C342.639 142.76 341.987 140.409 340.685 138.412C341.401 138.43 342.117 138.385 342.824 138.277C345.033 137.935 347.097 136.963 348.766 135.477C350.435 133.99 351.637 132.054 352.229 129.901C352.821 127.748 352.776 125.47 352.101 123.342C351.425 121.215 350.148 119.328 348.422 117.909C350.902 117.368 353.136 116.029 354.78 114.096C356.423 112.164 357.386 109.746 357.519 107.215C357.653 104.683 356.95 102.179 355.518 100.086C354.087 97.9937 352.006 96.4292 349.596 95.6333C351.972 94.5874 353.927 92.7754 355.148 90.4878C356.37 88.2003 356.787 85.5697 356.333 83.0178C355.879 80.466 354.58 78.1408 352.644 76.415C350.708 74.6891 348.247 73.6627 345.657 73.5003C347.522 71.8399 348.8 69.6223 349.301 67.178C349.801 64.7338 349.497 62.1939 348.434 59.937C347.371 57.6801 345.605 55.8271 343.401 54.6543C341.197 53.4815 338.672 53.0517 336.202 53.4289C337.23 51.5302 337.706 49.3823 337.576 47.2281C337.446 45.0739 336.716 42.9992 335.466 41.2385C334.217 39.4778 332.5 38.1013 330.508 37.2645C328.517 36.4277 326.33 36.1641 324.195 36.5033C323.241 36.659 322.31 36.9312 321.422 37.3141C321.897 34.9724 321.635 32.5414 320.671 30.3553C319.707 28.1692 318.088 26.3353 316.037 25.1057C313.986 23.8762 311.604 23.3113 309.218 23.4887C306.832 23.6661 304.56 24.5772 302.713 26.0966C302.692 25.7614 302.658 25.4281 302.605 25.0854C302.242 22.7536 301.173 20.5886 299.543 18.881C297.913 17.1733 295.798 16.0047 293.483 15.5317C291.168 15.0587 288.763 15.3041 286.591 16.235C284.419 17.1659 282.583 18.7376 281.331 20.7395C280.595 18.3513 279.104 16.2659 277.081 14.7955C275.058 13.3251 272.612 12.5489 270.11 12.5831C267.608 12.6173 265.183 13.4601 263.2 14.9852C261.217 16.5104 259.782 18.6358 259.109 21.0432C257.992 19.0489 256.309 17.4301 254.27 16.3913C252.232 15.3525 249.931 14.9402 247.658 15.2065C245.385 15.4729 243.241 16.4059 241.498 17.8877C239.755 19.3695 238.491 21.3337 237.865 23.5322C236.639 21.6931 234.91 20.2436 232.885 19.3551C230.859 18.4667 228.62 18.1766 226.434 18.5192C224.248 18.8618 222.205 19.8227 220.549 21.2882C218.892 22.7537 217.69 24.6624 217.085 26.7883C215.86 24.9487 214.133 23.4986 212.107 22.6097C210.082 21.7208 207.844 21.4304 205.658 21.773C203.472 22.1156 201.429 23.0767 199.773 24.5425C198.117 26.0083 196.915 27.9174 196.312 30.0435C195.086 28.2044 193.358 26.7549 191.332 25.8664C189.306 24.978 187.068 24.6879 184.882 25.0305C182.695 25.3731 180.653 26.334 178.996 27.7995C177.339 29.265 176.137 31.1737 175.533 33.2996C174.308 31.4601 172.58 30.0099 170.555 29.121C168.53 28.2321 166.291 27.9418 164.105 28.2843C161.919 28.6269 159.877 29.588 158.22 31.0538C156.564 32.5197 155.363 34.4287 154.759 36.5548C153.533 34.7157 151.805 33.2662 149.78 32.3778C147.754 31.4893 145.515 31.1993 143.329 31.5418C141.143 31.8844 139.1 32.8453 137.443 34.3108C135.787 35.7763 134.585 37.685 133.98 39.811C132.751 37.977 131.021 36.533 128.996 35.6495C126.971 34.766 124.734 34.48 122.551 34.8251Z" fill="#FFD916"/>
<path d="M85.1094 157.815C81.1049 158.442 77.395 158.331 73.9796 157.482C70.5643 156.632 67.5421 155.182 64.9131 153.133C62.3341 151.075 60.1851 148.489 58.4661 145.373C56.7471 142.258 55.5817 138.748 54.9698 134.844C54.358 130.939 54.3939 127.241 55.0776 123.749C55.7612 120.257 57.016 117.137 58.842 114.39C60.718 111.634 63.1519 109.329 66.1437 107.476C69.1355 105.622 72.6336 104.382 76.6381 103.754C79.7416 103.268 82.5824 103.233 85.1606 103.65C87.731 104.016 90.0403 104.68 92.0885 105.641C94.1288 106.552 95.9001 107.711 97.4025 109.116C98.9471 110.464 100.245 111.876 101.297 113.352C102.391 114.771 103.227 116.178 103.805 117.575C104.425 118.914 104.814 120.084 104.971 121.085L100.015 121.862C99.9759 121.611 99.7567 121.03 99.3573 120.118C98.958 119.207 98.3639 118.197 97.575 117.09C96.8283 115.925 95.8485 114.745 94.6356 113.55C93.4727 112.348 92.0542 111.313 90.38 110.448C88.7479 109.524 86.8469 108.847 84.677 108.418C82.5071 107.989 80.0706 107.986 77.3676 108.409C74.0639 108.927 71.2008 109.966 68.7783 111.525C66.4058 113.076 64.4755 114.994 62.9872 117.279C61.549 119.555 60.5701 122.145 60.0505 125.047C59.573 127.891 59.5814 130.89 60.0755 134.044C60.5697 137.197 61.483 140.08 62.8154 142.692C64.19 145.246 65.9102 147.386 67.9759 149.114C70.0916 150.834 72.5162 152.07 75.2494 152.821C78.0327 153.564 81.0762 153.677 84.3799 153.159C87.0829 152.736 89.4017 151.988 91.3364 150.915C93.271 149.843 94.8778 148.642 96.1569 147.314C97.4782 145.927 98.5084 144.484 99.2477 142.983C100.037 141.475 100.613 140.077 100.975 138.789C101.38 137.443 101.637 136.301 101.746 135.36C101.847 134.37 101.874 133.725 101.827 133.424L106.783 132.648C106.939 133.649 106.931 134.907 106.758 136.421C106.628 137.878 106.262 139.473 105.662 141.209C105.105 142.886 104.301 144.627 103.25 146.433C102.242 148.181 100.91 149.826 99.2538 151.367C97.5899 152.859 95.5944 154.197 93.2672 155.382C90.9321 156.517 88.2128 157.328 85.1094 157.815ZM114.183 98.6402L136.183 95.1928C141.589 94.3457 145.928 94.871 149.2 96.7687C152.472 98.6664 154.464 101.893 155.178 106.448C155.531 108.7 155.417 110.59 154.836 112.117C154.254 113.644 153.53 114.912 152.662 115.92C151.66 117.051 150.497 117.977 149.174 118.697L149.209 118.922C151.216 118.967 153.103 119.389 154.87 120.189C156.362 120.878 157.793 121.988 159.161 123.517C160.579 125.039 161.507 127.201 161.947 130.004C162.715 134.909 161.64 138.847 158.721 141.818C155.843 144.73 151.251 146.681 144.944 147.669L122.419 151.199L114.183 98.6402ZM144.238 143.164C148.793 142.45 152.172 141.1 154.374 139.114C156.568 137.078 157.39 134.308 156.841 130.804C156.339 127.6 154.824 125.299 152.297 123.9C149.762 122.451 146.017 122.115 141.062 122.891L123.492 125.645L126.669 145.917L144.238 143.164ZM139.755 118.481C143.359 117.916 146.099 116.743 147.973 114.962C149.89 113.123 150.59 110.552 150.072 107.248C149.578 104.094 148.158 101.906 145.813 100.684C143.467 99.4619 140.468 99.137 136.814 99.7096L119.845 102.369L122.786 121.14L139.755 118.481ZM183.308 120.733C183.057 120.773 182.271 120.665 180.949 120.411C179.677 120.148 178.275 119.547 176.743 118.608C175.212 117.668 173.734 116.259 172.311 114.379C170.939 112.491 170.005 109.971 169.511 106.817C169.142 104.465 169.202 102.225 169.689 100.097C170.226 97.9613 171.132 96.05 172.406 94.3631C173.672 92.6261 175.294 91.1925 177.271 90.0621C179.24 88.8817 181.501 88.0915 184.053 87.6915L205.452 84.3383L213.688 136.897L208.733 137.673L205.662 118.077L188.543 120.759L179.976 142.18L174.344 143.062L183.308 120.733ZM204.956 113.572L201.203 89.6198L184.759 92.1965C183.057 92.4632 181.507 93.0396 180.107 93.9256C178.749 94.7538 177.606 95.8047 176.678 97.0785C175.791 98.2944 175.161 99.6752 174.788 101.221C174.415 102.767 174.362 104.391 174.628 106.092C174.895 107.794 175.417 109.328 176.196 110.693C176.974 112.059 177.95 113.213 179.123 114.158C180.289 115.052 181.62 115.69 183.115 116.071C184.611 116.452 186.21 116.509 187.912 116.242L204.956 113.572ZM247.327 132.395C244.324 132.866 241.491 132.95 238.828 132.65C236.216 132.341 233.877 131.656 231.814 130.595C229.75 129.534 228.039 128.109 226.682 126.322C225.367 124.476 224.514 122.302 224.122 119.8L223.71 117.172L228.74 116.383L229.152 119.011C229.45 120.913 230.084 122.506 231.055 123.79C232.075 125.066 233.336 126.074 234.837 126.813C236.387 127.545 238.153 128.012 240.133 128.214C242.156 128.359 244.319 128.251 246.621 127.89C248.924 127.529 250.987 126.949 252.811 126.151C254.684 125.344 256.251 124.381 257.512 123.26C258.764 122.089 259.664 120.795 260.211 119.375C260.8 117.898 260.961 116.309 260.695 114.607C260.177 111.303 258.504 108.976 255.677 107.624C252.85 106.272 249.255 105.912 244.892 106.544L237.308 107.733L236.602 103.228L244.036 102.063C248.291 101.396 251.353 99.9931 253.223 97.8538C255.085 95.6644 255.801 93.1932 255.369 90.4401C255.142 88.9885 254.583 87.717 253.694 86.6254C252.805 85.5339 251.643 84.6646 250.209 84.0176C248.816 83.3127 247.183 82.8762 245.311 82.7081C243.43 82.4899 241.364 82.5573 239.111 82.9102C234.606 83.6162 231.169 85.078 228.798 87.2958C226.477 89.5056 225.564 92.1873 226.058 95.3409L226.329 97.0678L221.298 97.8561L221.028 96.1292C220.683 93.9267 220.844 91.85 221.513 89.8989C222.182 87.9479 223.269 86.2133 224.775 84.6952C226.323 83.1192 228.243 81.7926 230.536 80.7153C232.829 79.638 235.452 78.868 238.405 78.4052C241.359 77.9424 244.092 77.8732 246.604 78.1975C249.167 78.5139 251.401 79.1895 253.307 80.2243C255.255 81.2011 256.842 82.491 258.067 84.0939C259.293 85.6969 260.07 87.5495 260.4 89.6518C260.768 92.0045 260.62 94.0022 259.954 95.6451C259.281 97.2379 258.485 98.5421 257.567 99.5578C256.473 100.755 255.189 101.725 253.715 102.469L253.762 102.77C255.685 102.93 257.455 103.422 259.071 104.245C260.464 104.95 261.819 106.071 263.137 107.609C264.447 109.096 265.31 111.166 265.725 113.819C266.094 116.171 265.902 118.381 265.149 120.448C264.438 122.457 263.262 124.282 261.622 125.924C259.974 127.516 257.932 128.887 255.497 130.038C253.054 131.139 250.331 131.924 247.327 132.395ZM272.196 73.8794L277.152 73.1029L280.046 91.5735L294.913 89.2439C301.57 88.2007 306.832 88.889 310.699 91.3089C314.616 93.721 317.001 97.6551 317.856 103.111C318.711 108.567 317.643 113.043 314.652 116.537C311.711 120.024 306.912 122.289 300.254 123.332L280.432 126.438L272.196 73.8794ZM299.549 118.827C304.454 118.058 308.043 116.419 310.317 113.909C312.59 111.398 313.402 108.066 312.751 103.911C312.1 99.7566 310.308 96.8321 307.376 95.1376C304.443 93.4431 300.524 92.9802 295.619 93.7489L280.752 96.0785L284.682 121.156L299.549 118.827Z" fill="#1D4DF5"/>
</svg>
