<svg width="532" height="208" viewBox="0 0 532 208" fill="none" xmlns="http://www.w3.org/2000/svg">
<path d="M125.627 26.2882C123.379 26.4391 121.222 27.2395 119.422 28.5918C117.621 29.9441 116.253 31.7899 115.485 33.9042C114.437 31.8942 112.822 30.2353 110.838 29.1333C108.854 28.0313 106.589 27.5346 104.325 27.7048C102.061 27.8749 99.8959 28.7045 98.0991 30.0906C96.3024 31.4768 94.9527 33.3585 94.2174 35.5025C93.0962 33.2904 91.2928 31.4962 89.0727 30.3839C86.8526 29.2717 84.333 28.9002 81.885 29.3241C79.437 29.748 77.1898 30.9449 75.4742 32.7387C73.7586 34.5324 72.6654 36.8283 72.3553 39.2881C70.8804 37.2528 68.7818 35.7516 66.3764 35.0112C63.9709 34.2708 61.3891 34.3315 59.0208 35.1839C56.6524 36.0364 54.6261 37.6344 53.2475 39.7368C51.8689 41.8392 51.213 44.3318 51.3788 46.8384L51.3957 47.0918C49.3694 45.7245 46.9609 45.033 44.5158 45.1168C42.0708 45.2005 39.715 46.055 37.7865 47.5578C35.8581 49.0605 34.4562 51.1341 33.782 53.481C33.1078 55.8278 33.196 58.3273 34.034 60.6206C31.7073 59.9166 29.2174 59.9608 26.9169 60.7469C24.6163 61.5331 22.6217 63.0214 21.2153 65.001C19.8089 66.9807 19.0621 69.3514 19.0806 71.7777C19.0991 74.2039 19.8819 76.5626 21.3182 78.5199C20.9569 78.513 20.5961 78.5122 20.2307 78.5366C17.828 78.6944 15.5338 79.5943 13.6663 81.1115C11.7988 82.6287 10.4506 84.6881 9.80856 87.004C9.16652 89.3198 9.26252 91.7775 10.0832 94.0361C10.904 96.2947 12.4087 98.2422 14.3888 99.6087C11.8064 100.136 9.48058 101.525 7.7949 103.547C6.10921 105.57 5.16423 108.104 5.11572 110.734C5.06722 113.364 5.91808 115.931 7.52805 118.013C9.13803 120.095 11.411 121.568 13.9724 122.187C11.5654 123.233 9.58503 125.063 8.35508 127.377C7.12513 129.691 6.71842 132.353 7.20145 134.927C7.68449 137.502 9.02868 139.836 11.0142 141.549C12.9997 143.261 15.509 144.251 18.1318 144.355C16.4703 146.024 15.3576 148.158 14.942 150.472C14.5263 152.787 14.8274 155.173 15.8052 157.313C16.783 159.452 18.391 161.243 20.415 162.448C22.4389 163.652 24.7827 164.212 27.1341 164.053C27.631 164.016 28.1251 163.948 28.6135 163.849C27.5429 166.025 27.1835 168.481 27.5858 170.871C27.9881 173.262 29.1318 175.466 30.8559 177.173C32.58 178.88 34.7975 180.004 37.196 180.387C39.5945 180.769 42.0532 180.392 44.2256 179.306C43.8006 181.712 44.1493 184.189 45.2216 186.384C46.2939 188.579 48.0348 190.379 50.1951 191.526C52.3554 192.673 54.8242 193.108 57.248 192.77C59.6719 192.431 61.9264 191.336 63.6887 189.641C63.8872 192.19 64.9261 194.602 66.6432 196.5C68.3604 198.398 70.6592 199.675 73.1806 200.131C75.702 200.588 78.3042 200.198 80.5808 199.023C82.8575 197.848 84.6804 195.955 85.765 193.637C86.446 195.984 87.8542 198.055 89.7878 199.554C91.7214 201.053 94.081 201.902 96.5285 201.98C98.9759 202.058 101.385 201.361 103.412 199.988C105.438 198.616 106.977 196.639 107.808 194.34C108.849 196.334 110.449 197.983 112.413 199.084C114.377 200.185 116.62 200.692 118.868 200.542C121.117 200.392 123.273 199.592 125.073 198.24C126.874 196.887 128.241 195.041 129.007 192.926C130.046 194.921 131.646 196.57 133.609 197.672C135.573 198.774 137.816 199.281 140.065 199.131C142.313 198.981 144.469 198.181 146.269 196.828C148.069 195.475 149.435 193.628 150.2 191.513C151.239 193.508 152.839 195.157 154.802 196.259C156.766 197.361 159.009 197.868 161.258 197.718C163.506 197.568 165.662 196.767 167.462 195.414C169.262 194.061 170.628 192.215 171.393 190.1C172.432 192.094 174.032 193.743 175.995 194.845C177.959 195.947 180.202 196.454 182.45 196.304C184.699 196.154 186.855 195.354 188.655 194.001C190.455 192.648 191.821 190.801 192.586 188.686C193.626 190.68 195.226 192.329 197.191 193.43C199.155 194.532 201.398 195.039 203.646 194.889C205.895 194.739 208.051 193.939 209.851 192.586C211.652 191.234 213.019 189.387 213.785 187.273C214.824 189.267 216.424 190.916 218.387 192.018C220.351 193.12 222.594 193.627 224.842 193.477C227.091 193.327 229.247 192.527 231.047 191.174C232.847 189.821 234.213 187.974 234.978 185.859C236.017 187.854 237.617 189.503 239.58 190.605C241.544 191.707 243.787 192.214 246.035 192.064C248.284 191.914 250.44 191.114 252.24 189.761C254.04 188.408 255.406 186.561 256.171 184.446C257.211 186.44 258.811 188.089 260.775 189.19C262.74 190.292 264.983 190.798 267.231 190.648C269.48 190.498 271.636 189.698 273.436 188.346C275.237 186.993 276.604 185.147 277.37 183.032C278.409 185.027 280.009 186.676 281.972 187.778C283.936 188.88 286.179 189.387 288.427 189.237C290.676 189.087 292.832 188.287 294.632 186.934C296.432 185.581 297.798 183.734 298.563 181.619C299.602 183.614 301.201 185.263 303.165 186.365C305.129 187.467 307.372 187.974 309.62 187.824C311.869 187.674 314.025 186.873 315.825 185.521C317.625 184.168 318.991 182.321 319.756 180.206C320.796 182.2 322.396 183.848 324.36 184.95C326.325 186.051 328.568 186.558 330.816 186.408C333.065 186.258 335.221 185.458 337.021 184.106C338.822 182.753 340.189 180.907 340.955 178.792C341.994 180.787 343.593 182.436 345.557 183.538C347.521 184.64 349.764 185.147 352.012 184.997C354.261 184.847 356.417 184.047 358.217 182.694C360.017 181.341 361.383 179.494 362.148 177.379C363.187 179.373 364.786 181.023 366.75 182.124C368.714 183.226 370.957 183.733 373.205 183.584C375.454 183.434 377.609 182.633 379.41 181.28C381.21 179.927 382.576 178.08 383.341 175.965C384.381 177.96 385.981 179.608 387.945 180.71C389.91 181.811 392.153 182.318 394.401 182.168C396.65 182.018 398.806 181.218 400.606 179.865C402.407 178.513 403.774 176.666 404.54 174.552C405.579 176.546 407.178 178.196 409.142 179.297C411.106 180.399 413.349 180.906 415.597 180.757C417.846 180.607 420.002 179.806 421.802 178.453C423.602 177.1 424.968 175.253 425.733 173.138C426.822 175.227 428.524 176.935 430.611 178.033C432.699 179.131 435.072 179.568 437.415 179.285C439.758 179.002 441.959 178.013 443.724 176.449C445.489 174.885 446.735 172.822 447.294 170.534C448.501 172.788 450.422 174.58 452.757 175.63C455.092 176.68 457.71 176.929 460.202 176.337C462.694 175.745 464.92 174.347 466.532 172.36C468.145 170.373 469.052 167.91 469.113 165.354C470.905 167.072 473.204 168.168 475.669 168.479C478.135 168.79 480.635 168.301 482.8 167.083C484.966 165.865 486.68 163.984 487.69 161.718C488.7 159.452 488.952 156.922 488.408 154.502C490.607 155.53 493.075 155.842 495.462 155.395C497.85 154.948 500.037 153.764 501.714 152.01C503.391 150.256 504.474 148.021 504.81 145.62C505.145 143.219 504.717 140.774 503.585 138.63C506.008 139.011 508.49 138.616 510.675 137.501C512.859 136.386 514.632 134.608 515.74 132.424C516.848 130.239 517.233 127.761 516.84 125.344C516.447 122.928 515.296 120.699 513.553 118.977C516.116 118.735 518.527 117.649 520.403 115.889C522.28 114.129 523.517 111.796 523.918 109.258C524.319 106.72 523.862 104.121 522.619 101.871C521.376 99.6209 519.417 97.8482 517.052 96.8322C519.584 96.0684 521.779 94.4642 523.273 92.2856C524.766 90.107 525.469 87.4846 525.264 84.8533C525.06 82.222 523.96 79.7397 522.148 77.8178C520.336 75.896 517.92 74.65 515.3 74.2864C517.406 72.8568 518.981 70.7754 519.784 68.3636C520.586 65.9518 520.571 63.3436 519.74 60.942C518.908 58.5403 517.308 56.4787 515.185 55.0756C513.063 53.6724 510.536 53.0057 507.995 53.1785L507.946 53.1818C509.361 51.1863 510.105 48.7945 510.072 46.3505C510.038 43.9064 509.229 41.5362 507.76 39.5808C506.291 37.6254 504.238 36.1855 501.896 35.4685C499.555 34.7514 497.045 34.7941 494.729 35.5903C495.478 33.2847 495.482 30.8027 494.741 28.495C494 26.1873 492.551 24.1705 490.598 22.7296C488.646 21.2887 486.289 20.4966 483.86 20.465C481.432 20.4335 479.054 21.1641 477.064 22.5538C477.086 22.1259 477.082 21.6971 477.053 21.2696C476.892 18.9013 476.006 16.6398 474.514 14.7915C473.021 12.9433 470.996 11.5976 468.711 10.937C466.426 10.2763 463.993 10.3326 461.741 11.0981C459.489 11.8637 457.527 13.3015 456.121 15.2168C455.642 12.7208 454.352 10.4519 452.451 8.7604C450.551 7.06884 448.145 6.04862 445.605 5.85715C443.066 5.66571 440.533 6.31367 438.399 7.70105C436.264 9.08843 434.646 11.1381 433.795 13.5337C432.888 11.3905 431.355 9.56994 429.395 8.30987C427.435 7.04979 425.14 6.40871 422.809 6.47032C420.479 6.53192 418.22 7.29332 416.329 8.65516C414.439 10.017 413.003 11.916 412.21 14.1042C411.169 12.1099 409.57 10.4614 407.605 9.35997C405.641 8.25852 403.398 7.7518 401.15 7.90173C398.901 8.05167 396.745 8.85177 394.945 10.2043C393.144 11.5568 391.777 13.4032 391.011 15.5179C389.972 13.5232 388.372 11.874 386.409 10.7721C384.445 9.67013 382.202 9.16314 379.953 9.31307C377.705 9.463 375.549 10.2633 373.749 11.6163C371.949 12.9692 370.583 14.8161 369.818 16.9312C368.779 14.9365 367.179 13.2873 365.216 12.1854C363.252 11.0834 361.009 10.5764 358.76 10.7264C356.512 10.8763 354.356 11.6766 352.556 13.0296C350.756 14.3825 349.39 16.2294 348.625 18.3444C347.585 16.3502 345.985 14.7017 344.02 13.6003C342.056 12.4988 339.813 11.9921 337.565 12.142C335.316 12.292 333.16 13.0921 331.36 14.4446C329.559 15.7971 328.192 17.6434 327.426 19.7581C326.387 17.7635 324.787 16.1143 322.824 15.0124C320.86 13.9104 318.617 13.4034 316.368 13.5534C314.12 13.7033 311.964 14.5036 310.164 15.8566C308.364 17.2095 306.998 19.0564 306.233 21.1714C305.194 19.1767 303.594 17.5276 301.631 16.4257C299.667 15.3237 297.424 14.8167 295.176 14.9666C292.927 15.1166 290.771 15.9169 288.971 17.2699C287.171 18.6228 285.805 20.4697 285.04 22.5847C284.001 20.59 282.402 18.9409 280.438 17.8389C278.474 16.737 276.231 16.23 273.983 16.3799C271.734 16.5299 269.578 17.3302 267.778 18.6832C265.978 20.0361 264.612 21.883 263.847 23.998C262.807 22.0038 261.207 20.3553 259.243 19.2538C257.278 18.1524 255.035 17.6456 252.787 17.7956C250.538 17.9455 248.382 18.7456 246.582 20.0981C244.781 21.4506 243.414 23.297 242.648 25.4117C241.609 23.417 240.009 21.7679 238.046 20.6659C236.082 19.564 233.839 19.057 231.591 19.2069C229.342 19.3569 227.186 20.1572 225.386 21.5101C223.586 22.8631 222.22 24.71 221.455 26.825C220.416 24.8303 218.817 23.1812 216.853 22.0792C214.889 20.9773 212.646 20.4703 210.398 20.6202C208.149 20.7701 205.993 21.5705 204.193 22.9234C202.393 24.2764 201.027 26.1233 200.262 28.2383C199.222 26.2441 197.622 24.5956 195.658 23.4941C193.693 22.3927 191.45 21.8859 189.202 22.0359C186.953 22.1858 184.797 22.9859 182.997 24.3384C181.196 25.6909 179.829 27.5373 179.063 29.652C178.024 27.6573 176.425 26.0082 174.461 24.9062C172.497 23.8043 170.254 23.2973 168.006 23.4472C165.757 23.5971 163.601 24.3975 161.801 25.7504C160.001 27.1034 158.635 28.9503 157.87 31.0653C156.831 29.0706 155.232 27.4214 153.268 26.3195C151.304 25.2176 149.061 24.7106 146.813 24.8605C144.564 25.0104 142.409 25.8108 140.608 27.1637C138.808 28.5167 137.442 30.3636 136.677 32.4786C135.635 30.4893 134.035 28.8452 132.073 27.7463C130.112 26.6473 127.872 26.1408 125.627 26.2882Z" fill="#F2F2F2"/>
<path d="M90.6465 142.396C86.6021 142.665 82.9167 142.226 79.5902 141.076C76.2637 139.927 73.3821 138.215 70.9453 135.94C68.5591 133.662 66.6481 130.895 65.2123 127.639C63.7764 124.384 62.9271 120.784 62.6641 116.841C62.4011 112.898 62.765 109.217 63.7558 105.8C64.7466 102.382 66.2733 99.3862 68.3359 96.8112C70.449 94.2329 73.0778 92.1534 76.2223 90.5726C79.3667 88.9919 82.9611 88.0667 87.0055 87.797C90.1398 87.588 92.9726 87.8053 95.5037 88.449C98.0314 89.0421 100.273 89.9082 102.227 91.0473C104.179 92.1359 105.84 93.4469 107.212 94.9804C108.631 96.4599 109.799 97.9816 110.716 99.5454C111.68 101.055 112.387 102.531 112.839 103.974C113.338 105.362 113.621 106.562 113.689 107.573L108.684 107.907C108.667 107.654 108.5 107.056 108.183 106.112C107.866 105.169 107.364 104.11 106.677 102.938C106.036 101.711 105.165 100.449 104.063 99.1512C103.011 97.8503 101.69 96.6943 100.099 95.6832C98.5556 94.6182 96.7222 93.7757 94.5989 93.1556C92.4756 92.5355 90.0489 92.3165 87.319 92.4985C83.9824 92.721 81.0385 93.5013 78.4872 94.8394C75.9865 96.1741 73.8935 97.9132 72.2084 100.057C70.5739 102.197 69.3691 104.689 68.5939 107.534C67.866 110.324 67.6082 113.312 67.8206 116.497C68.033 119.682 68.6869 122.634 69.7823 125.354C70.9249 128.02 72.4483 130.305 74.3526 132.209C76.3074 134.11 78.6127 135.556 81.2685 136.547C83.9749 137.534 86.9964 137.917 90.333 137.694C93.0629 137.512 95.4389 136.973 97.4611 136.076C99.4833 135.18 101.19 134.126 102.582 132.917C104.021 131.653 105.176 130.306 106.045 128.877C106.965 127.445 107.663 126.103 108.138 124.853C108.66 123.549 109.018 122.433 109.21 121.506C109.398 120.529 109.483 119.888 109.462 119.585L114.467 119.251C114.535 120.262 114.415 121.515 114.108 123.008C113.849 124.447 113.343 126.004 112.592 127.679C111.888 129.3 110.932 130.963 109.726 132.669C108.566 134.32 107.093 135.84 105.307 137.229C103.518 138.567 101.411 139.723 98.9879 140.697C96.5613 141.62 93.7809 142.187 90.6465 142.396ZM152.258 138.287C148.214 138.557 144.528 138.117 141.202 136.968C137.926 135.815 135.069 134.101 132.632 131.827C130.246 129.548 128.335 126.781 126.899 123.526C125.464 120.27 124.614 116.671 124.351 112.727C124.088 108.784 124.452 105.104 125.443 101.686C126.434 98.2687 127.961 95.2724 130.023 92.6975C132.136 90.1192 134.74 88.0413 137.834 86.464C140.978 84.8832 144.572 83.958 148.617 83.6883C152.611 83.422 156.271 83.8634 159.597 85.0126C162.924 86.1618 165.78 87.8756 168.166 90.1538C170.603 92.4287 172.539 95.194 173.975 98.4497C175.411 101.705 176.26 105.305 176.523 109.248C176.786 113.191 176.422 116.872 175.432 120.289C174.441 123.707 172.889 126.705 170.776 129.283C168.713 131.858 166.11 133.936 162.965 135.516C159.821 137.097 156.252 138.021 152.258 138.287ZM151.944 133.585C155.18 133.37 158.048 132.594 160.549 131.26C163.1 129.922 165.193 128.183 166.827 126.042C168.513 123.899 169.744 121.43 170.523 118.636C171.298 115.792 171.579 112.777 171.367 109.592C171.154 106.407 170.477 103.482 169.334 100.816C168.188 98.0993 166.638 95.7907 164.683 93.8899C162.779 91.9857 160.474 90.5399 157.767 89.5524C155.112 88.5616 152.166 88.1741 148.93 88.3899C145.644 88.609 142.751 89.3859 140.25 90.7206C137.749 92.0553 135.657 93.7944 133.971 95.9379C132.337 98.0781 131.132 100.57 130.357 103.415C129.578 106.209 129.295 109.198 129.508 112.383C129.72 115.568 130.399 118.519 131.545 121.235C132.688 123.901 134.211 126.186 136.116 128.091C138.07 129.991 140.376 131.437 143.032 132.428C145.687 133.419 148.658 133.805 151.944 133.585ZM187.654 81.8467L224.508 79.389L224.812 83.9389L192.963 86.0628L194.055 102.442L210.89 101.32C217.563 100.875 222.682 101.879 226.248 104.333C229.864 106.783 231.851 110.687 232.209 116.046C232.563 121.354 231.112 125.488 227.856 128.447C224.648 131.352 219.707 133.027 213.034 133.472L191.194 134.929L187.654 81.8467ZM212.73 128.923C217.634 128.595 221.338 127.409 223.842 125.363C226.346 123.317 227.467 120.323 227.204 116.38C226.941 112.436 225.433 109.617 222.679 107.922C219.925 106.227 216.097 105.543 211.193 105.87L194.358 106.992L195.896 130.045L212.73 128.923ZM242.232 78.2071L247.237 77.8733L248.481 96.5279L262.131 95.6176C268.855 95.1692 274.035 96.3218 277.671 99.0752C281.359 101.825 283.386 105.956 283.753 111.466C284.121 116.976 282.66 121.339 279.371 124.555C276.132 127.767 271.151 129.597 264.427 130.045L245.772 131.289L242.232 78.2071ZM264.123 125.495C269.078 125.165 272.798 123.85 275.286 121.552C277.773 119.253 278.877 116.006 278.597 111.81C278.317 107.614 276.792 104.542 274.021 102.594C271.251 100.646 267.389 99.8371 262.434 100.168L248.785 101.078L250.474 126.406L264.123 125.495ZM290.689 74.9757L295.694 74.6419L299.233 127.724L294.229 128.058L290.689 74.9757ZM324.91 77.2637L305.118 78.5836L304.814 74.0337L349.403 71.0602L349.706 75.6101L329.914 76.93L333.151 125.462L328.146 125.796L324.91 77.2637ZM358.498 70.4537L363.502 70.1199L366.683 117.818L366.911 117.803L394.593 68.0466L402.101 67.546L405.641 120.628L400.636 120.962L397.455 73.2638L397.227 73.2789L369.545 123.035L362.037 123.536L358.498 70.4537ZM429.092 98.3463C428.839 98.3631 428.065 98.1862 426.771 97.8155C425.527 97.4414 424.184 96.7185 422.742 95.6468C421.299 94.5751 419.953 93.0399 418.703 91.0414C417.503 89.0394 416.797 86.446 416.584 83.2611C416.426 80.885 416.683 78.6589 417.357 76.5828C418.082 74.5033 419.154 72.68 420.573 71.1127C421.988 69.495 423.731 68.2109 425.8 67.2604C427.866 66.2594 430.188 65.6729 432.766 65.501L454.378 64.0597L457.918 117.142L452.913 117.476L451.593 97.6835L434.304 98.8365L423.87 119.412L418.182 119.792L429.092 98.3463ZM451.29 93.1337L449.677 68.9434L433.07 70.0509C431.351 70.1655 429.755 70.602 428.282 71.3603C426.857 72.0647 425.625 73.0101 424.587 74.1965C423.596 75.3289 422.846 76.6484 422.337 78.1549C421.828 79.6615 421.631 81.2742 421.746 82.993C421.86 84.7119 422.245 86.2858 422.898 87.7148C423.552 89.1438 424.422 90.3807 425.507 91.4254C426.589 92.4196 427.858 93.1729 429.314 93.6851C430.77 94.1974 432.357 94.3962 434.076 94.2816L451.29 93.1337Z" fill="#1D4DF5"/>
</svg>
