<svg width="543" height="254" viewBox="0 0 543 254" fill="none" xmlns="http://www.w3.org/2000/svg">
<path d="M140.415 28.6872L131.615 16.5423L119.537 25.27L110.019 13.1731L97.8042 22.751L85.1231 13.7728L76.418 26.0652L62.1419 21.0783L57.1966 35.1907L42.2703 34.2588L41.355 49.2496L26.6508 52.456L29.9374 67.4494L16.4628 74.8177L24.0449 88.643L12.9491 99.862L23.8398 110.604L16.5756 124.056L29.7968 131.195L26.5524 145.825L41.1721 149.06L42.0197 164.027L57.1385 163.17L62.158 177.425L76.9059 172.262L86.0558 184.89L98.2122 176.105L107.018 188.251L119.175 179.467L127.975 191.612L140.131 182.828L148.932 194.973L161.088 186.189L169.894 198.334L182.051 189.55L190.845 201.694L203.001 192.91L211.807 205.056L223.964 196.272L232.77 208.418L244.927 199.633L253.727 211.778L265.883 202.994L274.683 215.139L286.834 206.354L295.64 218.5L307.802 209.716L316.603 221.861L328.759 213.077L337.559 225.222L349.716 216.438L358.516 228.583L370.678 219.799L379.466 231.942L391.623 223.158L400.435 235.305L412.591 226.521L421.392 238.666L433.47 229.938L445.075 240.964L455.592 229.91L469.167 236.917L476.04 223.591L490.75 226.577L493.729 211.917L508.671 210.794L507.525 195.692L521.735 190.399L516.256 175.719L528.751 166.312L519.372 153.898L528.628 141.381L516.45 132.401L521.716 118.246L507.677 113.034L508.887 98.128L493.912 96.9122L490.979 82.1765L475.94 85.1598L468.84 71.5811L454.678 78.9647L445.988 66.9566L433.831 75.7408L425.031 63.5959L412.875 72.3802L404.075 60.2352L391.912 69.0185L383.112 56.8736L370.956 65.6578L362.156 53.5129L349.999 62.2971L341.199 50.1522L329.036 58.9354L320.236 46.7905L308.08 55.5747L299.28 43.4298L287.123 52.214L278.323 40.0691L266.167 48.8533L257.36 36.7074L245.204 45.4916L236.404 33.3467L224.247 42.1309L215.447 29.986L203.291 38.7702L194.485 26.6244L182.334 35.4095L173.528 23.2637L161.372 32.0479L152.571 19.903L140.415 28.6872ZM31.5801 68.2523L31.511 68.1346L31.6485 68.1001L31.5801 68.2523ZM25.6937 110.325L25.6509 110.318L25.6577 110.275L25.6937 110.325ZM77.3799 170.952L77.2804 171.024L77.242 170.911L77.3799 170.952ZM25.557 89.2807L25.0635 88.7938L25.6772 88.4531L25.557 89.2807Z" fill="#F2F2F2"/>
<path d="M93.6194 73.0186L101.349 74.2581L114.304 110.588L114.379 110.6L114.454 110.612L138.119 80.1548L145.848 81.3943L137.424 133.923L132.472 133.129L139.993 86.2281L139.768 86.192L116.82 115.533L110.517 114.522L97.8947 79.477L97.6696 79.4409L90.1484 126.342L85.1956 125.547L93.6194 73.0186ZM176.426 86.2979L183.255 87.393L196.368 143.376L191.19 142.545L188.034 129.108L158.843 124.427L151.643 136.203L146.466 135.373L176.426 86.2979ZM186.88 124.305L179.255 91.2159L179.03 91.1798L161.441 120.225L186.88 124.305ZM213.803 92.2918L250.423 98.1643L249.701 102.667L218.033 97.5885L210.332 145.615L205.379 144.821L213.803 92.2918ZM268.249 101.023L275.078 102.118L288.191 158.101L283.013 157.27L279.857 143.833L250.666 139.152L243.466 150.929L238.289 150.098L268.249 101.023ZM278.703 139.03L271.078 105.941L270.853 105.905L253.264 134.95L278.703 139.03ZM315.542 163.257C312.54 162.775 309.82 161.98 307.38 160.87C304.991 159.769 302.98 158.394 301.345 156.747C299.711 155.099 298.525 153.215 297.787 151.096C297.107 148.934 296.968 146.603 297.369 144.101L297.79 141.475L302.818 142.281L302.397 144.908C302.092 146.809 302.203 148.52 302.728 150.041C303.304 151.57 304.191 152.918 305.39 154.085C306.638 155.261 308.173 156.251 309.993 157.056C311.872 157.819 313.962 158.385 316.264 158.754C318.565 159.123 320.706 159.21 322.687 159.015C324.719 158.827 326.507 158.395 328.052 157.72C329.605 156.994 330.861 156.041 331.82 154.86C332.837 153.638 333.482 152.176 333.755 150.475C334.285 147.173 333.414 144.442 331.143 142.282C328.873 140.122 325.565 138.668 321.221 137.92L313.642 136.705L314.364 132.202L321.793 133.394C326.045 134.076 329.391 133.689 331.831 132.233C334.279 130.726 335.724 128.598 336.165 125.846C336.398 124.395 336.26 123.014 335.753 121.701C335.245 120.388 334.409 119.202 333.244 118.142C332.138 117.041 330.72 116.121 328.992 115.382C327.271 114.593 325.285 114.018 323.034 113.657C318.531 112.935 314.81 113.262 311.87 114.638C308.979 116.022 307.281 118.289 306.776 121.441L306.499 123.167L301.472 122.361L301.748 120.635C302.101 118.434 302.897 116.509 304.137 114.86C305.376 113.212 306.947 111.898 308.848 110.92C310.808 109.901 313.044 109.233 315.558 108.918C318.071 108.602 320.804 108.681 323.756 109.155C326.707 109.628 329.328 110.407 331.617 111.493C333.956 112.586 335.871 113.92 337.364 115.493C338.914 117.025 340.024 118.742 340.694 120.646C341.364 122.549 341.53 124.551 341.193 126.652C340.816 129.004 340.057 130.858 338.916 132.214C337.783 133.52 336.623 134.515 335.436 135.197C334.024 135.997 332.503 136.522 330.872 136.774L330.824 137.074C332.603 137.821 334.133 138.836 335.416 140.12C336.522 141.221 337.464 142.706 338.242 144.575C339.028 146.395 339.208 148.63 338.783 151.282C338.406 153.633 337.54 155.675 336.184 157.407C334.887 159.098 333.204 160.47 331.137 161.524C329.077 162.528 326.711 163.2 324.04 163.542C321.376 163.833 318.543 163.738 315.542 163.257ZM357.29 115.302L362.242 116.096L354.673 163.297L354.898 163.333L393.009 121.03L400.438 122.222L392.015 174.75L387.062 173.956L394.631 126.755L394.406 126.719L356.295 169.022L348.866 167.831L357.29 115.302ZM415.476 124.633L420.429 125.427L416.734 148.465L449.752 153.76L453.447 130.722L458.399 131.516L449.976 184.045L445.023 183.251L449.03 158.262L416.012 152.967L412.005 177.956L407.052 177.162L415.476 124.633Z" fill="#1D4DF5"/>
</svg>
