<svg width="175" height="174" viewBox="0 0 175 174" fill="none" xmlns="http://www.w3.org/2000/svg">
<path d="M164.776 98.2046C167.461 97.7197 169.89 96.3029 171.64 94.2018C173.389 92.1006 174.348 89.4488 174.348 86.7099C174.348 83.971 173.389 81.3192 171.64 79.218C169.89 77.1169 167.461 75.7001 164.776 75.2152C167.09 74.0166 168.937 72.0735 170.021 69.6965C171.106 67.3195 171.365 64.6461 170.757 62.1037C170.15 59.5614 168.711 57.2971 166.67 55.673C164.63 54.0489 162.106 53.1587 159.503 53.145H159.26C160.935 51.2572 161.954 48.8741 162.164 46.3543C162.374 43.8345 161.762 41.3146 160.422 39.174C159.082 37.0333 157.086 35.3878 154.733 34.4852C152.381 33.5827 149.801 33.4719 147.381 34.1696C148.386 31.8792 148.632 29.3251 148.082 26.8837C147.532 24.4423 146.216 22.2429 144.327 20.6096C142.439 18.9763 140.077 17.9955 137.591 17.8119C135.106 17.6282 132.627 18.2514 130.52 19.5895C130.607 19.0372 130.653 18.4792 130.657 17.9201C130.658 15.4972 129.908 13.134 128.512 11.1577C127.117 9.18137 125.144 7.68961 122.866 6.88889C120.589 6.08817 118.12 6.01809 115.802 6.68836C113.483 7.35862 111.429 8.73608 109.924 10.6301C109.68 7.92225 108.503 5.3848 106.595 3.45476C104.688 1.52472 102.171 0.322907 99.4762 0.0563219C96.7816 -0.210264 94.0788 0.475063 91.8333 1.99427C89.5878 3.51347 87.9401 5.77144 87.174 8.3793C86.408 5.77144 84.7603 3.51347 82.5148 1.99427C80.2693 0.475063 77.5665 -0.210264 74.8719 0.0563219C72.1773 0.322907 69.6597 1.52472 67.7526 3.45476C65.8455 5.3848 64.6683 7.92225 64.4238 10.6301C62.9187 8.73567 60.8643 7.35803 58.545 6.68792C56.2257 6.01782 53.7564 6.08841 51.4788 6.88992C49.2013 7.69143 47.2282 9.1842 45.8329 11.1615C44.4376 13.1389 43.689 15.5029 43.6908 17.9264C43.6951 18.4855 43.7409 19.0435 43.8277 19.5957C41.7213 18.2639 39.245 17.6455 36.7627 17.8313C34.2803 18.0171 31.9228 18.9974 30.0362 20.6281C28.1496 22.2588 26.8335 24.4541 26.2812 26.8914C25.7288 29.3287 25.9693 31.8797 26.9674 34.1696C24.5481 33.477 21.9704 33.5913 19.6213 34.4952C17.2722 35.3991 15.2785 37.0439 13.9396 39.1826C12.6006 41.3213 11.9888 43.8384 12.1959 46.356C12.4029 48.8737 13.4178 51.2559 15.088 53.145H14.8451C12.2306 53.1452 9.69222 54.0295 7.63936 55.6555C5.5865 57.2815 4.13876 59.5543 3.52954 62.1076C2.92032 64.6608 3.18513 67.3457 4.28127 69.7293C5.37742 72.113 7.24102 74.0565 9.57161 75.2465C6.88719 75.7313 4.45784 77.1481 2.70822 79.2493C0.958593 81.3504 0 84.0022 0 86.7412C0 89.4801 0.958593 92.1319 2.70822 94.233C4.45784 96.3342 6.88719 97.751 9.57161 98.2358C7.24102 99.4258 5.37742 101.369 4.28127 103.753C3.18513 106.137 2.92032 108.821 3.52954 111.375C4.13876 113.928 5.5865 116.201 7.63936 117.827C9.69222 119.453 12.2306 120.337 14.8451 120.337H15.088C13.4413 122.229 12.4467 124.604 12.2522 127.109C12.0577 129.614 12.6736 132.115 14.0084 134.24C15.3432 136.365 17.3255 138 19.6604 138.903C21.9953 139.806 24.5581 139.928 26.9674 139.25C25.9715 141.539 25.7328 144.089 26.2864 146.525C26.84 148.96 28.1568 151.153 30.0433 152.782C31.9298 154.411 34.2867 155.389 36.7677 155.573C39.2488 155.757 41.7233 155.138 43.8277 153.805C43.7409 154.358 43.6951 154.916 43.6908 155.475C43.689 157.898 44.4376 160.262 45.8329 162.239C47.2282 164.217 49.2013 165.71 51.4788 166.511C53.7564 167.313 56.2257 167.383 58.545 166.713C60.8643 166.043 62.9187 164.665 64.4238 162.771C64.6618 165.481 65.834 168.023 67.7384 169.958C69.6427 171.893 72.1598 173.1 74.8556 173.372C77.5514 173.643 80.257 172.961 82.5057 171.443C84.7545 169.926 86.4055 167.668 87.174 165.059C87.9397 167.667 89.5868 169.925 91.8318 171.444C94.0767 172.964 96.7791 173.65 99.4734 173.384C102.168 173.118 104.686 171.917 106.593 169.988C108.501 168.059 109.679 165.522 109.924 162.815C111.429 164.709 113.484 166.087 115.803 166.757C118.122 167.427 120.592 167.356 122.869 166.555C125.147 165.753 127.12 164.261 128.515 162.283C129.91 160.306 130.659 157.942 130.657 155.518C130.653 154.959 130.607 154.401 130.52 153.849C132.627 155.182 135.105 155.802 137.588 155.616C140.072 155.43 142.43 154.449 144.317 152.817C146.205 151.186 147.521 148.989 148.072 146.55C148.623 144.111 148.381 141.559 147.381 139.269C149.797 139.955 152.369 139.838 154.713 138.934C157.057 138.03 159.046 136.388 160.384 134.254C161.721 132.12 162.334 129.609 162.132 127.095C161.929 124.582 160.922 122.203 159.26 120.312H159.503C162.117 120.312 164.656 119.428 166.709 117.802C168.762 116.176 170.209 113.903 170.818 111.35C171.428 108.796 171.163 106.112 170.067 103.728C168.971 101.344 167.107 99.4008 164.776 98.2108V98.2046Z" fill="#FF5903"/>
<path d="M87.3266 40.6538C68.0993 40.6538 52.457 56.2149 52.457 75.3423C52.457 103.841 83.8558 131.667 85.193 132.838C85.8025 133.372 86.5644 133.639 87.3266 133.639C88.0889 133.639 88.8508 133.372 89.4606 132.838C90.7971 131.668 122.196 103.841 122.196 75.3423C122.196 56.2149 106.554 40.6538 87.3266 40.6538ZM87.3266 65.6042C92.6676 65.6042 97.0127 69.9727 97.0127 75.3423C97.0127 80.712 92.6676 85.0804 87.3266 85.0804C81.9857 85.0804 77.6405 80.712 77.6405 75.3423C77.6405 69.9727 81.9857 65.6042 87.3266 65.6042Z" fill="#F2F2F2"/>
</svg>
