<svg width="361" height="204" viewBox="0 0 361 204" fill="none" xmlns="http://www.w3.org/2000/svg">
<path d="M126.916 20.5308L117.348 9.13171L106.078 18.5258L95.3421 7.37029L84.3112 17.9861L70.9911 10.3615L63.5434 23.3259L49.0285 19.7174L45.4463 34.1043L30.6023 34.5148L30.9922 49.4133L16.7514 53.8643L21.3145 68.4217L8.59708 76.8651L17.2669 89.8752L7.22101 101.873L18.8532 111.579L12.7459 125.435L26.3862 131.434L24.2925 146.172L39.0063 148.256L40.9536 162.946L55.8763 160.962L61.8409 174.756L76.1 168.572L85.9984 180.454L97.4442 170.908L106.948 182.332L118.393 172.786L127.922 184.213L139.336 174.664L148.852 186.089L160.298 176.543L169.808 187.968L181.254 178.422L190.757 189.846L202.172 180.297L211.712 191.725L223.158 182.178L232.662 193.603L244.076 184.054L253.617 195.481L265.063 185.935L277.565 195.663L286.855 183.759L300.885 189.37L306.421 175.563L321.228 177.17L322.827 162.388L337.496 159.972L335.026 145.135L348.623 138.699L341.945 124.654L353.511 114.261L343.225 102.804L351.345 89.7066L338.59 81.8279L342.712 67.4584L328.425 63.3976L328.508 48.5726L313.597 48.4796L309.57 34.132L294.88 38.1697L286.901 25.2339L273.419 33.5279L264.042 22.2829L252.63 31.801L243.062 20.402L231.65 29.9202L222.082 18.5211L210.67 28.0393L201.102 16.6402L189.69 26.1584L180.122 14.7594L168.71 24.2776L159.284 12.8912L147.841 22.4067L138.328 11.0126L126.916 20.5308ZM18.8194 90.2072L18.5185 89.9501L18.8429 89.7367L18.8194 90.2072Z" fill="#FF5903"/>
<path d="M78.899 120.03C74.6494 119.649 70.889 118.589 67.6179 116.85C64.3999 115.116 61.71 112.867 59.5481 110.103C57.4394 107.343 55.9048 104.154 54.9442 100.533C53.9836 96.9131 53.6891 93.0313 54.0605 88.8879C54.432 84.7445 55.4123 80.977 57.0015 77.5854C58.5907 74.1937 60.6682 71.3278 63.2341 68.9875C65.8531 66.6521 68.9002 64.9172 72.3753 63.783C75.9036 62.6535 79.7926 62.2793 84.0422 62.6603C88.2387 63.0365 91.9725 64.0941 95.2436 65.8331C98.5148 67.5722 101.205 69.8213 103.313 72.5806C105.475 75.3447 107.036 78.5369 107.997 82.1571C108.958 85.7773 109.252 89.6591 108.881 93.8025C108.509 97.9459 107.529 101.713 105.94 105.105C104.35 108.497 102.246 111.36 99.6274 113.696C97.0615 116.036 94.0144 117.771 90.4862 118.9C86.9579 120.03 83.0955 120.406 78.899 120.03ZM79.3419 115.09C82.7416 115.395 85.8508 115.058 88.6694 114.079C91.5412 113.105 94.0019 111.639 96.0516 109.68C98.1545 107.727 99.8391 105.361 101.106 102.583C102.377 99.7522 103.162 96.6634 103.462 93.3168C103.762 89.9702 103.536 86.8174 102.784 83.8584C102.037 80.8463 100.802 78.1922 99.0804 75.8959C97.4117 73.6044 95.251 71.724 92.5983 70.2546C89.9987 68.7899 86.999 67.9052 83.5993 67.6004C80.1465 67.2909 77.0108 67.6256 74.1921 68.6045C71.3734 69.5834 68.9127 71.0495 66.8099 73.0029C64.7602 74.961 63.0997 77.3556 61.8285 80.1868C60.562 82.9648 59.7788 86.0271 59.4788 89.3736C59.1788 92.7202 59.4024 95.8996 60.1498 98.9117C60.9019 101.871 62.1123 104.496 63.7811 106.787C65.5029 109.084 67.6636 110.964 70.2632 112.429C72.8628 113.893 75.889 114.78 79.3419 115.09ZM144.078 68.8457L149.337 69.3172L147.144 93.7791L182.204 96.9222L184.397 72.4603L189.656 72.9317L184.655 128.708L179.396 128.237L181.775 101.703L146.716 98.5599L144.337 125.093L139.078 124.622L144.078 68.8457ZM222.122 75.8424L229.373 76.4924L247.241 134.319L241.743 133.826L237.445 119.947L206.45 117.168L199.752 130.061L194.254 129.569L222.122 75.8424ZM235.882 114.987L225.453 80.7996L225.214 80.7781L208.87 112.566L235.882 114.987ZM279.425 138.007C275.175 137.626 271.415 136.566 268.144 134.827C264.873 133.088 262.156 130.837 259.994 128.073C257.885 125.313 256.351 122.124 255.39 118.503C254.43 114.883 254.135 111.001 254.507 106.858C254.878 102.715 255.858 98.947 257.448 95.5554C259.037 92.1637 261.114 89.2978 263.68 86.9576C266.299 84.6221 269.373 82.8896 272.901 81.7602C276.429 80.6307 280.318 80.2564 284.568 80.6374C287.861 80.9327 290.771 81.622 293.298 82.7052C295.83 83.7354 298.019 85.0026 299.865 86.5068C301.716 87.9579 303.23 89.5929 304.405 91.4118C305.639 93.1823 306.604 94.9556 307.302 96.7317C308.057 98.4593 308.552 100.11 308.785 101.684C309.077 103.209 309.175 104.503 309.08 105.566L303.821 105.094C303.845 104.829 303.769 104.179 303.594 103.146C303.419 102.113 303.07 100.931 302.547 99.5985C302.081 98.2181 301.382 96.7632 300.448 95.2337C299.567 93.709 298.383 92.2908 296.894 90.9793C295.463 89.6195 293.694 88.4435 291.588 87.4514C289.481 86.4594 286.994 85.8348 284.125 85.5776C280.619 85.2633 277.43 85.5932 274.558 86.5674C271.74 87.5462 269.279 89.0124 267.176 90.9657C265.127 92.9239 263.466 95.3185 262.195 98.1496C260.982 100.932 260.225 103.997 259.925 107.344C259.625 110.69 259.822 113.867 260.516 116.875C261.268 119.834 262.479 122.459 264.147 124.75C265.869 127.047 268.03 128.927 270.63 130.392C273.282 131.861 276.362 132.753 279.868 133.067C282.736 133.324 285.295 133.152 287.544 132.551C289.794 131.949 291.741 131.133 293.386 130.102C295.089 129.024 296.51 127.812 297.648 126.468C298.839 125.129 299.784 123.849 300.482 122.626C301.239 121.355 301.793 120.254 302.144 119.321C302.5 118.336 302.692 117.684 302.721 117.365L307.98 117.837C307.885 118.899 307.555 120.181 306.992 121.684C306.487 123.138 305.707 124.674 304.651 126.293C303.654 127.864 302.388 129.437 300.855 131.013C299.379 132.541 297.599 133.88 295.515 135.032C293.435 136.131 291.056 136.988 288.376 137.605C285.702 138.169 282.718 138.303 279.425 138.007Z" fill="#F2F2F2"/>
</svg>
