<svg width="529" height="200" viewBox="0 0 529 200" fill="none" xmlns="http://www.w3.org/2000/svg">
<path d="M86.6938 21.564C38.8574 23.9004 1.97234 64.5735 4.3087 112.41C6.64506 160.246 47.3181 197.131 95.1546 194.795L441.617 177.874C489.453 175.537 526.338 134.864 524.002 87.0277C521.665 39.1913 480.992 2.30622 433.156 4.64258L86.6938 21.564Z" fill="#FFD916"/>
<path d="M60.1185 81.8204L103.083 79.7219L105.679 132.859L100.669 133.103L98.2957 84.5212L65.351 86.1302L67.7238 134.712L62.7138 134.957L60.1185 81.8204ZM118.237 78.9818L123.247 78.7371L125.579 126.484L125.806 126.473L154.37 77.2171L161.885 76.85L164.48 129.987L159.47 130.231L157.138 82.4843L156.91 82.4954L128.347 131.751L120.832 132.118L118.237 78.9818ZM191.058 79.9906L171.246 80.9582L171.024 76.4037L215.658 74.2237L215.881 78.7783L196.068 79.7459L198.441 128.328L193.431 128.573L191.058 79.9906ZM248.932 126.623C244.883 126.821 241.206 126.315 237.901 125.107C234.646 123.897 231.821 122.132 229.425 119.814C227.079 117.494 225.218 114.694 223.84 111.413C222.462 108.132 221.677 104.518 221.484 100.571C221.292 96.6235 221.721 92.9502 222.772 89.5509C223.824 86.1516 225.403 83.183 227.512 80.6451C229.67 78.1048 232.31 76.0736 235.432 74.5515C238.604 73.0269 242.214 72.1658 246.263 71.968C250.26 71.7728 253.912 72.2792 257.218 73.4874C260.523 74.6956 263.349 76.4599 265.694 78.7802C268.09 81.0981 269.977 83.8974 271.354 87.1781C272.732 90.4588 273.517 94.0728 273.71 98.0201C273.903 101.967 273.474 105.641 272.422 109.04C271.371 112.439 269.766 115.409 267.607 117.95C265.499 120.487 262.859 122.519 259.687 124.043C256.515 125.568 252.93 126.428 248.932 126.623ZM248.702 121.917C251.941 121.758 254.822 121.034 257.346 119.744C259.921 118.452 262.045 116.75 263.717 114.639C265.44 112.526 266.715 110.08 267.543 107.3C268.369 104.47 268.704 101.46 268.548 98.2722C268.393 95.084 267.767 92.147 266.672 89.4612C265.575 86.7248 264.066 84.389 262.145 82.4537C260.275 80.516 257.996 79.0294 255.307 77.994C252.67 76.9561 249.731 76.5162 246.492 76.6744C243.203 76.8351 240.296 77.5604 237.772 78.8504C235.248 80.1404 233.125 81.842 231.402 83.9553C229.729 86.066 228.48 88.5366 227.655 91.3669C226.827 94.1466 226.491 97.1305 226.646 100.319C226.802 103.507 227.429 106.469 228.526 109.206C229.621 111.891 231.104 114.203 232.974 116.141C234.894 118.076 237.174 119.563 239.811 120.601C242.449 121.639 245.413 122.077 248.702 121.917ZM285.327 70.821L293.145 70.4392L313.317 103.314L313.393 103.311L313.469 103.307L330.341 68.6225L338.16 68.2406L340.755 121.377L335.745 121.622L333.428 74.1785L333.2 74.1897L316.8 107.634L310.423 107.945L290.842 76.2584L290.615 76.2696L292.932 123.713L287.922 123.958L285.327 70.821ZM399.242 118.521L355.974 120.634L353.378 67.4973L358.388 67.2526L360.761 115.835L391.353 114.341L388.98 65.7585L393.99 65.5138L396.363 114.096L404.03 113.721L404.882 131.181L399.872 131.425L399.242 118.521ZM411.941 64.6371L416.951 64.3924L417.863 83.0661L431.527 82.3988C438.258 82.0701 443.417 83.3145 447.004 86.1322C450.641 88.9475 452.595 93.1131 452.864 98.6292C453.134 104.145 451.595 108.482 448.249 111.638C444.954 114.792 439.941 116.533 433.21 116.862L414.537 117.774L411.941 64.6371ZM432.988 112.307C437.947 112.065 441.691 110.817 444.219 108.563C446.746 106.309 447.908 103.082 447.702 98.8813C447.497 94.681 446.027 91.5824 443.292 89.5854C440.556 87.5885 436.709 86.7111 431.75 86.9534L418.086 87.6207L419.324 112.974L432.988 112.307ZM460.448 62.268L465.458 62.0233L468.053 115.16L463.043 115.405L460.448 62.268Z" fill="#1D4DF5"/>
</svg>
