<svg width="612" height="821" viewBox="0 0 612 821" fill="none" xmlns="http://www.w3.org/2000/svg">
<path d="M266.685 707.702C266.685 672.939 238.505 644.759 203.742 644.759C168.98 644.759 140.799 672.939 140.799 707.702C140.799 742.465 168.98 770.645 203.742 770.645C238.505 770.645 266.685 742.465 266.685 707.702Z" fill="#F2F2F2"/>
<path d="M471.388 188.83C471.388 154.067 443.207 125.887 408.445 125.887C373.682 125.887 345.501 154.067 345.501 188.83C345.501 223.593 373.682 251.773 408.445 251.773C443.207 251.773 471.388 223.593 471.388 188.83Z" fill="#FF5903"/>
<path d="M463.295 664.419L471.388 656.239L463.295 648.059L468.713 637.86L458.943 632.566L461.241 621.595L450.504 619.296L449.745 608.229L438.757 609.002L434.971 598.536L424.414 602.426L417.733 593.309L408.445 600.276L399.156 593.309L392.462 602.426L381.919 598.536L378.147 608.988L367.158 608.216L366.385 619.296L355.649 621.595L357.946 632.566L348.168 637.874L353.594 648.072L345.501 656.253L353.594 664.433L348.199 674.631L357.978 679.939L355.68 690.91L366.417 693.21L367.176 704.276L378.165 703.503L381.937 713.956L392.493 710.066L399.156 719.196L408.445 712.211L417.738 719.196L424.428 710.075L434.971 713.951L438.748 703.499L449.731 704.271L450.491 693.205L461.227 690.906L458.93 679.935L468.709 674.627L463.295 664.419ZM462.396 648.318C462.396 648.236 462.374 648.154 462.36 648.072L462.54 648.172L462.396 648.318ZM354.493 648.3L354.349 648.154L354.529 648.054C354.493 648.154 354.493 648.236 354.493 648.3ZM354.493 664.156C354.493 664.238 354.516 664.319 354.529 664.397L354.349 664.301L354.493 664.156ZM408.445 711.375H408.665L408.445 711.675L408.224 711.375H408.445ZM408.224 601.122L408.445 600.822L408.665 601.122H408.216H408.224ZM462.419 664.174L462.563 664.319L462.383 664.415C462.396 664.338 462.396 664.256 462.419 664.174Z" fill="#FF5903"/>
<path d="M258.593 293.327L266.685 285.147L258.593 276.967L264.01 266.768L254.241 261.474L256.538 250.503L245.802 248.204L245.042 237.137L234.054 237.91L230.268 227.444L219.712 231.334L213.031 222.217L203.742 229.184L194.454 222.217L187.759 231.334L177.216 227.444L173.444 237.896L162.456 237.124L161.683 248.204L150.946 250.503L153.244 261.474L143.465 266.782L148.892 276.98L140.799 285.161L148.892 293.341L143.496 303.539L153.275 308.847L150.978 319.818L161.714 322.118L162.474 333.184L173.462 332.411L177.234 342.864L187.791 338.974L194.454 348.104L203.742 341.119L213.035 348.104L219.725 338.983L230.268 342.859L234.045 332.407L245.028 333.179L245.788 322.113L256.525 319.814L254.227 308.843L264.006 303.535L258.593 293.327ZM257.694 277.226C257.694 277.144 257.671 277.062 257.658 276.98L257.837 277.08L257.694 277.226ZM149.791 277.207L149.647 277.062L149.827 276.962C149.791 277.062 149.791 277.144 149.791 277.207ZM149.791 293.064C149.791 293.146 149.813 293.227 149.827 293.305L149.647 293.209L149.791 293.064ZM203.742 340.283H203.962L203.742 340.583L203.522 340.283H203.742ZM203.522 230.03L203.742 229.73L203.962 230.03H203.513H203.522ZM257.716 293.082L257.86 293.227L257.68 293.323C257.694 293.246 257.694 293.164 257.716 293.082Z" fill="#F2F2F2"/>
<path d="M296.993 71.2791C298.931 70.9272 300.685 69.8988 301.949 68.3738C303.212 66.8487 303.904 64.924 303.904 62.936C303.904 60.948 303.212 59.0233 301.949 57.4982C300.685 55.9732 298.931 54.9448 296.993 54.5929C298.664 53.723 299.997 52.3125 300.78 50.5873C301.563 48.862 301.75 46.9216 301.311 45.0763C300.873 43.231 299.834 41.5875 298.361 40.4087C296.888 39.2299 295.065 38.5838 293.185 38.5738H293.01C294.22 37.2037 294.956 35.4739 295.107 33.645C295.258 31.8161 294.817 29.9871 293.849 28.4334C292.881 26.8796 291.44 25.6853 289.742 25.0302C288.043 24.3751 286.18 24.2947 284.433 24.8011C285.158 23.1386 285.336 21.2848 284.939 19.5128C284.542 17.7408 283.592 16.1444 282.228 14.9589C280.864 13.7734 279.159 13.0616 277.364 12.9283C275.57 12.7949 273.78 13.2472 272.259 14.2185C272.321 13.8176 272.355 13.4126 272.358 13.0068C272.358 11.2482 271.817 9.53299 270.809 8.09852C269.801 6.66405 268.377 5.58129 266.732 5.00011C265.088 4.41893 263.305 4.36807 261.631 4.85456C259.957 5.34106 258.474 6.34085 257.388 7.71556C257.211 5.75015 256.361 3.90841 254.984 2.50754C253.607 1.10667 251.789 0.234373 249.844 0.0408797C247.898 -0.152614 245.946 0.344811 244.325 1.44748C242.704 2.55015 241.514 4.18904 240.961 6.08188C240.408 4.18904 239.218 2.55015 237.597 1.44748C235.975 0.344811 234.024 -0.152614 232.078 0.0408797C230.133 0.234373 228.315 1.10667 226.938 2.50754C225.561 3.90841 224.711 5.75015 224.534 7.71556C223.448 6.34054 221.964 5.34062 220.29 4.85425C218.615 4.36787 216.832 4.41911 215.187 5.00086C213.543 5.58261 212.118 6.6661 211.111 8.10129C210.103 9.53649 209.563 11.2524 209.564 13.0114C209.567 13.4172 209.6 13.8222 209.663 14.223C208.142 13.2564 206.354 12.8075 204.562 12.9424C202.769 13.0772 201.067 13.7887 199.705 14.9723C198.343 16.1559 197.393 17.7493 196.994 19.5184C196.595 21.2874 196.769 23.139 197.489 24.8011C195.742 24.2984 193.881 24.3813 192.185 25.0374C190.489 25.6935 189.049 26.8873 188.083 28.4396C187.116 29.9919 186.674 31.8189 186.824 33.6463C186.973 35.4736 187.706 37.2027 188.912 38.5738H188.736C186.849 38.574 185.016 39.2158 183.534 40.396C182.051 41.5762 181.006 43.2259 180.566 45.0791C180.126 46.9323 180.317 48.881 181.109 50.6111C181.9 52.3412 183.246 53.7519 184.929 54.6156C182.99 54.9675 181.236 55.9959 179.973 57.5209C178.71 59.046 178.018 60.9707 178.018 62.9587C178.018 64.9467 178.71 66.8714 179.973 68.3964C181.236 69.9215 182.99 70.9499 184.929 71.3018C183.246 72.1655 181.9 73.5761 181.109 75.3062C180.317 77.0363 180.126 78.9851 180.566 80.8383C181.006 82.6915 182.051 84.3412 183.534 85.5214C185.016 86.7015 186.849 87.3434 188.736 87.3435H188.912C187.723 88.7165 187.005 90.4403 186.864 92.2584C186.724 94.0764 187.168 95.8917 188.132 97.4342C189.096 98.9766 190.527 100.164 192.213 100.819C193.899 101.474 195.75 101.563 197.489 101.071C196.77 102.733 196.598 104.583 196.997 106.351C197.397 108.119 198.348 109.711 199.71 110.893C201.072 112.075 202.774 112.785 204.565 112.918C206.357 113.052 208.144 112.602 209.663 111.635C209.6 112.036 209.567 112.441 209.564 112.847C209.563 114.606 210.103 116.322 211.111 117.757C212.118 119.192 213.543 120.276 215.187 120.858C216.832 121.439 218.615 121.491 220.29 121.004C221.964 120.518 223.448 119.518 224.534 118.143C224.706 120.11 225.553 121.955 226.928 123.359C228.303 124.764 230.12 125.64 232.067 125.837C234.013 126.034 235.967 125.539 237.59 124.437C239.214 123.336 240.406 121.697 240.961 119.804C241.514 121.696 242.703 123.335 244.324 124.438C245.945 125.541 247.896 126.039 249.842 125.846C251.787 125.653 253.605 124.781 254.982 123.381C256.36 121.981 257.21 120.14 257.388 118.175C258.474 119.55 259.958 120.55 261.632 121.036C263.307 121.522 265.09 121.471 266.734 120.889C268.379 120.308 269.803 119.224 270.811 117.789C271.818 116.354 272.359 114.638 272.358 112.879C272.355 112.473 272.321 112.068 272.259 111.667C273.78 112.635 275.569 113.084 277.362 112.95C279.155 112.815 280.858 112.103 282.221 110.918C283.583 109.734 284.534 108.139 284.932 106.369C285.33 104.599 285.155 102.747 284.433 101.085C286.177 101.583 288.034 101.497 289.727 100.841C291.419 100.185 292.856 98.9935 293.821 97.4446C294.787 95.8957 295.23 94.0729 295.084 92.2488C294.937 90.4247 294.21 88.6974 293.01 87.3254H293.185C295.073 87.3253 296.906 86.6834 298.388 85.5032C299.871 84.323 300.916 82.6734 301.356 80.8202C301.796 78.9669 301.604 77.0182 300.813 75.2881C300.022 73.558 298.676 72.1473 296.993 71.2836V71.2791Z" fill="#FFD916"/>
<path fill-rule="evenodd" clip-rule="evenodd" d="M0.701338 556.362C-3.37976 537.657 10.8668 519.967 30.0118 519.967H581.659C600.804 519.967 615.05 537.657 610.969 556.362L558.38 797.395C555.374 811.175 543.174 821 529.07 821H82.6009C68.4966 821 56.297 811.175 53.2904 797.395L0.701338 556.362ZM103.32 588.931C103.32 579.862 110.672 572.511 119.74 572.511C128.809 572.511 136.16 579.862 136.16 588.931V643.664C136.16 652.732 128.809 660.084 119.74 660.084C110.672 660.084 103.32 652.732 103.32 643.664V588.931ZM119.74 681.977C110.672 681.977 103.32 689.329 103.32 698.397V753.131C103.32 762.199 110.672 769.551 119.74 769.551C128.809 769.551 136.16 762.199 136.16 753.131V698.397C136.16 689.329 128.809 681.977 119.74 681.977ZM475.507 588.931C475.507 579.862 482.859 572.511 491.927 572.511C500.996 572.511 508.347 579.862 508.347 588.931V643.664C508.347 652.732 500.996 660.084 491.927 660.084C482.859 660.084 475.507 652.732 475.507 643.664V588.931ZM491.927 681.977C482.859 681.977 475.507 689.329 475.507 698.397V753.131C475.507 762.199 482.859 769.551 491.927 769.551C500.996 769.551 508.347 762.199 508.347 753.131V698.397C508.347 689.329 500.996 681.977 491.927 681.977ZM401.07 588.931C401.07 579.862 408.421 572.511 417.49 572.511C426.558 572.511 433.91 579.862 433.91 588.931V643.664C433.91 652.732 426.558 660.084 417.49 660.084C408.421 660.084 401.07 652.732 401.07 643.664V588.931ZM417.49 681.977C408.421 681.977 401.07 689.329 401.07 698.397V753.131C401.07 762.199 408.421 769.551 417.49 769.551C426.558 769.551 433.91 762.199 433.91 753.131V698.397C433.91 689.329 426.558 681.977 417.49 681.977ZM326.632 588.931C326.632 579.862 333.984 572.511 343.052 572.511C352.121 572.511 359.472 579.862 359.472 588.931V643.664C359.472 652.732 352.121 660.084 343.052 660.084C333.984 660.084 326.632 652.732 326.632 643.664V588.931ZM343.052 681.977C333.984 681.977 326.632 689.329 326.632 698.397V753.131C326.632 762.199 333.984 769.551 343.052 769.551C352.121 769.551 359.472 762.199 359.472 753.131V698.397C359.472 689.329 352.121 681.977 343.052 681.977ZM252.195 588.931C252.195 579.862 259.547 572.511 268.615 572.511C277.684 572.511 285.035 579.862 285.035 588.931V643.664C285.035 652.732 277.684 660.084 268.615 660.084C259.547 660.084 252.195 652.732 252.195 643.664V588.931ZM268.615 681.977C259.547 681.977 252.195 689.329 252.195 698.397V753.131C252.195 762.199 259.547 769.551 268.615 769.551C277.684 769.551 285.035 762.199 285.035 753.131V698.397C285.035 689.329 277.684 681.977 268.615 681.977ZM177.758 588.931C177.758 579.862 185.109 572.511 194.178 572.511C203.246 572.511 210.598 579.862 210.598 588.931V643.664C210.598 652.732 203.246 660.084 194.178 660.084C185.109 660.084 177.758 652.732 177.758 643.664V588.931ZM194.178 681.977C185.109 681.977 177.758 689.329 177.758 698.397V753.131C177.758 762.199 185.109 769.551 194.178 769.551C203.246 769.551 210.598 762.199 210.598 753.131V698.397C210.598 689.329 203.246 681.977 194.178 681.977Z" fill="#FFD916"/>
<rect x="191.608" y="374.376" width="54.7333" height="197.04" rx="27.3667" transform="rotate(30 191.608 374.376)" fill="#FF5903"/>
<rect width="54.7333" height="197.04" rx="27.3667" transform="matrix(-0.866025 0.5 0.5 0.866025 419.628 374.376)" fill="#FF5903"/>
</svg>
