<svg width="1920" height="1080" viewBox="0 0 1920 1080" fill="none" xmlns="http://www.w3.org/2000/svg">
<g clip-path="url(#clip0_1_665)">
<rect width="1920" height="1080" fill="#1D4DF5"/>
<rect x="30" y="30" width="916" height="1020" rx="40" fill="#3964FA"/>
<path d="M143 288C132.333 288 122.733 286.2 114.2 282.6C105.667 279 98.4 274 92.4 267.6C86.5333 261.2 82 253.6 78.8 244.8C75.6 236 74 226.4 74 216C74 205.6 75.6 196 78.8 187.2C82 178.4 86.5333 170.8 92.4 164.4C98.4 158 105.667 153 114.2 149.4C122.733 145.8 132.333 144 143 144C151.267 144 158.667 145.067 165.2 147.2C171.733 149.2 177.467 151.867 182.4 155.2C187.333 158.4 191.467 162.133 194.8 166.4C198.267 170.533 201.067 174.733 203.2 179C205.467 183.133 207.067 187.133 208 191C209.067 194.733 209.6 197.933 209.6 200.6H196.4C196.4 199.933 196.067 198.333 195.4 195.8C194.733 193.267 193.6 190.4 192 187.2C190.533 183.867 188.467 180.4 185.8 176.8C183.267 173.2 180 169.933 176 167C172.133 163.933 167.467 161.4 162 159.4C156.533 157.4 150.2 156.4 143 156.4C134.2 156.4 126.333 157.933 119.4 161C112.6 164.067 106.8 168.267 102 173.6C97.3333 178.933 93.7333 185.267 91.2 192.6C88.8 199.8 87.6 207.6 87.6 216C87.6 224.4 88.8 232.267 91.2 239.6C93.7333 246.8 97.3333 253.067 102 258.4C106.8 263.733 112.6 267.933 119.4 271C126.333 274.067 134.2 275.6 143 275.6C150.2 275.6 156.533 274.6 162 272.6C167.467 270.6 172.133 268.133 176 265.2C180 262.133 183.267 258.8 185.8 255.2C188.467 251.6 190.533 248.2 192 245C193.6 241.667 194.733 238.8 195.4 236.4C196.067 233.867 196.4 232.2 196.4 231.4H209.6C209.6 234.067 209.067 237.333 208 241.2C207.067 244.933 205.467 248.933 203.2 253.2C201.067 257.333 198.267 261.533 194.8 265.8C191.467 269.933 187.333 273.667 182.4 277C177.467 280.2 171.733 282.867 165.2 285C158.667 287 151.267 288 143 288ZM242.695 146H301.295C315.695 146 326.762 149.133 334.495 155.4C342.229 161.667 346.095 170.867 346.095 183C346.095 189 345.029 193.867 342.895 197.6C340.762 201.333 338.362 204.333 335.695 206.6C332.629 209.133 329.229 211.067 325.495 212.4V213C330.695 213.933 335.429 215.8 339.695 218.6C343.295 221 346.562 224.467 349.495 229C352.562 233.533 354.095 239.533 354.095 247C354.095 260.067 349.695 269.867 340.895 276.4C332.229 282.8 319.495 286 302.695 286H242.695V146ZM302.695 274C314.829 274 324.162 271.867 330.695 267.6C337.229 263.2 340.495 256.333 340.495 247C340.495 238.467 337.495 231.867 331.495 227.2C325.495 222.4 315.895 220 302.695 220H255.895V274H302.695ZM301.095 208C310.695 208 318.295 206.067 323.895 202.2C329.629 198.2 332.495 191.8 332.495 183C332.495 174.6 329.695 168.333 324.095 164.2C318.495 160.067 310.829 158 301.095 158H255.895V208H301.095ZM413.408 231.6C412.741 231.6 410.741 231 407.408 229.8C404.208 228.6 400.808 226.467 397.208 223.4C393.608 220.333 390.341 216.067 387.408 210.6C384.608 205.133 383.208 198.2 383.208 189.8C383.208 183.533 384.274 177.733 386.408 172.4C388.674 167.067 391.808 162.467 395.808 158.6C399.808 154.6 404.608 151.533 410.208 149.4C415.808 147.133 422.008 146 428.808 146H485.808V286H472.608V233.8H427.008L396.008 286H381.008L413.408 231.6ZM472.608 221.8V158H428.808C424.274 158 420.008 158.867 416.008 160.6C412.141 162.2 408.741 164.467 405.808 167.4C403.008 170.2 400.808 173.533 399.208 177.4C397.608 181.267 396.808 185.467 396.808 190C396.808 194.533 397.541 198.733 399.008 202.6C400.474 206.467 402.541 209.867 405.208 212.8C407.874 215.6 411.074 217.8 414.808 219.4C418.541 221 422.674 221.8 427.208 221.8H472.608ZM575.098 288C567.098 288 559.698 287.067 552.898 285.2C546.232 283.333 540.432 280.6 535.498 277C530.565 273.4 526.698 269 523.898 263.8C521.232 258.467 519.898 252.467 519.898 245.8V238.8H533.298V245.8C533.298 250.867 534.298 255.267 536.298 259C538.432 262.733 541.298 265.867 544.898 268.4C548.632 270.933 553.032 272.867 558.098 274.2C563.298 275.4 568.965 276 575.098 276C581.232 276 586.832 275.333 591.898 274C597.098 272.667 601.565 270.8 605.298 268.4C609.032 265.867 611.898 262.867 613.898 259.4C616.032 255.8 617.098 251.733 617.098 247.2C617.098 238.4 613.698 231.667 606.898 227C600.098 222.333 590.898 219.933 579.298 219.8H559.098V207.8H578.898C590.232 207.8 598.765 205.4 604.498 200.6C610.232 195.667 613.098 189.533 613.098 182.2C613.098 178.333 612.165 174.8 610.298 171.6C608.432 168.4 605.765 165.667 602.298 163.4C598.965 161 594.898 159.2 590.098 158C585.298 156.667 579.898 156 573.898 156C561.898 156 552.365 158.4 545.298 163.2C538.365 168 534.898 174.6 534.898 183V187.6H521.498V183C521.498 177.133 522.765 171.8 525.298 167C527.832 162.2 531.365 158.133 535.898 154.8C540.565 151.333 546.098 148.667 552.498 146.8C558.898 144.933 566.032 144 573.898 144C581.765 144 588.898 144.933 595.298 146.8C601.832 148.667 607.365 151.333 611.898 154.8C616.565 158.133 620.165 162.133 622.698 166.8C625.232 171.467 626.498 176.6 626.498 182.2C626.498 188.467 625.298 193.6 622.898 197.6C620.498 201.467 617.898 204.533 615.098 206.8C611.765 209.467 608.032 211.467 603.898 212.8V213.6C608.832 214.8 613.232 216.8 617.098 219.6C620.432 222 623.498 225.467 626.298 230C629.098 234.4 630.498 240.133 630.498 247.2C630.498 253.467 629.098 259.133 626.298 264.2C623.632 269.133 619.832 273.4 614.898 277C609.965 280.467 604.098 283.2 597.298 285.2C590.498 287.067 583.098 288 575.098 288ZM663.594 146H676.794V195.2H716.394C734.127 195.2 747.527 199.133 756.594 207C765.794 214.867 770.394 226.067 770.394 240.6C770.394 255.133 765.794 266.333 756.594 274.2C747.527 282.067 734.127 286 716.394 286H663.594V146ZM716.394 274C729.46 274 739.46 271.2 746.394 265.6C753.327 260 756.794 251.667 756.794 240.6C756.794 229.533 753.327 221.2 746.394 215.6C739.46 210 729.46 207.2 716.394 207.2H676.794V274H716.394ZM143 488C132.333 488 122.733 486.2 114.2 482.6C105.667 479 98.4 474 92.4 467.6C86.5333 461.2 82 453.6 78.8 444.8C75.6 436 74 426.4 74 416C74 405.6 75.6 396 78.8 387.2C82 378.4 86.5333 370.8 92.4 364.4C98.4 358 105.667 353 114.2 349.4C122.733 345.8 132.333 344 143 344C151.267 344 158.667 345.067 165.2 347.2C171.733 349.2 177.467 351.867 182.4 355.2C187.333 358.4 191.467 362.133 194.8 366.4C198.267 370.533 201.067 374.733 203.2 379C205.467 383.133 207.067 387.133 208 391C209.067 394.733 209.6 397.933 209.6 400.6H196.4C196.4 399.933 196.067 398.333 195.4 395.8C194.733 393.267 193.6 390.4 192 387.2C190.533 383.867 188.467 380.4 185.8 376.8C183.267 373.2 180 369.933 176 367C172.133 363.933 167.467 361.4 162 359.4C156.533 357.4 150.2 356.4 143 356.4C134.2 356.4 126.333 357.933 119.4 361C112.6 364.067 106.8 368.267 102 373.6C97.3333 378.933 93.7333 385.267 91.2 392.6C88.8 399.8 87.6 407.6 87.6 416C87.6 424.4 88.8 432.267 91.2 439.6C93.7333 446.8 97.3333 453.067 102 458.4C106.8 463.733 112.6 467.933 119.4 471C126.333 474.067 134.2 475.6 143 475.6C150.2 475.6 156.533 474.6 162 472.6C167.467 470.6 172.133 468.133 176 465.2C180 462.133 183.267 458.8 185.8 455.2C188.467 451.6 190.533 448.2 192 445C193.6 441.667 194.733 438.8 195.4 436.4C196.067 433.867 196.4 432.2 196.4 431.4H209.6C209.6 434.067 209.067 437.333 208 441.2C207.067 444.933 205.467 448.933 203.2 453.2C201.067 457.333 198.267 461.533 194.8 465.8C191.467 469.933 187.333 473.667 182.4 477C177.467 480.2 171.733 482.867 165.2 485C158.667 487 151.267 488 143 488ZM290.742 346H303.942V407.4H391.942V346H405.142V486H391.942V419.4H303.942V486H290.742V346ZM486.634 346H504.834L562.234 486H548.434L534.634 452.4H456.834L443.034 486H429.234L486.634 346ZM529.634 440.4L496.034 357.6H495.434L461.834 440.4H529.634ZM586.25 346H606.85L655.65 435H655.85H656.05L704.85 346H725.45V486H712.25V361H711.65L664.25 446.8H647.45L600.05 361H599.45V486H586.25V346ZM765.547 346H778.747V471.8H779.347L860.747 346H880.547V486H867.347V360.2H866.747L785.347 486H765.547V346Z" fill="#F2F2F2"/>
<path d="M76.592 586H73.968V563.6H76.592V573.52H92.208V563.6H94.832V586H92.208V575.824H76.592V586ZM108.477 570.32C109.842 570.32 111.037 570.587 112.061 571.12C113.106 571.632 113.906 572.336 114.461 573.232C115.015 574.128 115.293 575.141 115.293 576.272V586H112.925V583.472H112.861C112.434 584.176 111.709 584.827 110.685 585.424C109.661 586.021 108.349 586.32 106.749 586.32C104.871 586.32 103.399 585.904 102.333 585.072C101.287 584.24 100.765 583.163 100.765 581.84C100.765 580.624 101.223 579.611 102.141 578.8C103.079 577.968 104.445 577.424 106.237 577.168L112.861 576.208V576.08C112.861 574.992 112.445 574.128 111.613 573.488C110.802 572.827 109.693 572.496 108.285 572.496C107.303 572.496 106.375 572.688 105.501 573.072C104.626 573.456 103.847 573.979 103.165 574.64L101.693 573.104C102.503 572.251 103.495 571.579 104.669 571.088C105.842 570.576 107.111 570.32 108.477 570.32ZM107.005 584.208C108.199 584.208 109.234 583.973 110.109 583.504C111.005 583.035 111.687 582.416 112.157 581.648C112.626 580.88 112.861 580.08 112.861 579.248V578.16L106.685 579.056C105.469 579.227 104.573 579.536 103.997 579.984C103.442 580.411 103.165 580.987 103.165 581.712C103.165 582.501 103.495 583.12 104.157 583.568C104.839 583.995 105.789 584.208 107.005 584.208ZM123.407 586H121.007V570.64H136.847V586H134.415V572.88H123.407V586ZM144.838 586H142.694V570.64H145.094V582.48H145.222L156.422 570.64H158.566V586H156.166V574.16H156.038L144.838 586ZM188.508 586H164.444V570.64H166.844V583.76H175.26V570.64H177.692V583.76H186.108V570.64H188.508V586ZM196.526 586H194.382V570.64H196.782V582.48H196.91L208.11 570.64H210.253V586H207.854V574.16H207.726L196.526 586ZM223.172 586H220.74V572.88H213.988V570.64H229.924V572.88H223.172V586ZM241.066 586.32C239.295 586.32 237.717 585.979 236.33 585.296C234.943 584.592 233.866 583.632 233.098 582.416C232.351 581.2 231.978 579.835 231.978 578.32C231.978 576.805 232.362 575.44 233.13 574.224C233.898 573.008 234.954 572.059 236.298 571.376C237.663 570.672 239.199 570.32 240.906 570.32C242.591 570.32 244.106 570.661 245.45 571.344C246.794 572.005 247.839 572.933 248.586 574.128C249.333 575.301 249.706 576.624 249.706 578.096C249.706 578.629 249.674 579.013 249.61 579.248H234.506C234.655 580.699 235.317 581.872 236.49 582.768C237.685 583.643 239.21 584.08 241.066 584.08C242.346 584.08 243.519 583.867 244.586 583.44C245.674 583.013 246.591 582.437 247.338 581.712L248.746 583.312C247.85 584.229 246.741 584.965 245.418 585.52C244.095 586.053 242.645 586.32 241.066 586.32ZM247.178 577.264C247.05 575.877 246.399 574.736 245.226 573.84C244.074 572.944 242.634 572.496 240.906 572.496C239.114 572.496 237.631 572.944 236.458 573.84C235.285 574.715 234.634 575.856 234.506 577.264H247.178ZM265.25 586H262.85V570.64H265.25V577.072H276.258V570.64H278.69V586H276.258V579.216H265.25V586ZM291.258 570.32C292.623 570.32 293.818 570.587 294.842 571.12C295.887 571.632 296.687 572.336 297.242 573.232C297.796 574.128 298.074 575.141 298.074 576.272V586H295.706V583.472H295.642C295.215 584.176 294.49 584.827 293.466 585.424C292.442 586.021 291.13 586.32 289.53 586.32C287.652 586.32 286.18 585.904 285.114 585.072C284.068 584.24 283.546 583.163 283.546 581.84C283.546 580.624 284.004 579.611 284.922 578.8C285.86 577.968 287.226 577.424 289.018 577.168L295.642 576.208V576.08C295.642 574.992 295.226 574.128 294.394 573.488C293.583 572.827 292.474 572.496 291.066 572.496C290.084 572.496 289.156 572.688 288.282 573.072C287.407 573.456 286.628 573.979 285.946 574.64L284.474 573.104C285.284 572.251 286.276 571.579 287.45 571.088C288.623 570.576 289.892 570.32 291.258 570.32ZM289.786 584.208C290.98 584.208 292.015 583.973 292.89 583.504C293.786 583.035 294.468 582.416 294.938 581.648C295.407 580.88 295.642 580.08 295.642 579.248V578.16L289.466 579.056C288.25 579.227 287.354 579.536 286.778 579.984C286.223 580.411 285.946 580.987 285.946 581.712C285.946 582.501 286.276 583.12 286.938 583.568C287.62 583.995 288.57 584.208 289.786 584.208ZM306.188 586H303.788V570.64H305.804L313.132 578.48H313.26L320.588 570.64H322.54V586H320.14V574.288H320.012L313.164 581.648L306.316 574.288H306.188V586ZM331.613 584.432L327.389 590.288L325.853 589.392L329.405 583.12L331.613 584.432ZM352.472 586.32C350.702 586.32 349.123 585.979 347.736 585.296C346.35 584.592 345.272 583.632 344.504 582.416C343.758 581.2 343.384 579.835 343.384 578.32C343.384 576.805 343.768 575.44 344.536 574.224C345.304 573.008 346.36 572.059 347.704 571.376C349.07 570.672 350.606 570.32 352.312 570.32C353.998 570.32 355.512 570.661 356.856 571.344C358.2 572.005 359.246 572.933 359.992 574.128C360.739 575.301 361.112 576.624 361.112 578.096C361.112 578.629 361.08 579.013 361.016 579.248H345.912C346.062 580.699 346.723 581.872 347.896 582.768C349.091 583.643 350.616 584.08 352.472 584.08C353.752 584.08 354.926 583.867 355.992 583.44C357.08 583.013 357.998 582.437 358.744 581.712L360.152 583.312C359.256 584.229 358.147 584.965 356.824 585.52C355.502 586.053 354.051 586.32 352.472 586.32ZM358.584 577.264C358.456 575.877 357.806 574.736 356.632 573.84C355.48 572.944 354.04 572.496 352.312 572.496C350.52 572.496 349.038 572.944 347.864 573.84C346.691 574.715 346.04 575.856 345.912 577.264H358.584ZM373.6 586.32C371.872 586.32 370.304 585.968 368.896 585.264C367.509 584.56 366.41 583.6 365.6 582.384C364.81 581.168 364.416 579.813 364.416 578.32C364.416 576.827 364.81 575.472 365.6 574.256C366.41 573.04 367.509 572.08 368.896 571.376C370.304 570.672 371.872 570.32 373.6 570.32C375.221 570.32 376.672 570.629 377.952 571.248C379.232 571.845 380.224 572.549 380.928 573.36L379.36 574.864C378.741 574.203 377.941 573.659 376.96 573.232C376 572.784 374.88 572.56 373.6 572.56C372.32 572.56 371.157 572.805 370.112 573.296C369.088 573.765 368.277 574.437 367.68 575.312C367.104 576.187 366.816 577.189 366.816 578.32C366.816 579.451 367.104 580.453 367.68 581.328C368.277 582.203 369.088 582.885 370.112 583.376C371.157 583.845 372.32 584.08 373.6 584.08C374.944 584.08 376.096 583.835 377.056 583.344C378.037 582.853 378.826 582.288 379.424 581.648L381.024 583.184C380.277 584.059 379.264 584.805 377.984 585.424C376.725 586.021 375.264 586.32 373.6 586.32ZM387.41 570.64H399.922V586H397.49V572.88H389.746L389.65 574.896C389.544 577.819 389.266 580.123 388.818 581.808C388.37 583.472 387.773 584.645 387.026 585.328C386.28 585.989 385.362 586.32 384.274 586.32C383.656 586.32 383.026 586.213 382.386 586V583.696C382.877 583.888 383.41 583.984 383.986 583.984C384.69 583.984 385.266 583.739 385.714 583.248C386.162 582.736 386.514 581.819 386.77 580.496C387.048 579.173 387.218 577.307 387.282 574.896L387.41 570.64ZM407.932 586H405.788V570.64H408.188V582.48H408.316L419.516 570.64H421.66V586H419.26V574.16H419.132L407.932 586ZM448.835 570.64H451.363L443.651 588.176C442.947 589.755 442.125 590.907 441.187 591.632C440.269 592.357 439.181 592.72 437.923 592.72C437.027 592.72 436.12 592.581 435.203 592.304V590.064C435.501 590.171 435.885 590.267 436.355 590.352C436.824 590.437 437.251 590.48 437.635 590.48C438.467 590.48 439.171 590.256 439.747 589.808C440.323 589.381 440.824 588.731 441.251 587.856L442.083 586.16L433.891 570.64H436.547L443.203 583.472H443.331L448.835 570.64ZM462.944 586V570.64H471.36C473.344 570.64 474.827 571.024 475.808 571.792C476.789 572.539 477.28 573.488 477.28 574.64C477.28 575.515 477.003 576.229 476.448 576.784C475.915 577.339 475.371 577.701 474.816 577.872C475.584 578.043 476.288 578.437 476.928 579.056C477.589 579.653 477.92 580.507 477.92 581.616C477.92 582.896 477.397 583.952 476.352 584.784C475.307 585.595 473.749 586 471.68 586H462.944ZM471.392 576.944C472.544 576.944 473.387 576.752 473.92 576.368C474.475 575.984 474.752 575.472 474.752 574.832C474.752 574.192 474.475 573.691 473.92 573.328C473.387 572.944 472.544 572.752 471.392 572.752H465.344V576.944H471.392ZM471.712 583.888C472.949 583.888 473.867 583.664 474.464 583.216C475.083 582.768 475.392 582.171 475.392 581.424C475.392 580.677 475.083 580.091 474.464 579.664C473.867 579.216 472.949 578.992 471.712 578.992H465.344V583.888H471.712ZM489.539 570.32C490.904 570.32 492.099 570.587 493.123 571.12C494.168 571.632 494.968 572.336 495.523 573.232C496.078 574.128 496.355 575.141 496.355 576.272V586H493.987V583.472H493.923C493.496 584.176 492.771 584.827 491.747 585.424C490.723 586.021 489.411 586.32 487.811 586.32C485.934 586.32 484.462 585.904 483.395 585.072C482.35 584.24 481.827 583.163 481.827 581.84C481.827 580.624 482.286 579.611 483.203 578.8C484.142 577.968 485.507 577.424 487.299 577.168L493.923 576.208V576.08C493.923 574.992 493.507 574.128 492.675 573.488C491.864 572.827 490.755 572.496 489.347 572.496C488.366 572.496 487.438 572.688 486.563 573.072C485.688 573.456 484.91 573.979 484.227 574.64L482.755 573.104C483.566 572.251 484.558 571.579 485.731 571.088C486.904 570.576 488.174 570.32 489.539 570.32ZM488.067 584.208C489.262 584.208 490.296 583.973 491.171 583.504C492.067 583.035 492.75 582.416 493.219 581.648C493.688 580.88 493.923 580.08 493.923 579.248V578.16L487.747 579.056C486.531 579.227 485.635 579.536 485.059 579.984C484.504 580.411 484.227 580.987 484.227 581.712C484.227 582.501 484.558 583.12 485.219 583.568C485.902 583.995 486.851 584.208 488.067 584.208ZM510.037 586.32C508.309 586.32 506.741 585.968 505.333 585.264C503.946 584.56 502.848 583.6 502.037 582.384C501.248 581.168 500.853 579.813 500.853 578.32C500.853 576.827 501.248 575.472 502.037 574.256C502.848 573.04 503.946 572.08 505.333 571.376C506.741 570.672 508.309 570.32 510.037 570.32C511.658 570.32 513.109 570.629 514.389 571.248C515.669 571.845 516.661 572.549 517.365 573.36L515.797 574.864C515.178 574.203 514.378 573.659 513.397 573.232C512.437 572.784 511.317 572.56 510.037 572.56C508.757 572.56 507.594 572.805 506.549 573.296C505.525 573.765 504.714 574.437 504.117 575.312C503.541 576.187 503.253 577.189 503.253 578.32C503.253 579.451 503.541 580.453 504.117 581.328C504.714 582.203 505.525 582.885 506.549 583.376C507.594 583.845 508.757 584.08 510.037 584.08C511.381 584.08 512.533 583.835 513.493 583.344C514.474 582.853 515.264 582.288 515.861 581.648L517.461 583.184C516.714 584.059 515.701 584.805 514.421 585.424C513.162 586.021 511.701 586.32 510.037 586.32ZM530.382 586V570.64H538.798C540.782 570.64 542.264 571.024 543.246 571.792C544.227 572.539 544.718 573.488 544.718 574.64C544.718 575.515 544.44 576.229 543.885 576.784C543.352 577.339 542.808 577.701 542.254 577.872C543.022 578.043 543.726 578.437 544.366 579.056C545.027 579.653 545.358 580.507 545.358 581.616C545.358 582.896 544.835 583.952 543.79 584.784C542.744 585.595 541.187 586 539.118 586H530.382ZM538.83 576.944C539.982 576.944 540.824 576.752 541.358 576.368C541.912 575.984 542.19 575.472 542.19 574.832C542.19 574.192 541.912 573.691 541.358 573.328C540.824 572.944 539.982 572.752 538.83 572.752H532.782V576.944H538.83ZM539.15 583.888C540.387 583.888 541.304 583.664 541.902 583.216C542.52 582.768 542.83 582.171 542.83 581.424C542.83 580.677 542.52 580.091 541.902 579.664C541.304 579.216 540.387 578.992 539.15 578.992H532.782V583.888H539.15ZM558.225 586.32C556.497 586.32 554.929 585.968 553.521 585.264C552.134 584.56 551.035 583.6 550.225 582.384C549.435 581.168 549.041 579.813 549.041 578.32C549.041 576.827 549.435 575.472 550.225 574.256C551.035 573.04 552.134 572.08 553.521 571.376C554.929 570.672 556.497 570.32 558.225 570.32C559.974 570.32 561.542 570.672 562.929 571.376C564.337 572.08 565.435 573.04 566.225 574.256C567.035 575.472 567.441 576.827 567.441 578.32C567.441 579.813 567.035 581.168 566.225 582.384C565.435 583.6 564.337 584.56 562.929 585.264C561.542 585.968 559.974 586.32 558.225 586.32ZM558.225 584.08C559.505 584.08 560.657 583.835 561.681 583.344C562.705 582.853 563.515 582.171 564.113 581.296C564.71 580.421 565.009 579.429 565.009 578.32C565.009 577.211 564.71 576.219 564.113 575.344C563.515 574.469 562.705 573.787 561.681 573.296C560.657 572.805 559.505 572.56 558.225 572.56C556.945 572.56 555.793 572.805 554.769 573.296C553.745 573.787 552.934 574.469 552.337 575.344C551.739 576.219 551.441 577.211 551.441 578.32C551.441 579.429 551.739 580.421 552.337 581.296C552.934 582.171 553.745 582.853 554.769 583.344C555.793 583.835 556.945 584.08 558.225 584.08ZM576.692 586.32C575.135 586.32 573.748 586.053 572.532 585.52C571.337 584.965 570.431 584.357 569.812 583.696L571.284 582.096C571.817 582.608 572.553 583.088 573.492 583.536C574.431 583.984 575.497 584.208 576.692 584.208C578.164 584.208 579.263 583.963 579.988 583.472C580.735 582.981 581.108 582.363 581.108 581.616C581.108 580.891 580.735 580.293 579.988 579.824C579.263 579.333 578.164 579.088 576.692 579.088H574.228V577.04H576.596C577.94 577.04 578.943 576.827 579.604 576.4C580.265 575.952 580.596 575.387 580.596 574.704C580.596 574.043 580.255 573.499 579.572 573.072C578.911 572.645 577.919 572.432 576.596 572.432C575.572 572.432 574.623 572.613 573.748 572.976C572.873 573.317 572.148 573.691 571.572 574.096L570.164 572.528C570.74 571.995 571.593 571.493 572.724 571.024C573.876 570.555 575.167 570.32 576.596 570.32C577.94 570.32 579.092 570.523 580.052 570.928C581.033 571.312 581.769 571.824 582.26 572.464C582.751 573.083 582.996 573.765 582.996 574.512C582.996 575.451 582.687 576.219 582.068 576.816C581.449 577.413 580.777 577.819 580.052 578.032C580.521 578.096 581.023 578.288 581.556 578.608C582.111 578.928 582.58 579.355 582.964 579.888C583.348 580.421 583.54 581.051 583.54 581.776C583.54 582.587 583.273 583.344 582.74 584.048C582.228 584.731 581.449 585.285 580.404 585.712C579.38 586.117 578.143 586.32 576.692 586.32ZM590.844 586H588.444V570.64H590.844V577.072H601.852V570.64H604.284V586H601.852V579.216H590.844V586ZM612.276 586H610.132V570.64H612.532V582.48H612.66L623.86 570.64H626.003V586H623.604V574.16H623.476L612.276 586ZM634.282 586H631.882V570.64H634.282V578.864L643.658 570.64H647.05L640.042 576.656L647.69 586H644.746L638.314 578.128L634.282 581.616V586ZM653.098 570.64H665.61V586H663.178V572.88H655.434L655.338 574.896C655.231 577.819 654.954 580.123 654.506 581.808C654.058 583.472 653.46 584.645 652.714 585.328C651.967 585.989 651.05 586.32 649.962 586.32C649.343 586.32 648.714 586.213 648.074 586V583.696C648.564 583.888 649.098 583.984 649.674 583.984C650.378 583.984 650.954 583.739 651.402 583.248C651.85 582.736 652.202 581.819 652.458 580.496C652.735 579.173 652.906 577.307 652.97 574.896L653.098 570.64ZM673.619 586H671.475V570.64H673.875V582.48H674.003L685.203 570.64H687.347V586H684.947V574.16H684.819L673.619 586ZM701.85 586V570.64H710.266C712.25 570.64 713.733 571.024 714.714 571.792C715.696 572.539 716.186 573.488 716.186 574.64C716.186 575.515 715.909 576.229 715.354 576.784C714.821 577.339 714.277 577.701 713.722 577.872C714.49 578.043 715.194 578.437 715.834 579.056C716.496 579.653 716.826 580.507 716.826 581.616C716.826 582.896 716.304 583.952 715.258 584.784C714.213 585.595 712.656 586 710.586 586H701.85ZM710.298 576.944C711.45 576.944 712.293 576.752 712.826 576.368C713.381 575.984 713.658 575.472 713.658 574.832C713.658 574.192 713.381 573.691 712.826 573.328C712.293 572.944 711.45 572.752 710.298 572.752H704.25V576.944H710.298ZM710.618 583.888C711.856 583.888 712.773 583.664 713.37 583.216C713.989 582.768 714.298 582.171 714.298 581.424C714.298 580.677 713.989 580.091 713.37 579.664C712.773 579.216 711.856 578.992 710.618 578.992H704.25V583.888H710.618ZM729.693 586.32C727.965 586.32 726.397 585.968 724.989 585.264C723.603 584.56 722.504 583.6 721.693 582.384C720.904 581.168 720.509 579.813 720.509 578.32C720.509 576.827 720.904 575.472 721.693 574.256C722.504 573.04 723.603 572.08 724.989 571.376C726.397 570.672 727.965 570.32 729.693 570.32C731.443 570.32 733.011 570.672 734.397 571.376C735.805 572.08 736.904 573.04 737.693 574.256C738.504 575.472 738.909 576.827 738.909 578.32C738.909 579.813 738.504 581.168 737.693 582.384C736.904 583.6 735.805 584.56 734.397 585.264C733.011 585.968 731.443 586.32 729.693 586.32ZM729.693 584.08C730.973 584.08 732.125 583.835 733.149 583.344C734.173 582.853 734.984 582.171 735.581 581.296C736.179 580.421 736.477 579.429 736.477 578.32C736.477 577.211 736.179 576.219 735.581 575.344C734.984 574.469 734.173 573.787 733.149 573.296C732.125 572.805 730.973 572.56 729.693 572.56C728.413 572.56 727.261 572.805 726.237 573.296C725.213 573.787 724.403 574.469 723.805 575.344C723.208 576.219 722.909 577.211 722.909 578.32C722.909 579.429 723.208 580.421 723.805 581.296C724.403 582.171 725.213 582.853 726.237 583.344C727.261 583.835 728.413 584.08 729.693 584.08ZM745.938 586H743.538V570.64H759.378V586H756.946V572.88H745.938V586ZM765.225 592.72V570.64H767.625V573.328H767.753C768.308 572.624 769.129 571.952 770.217 571.312C771.327 570.651 772.788 570.32 774.601 570.32C776.201 570.32 777.652 570.672 778.953 571.376C780.255 572.059 781.279 573.008 782.025 574.224C782.772 575.44 783.145 576.805 783.145 578.32C783.145 579.835 782.772 581.2 782.025 582.416C781.279 583.632 780.255 584.592 778.953 585.296C777.652 585.979 776.201 586.32 774.601 586.32C772.788 586.32 771.327 586 770.217 585.36C769.129 584.699 768.308 584.016 767.753 583.312H767.625V592.72H765.225ZM774.281 584.08C775.476 584.08 776.564 583.835 777.545 583.344C778.527 582.832 779.305 582.139 779.881 581.264C780.457 580.389 780.745 579.408 780.745 578.32C780.745 577.232 780.457 576.251 779.881 575.376C779.305 574.501 778.527 573.819 777.545 573.328C776.564 572.816 775.476 572.56 774.281 572.56C773.023 572.56 771.881 572.816 770.857 573.328C769.855 573.819 769.065 574.501 768.489 575.376C767.913 576.251 767.625 577.232 767.625 578.32C767.625 579.408 767.913 580.389 768.489 581.264C769.065 582.139 769.855 582.832 770.857 583.344C771.881 583.835 773.023 584.08 774.281 584.08ZM795.787 586.32C794.059 586.32 792.491 585.968 791.083 585.264C789.696 584.56 788.598 583.6 787.787 582.384C786.998 581.168 786.603 579.813 786.603 578.32C786.603 576.827 786.998 575.472 787.787 574.256C788.598 573.04 789.696 572.08 791.083 571.376C792.491 570.672 794.059 570.32 795.787 570.32C797.536 570.32 799.104 570.672 800.491 571.376C801.899 572.08 802.998 573.04 803.787 574.256C804.598 575.472 805.003 576.827 805.003 578.32C805.003 579.813 804.598 581.168 803.787 582.384C802.998 583.6 801.899 584.56 800.491 585.264C799.104 585.968 797.536 586.32 795.787 586.32ZM795.787 584.08C797.067 584.08 798.219 583.835 799.243 583.344C800.267 582.853 801.078 582.171 801.675 581.296C802.272 580.421 802.571 579.429 802.571 578.32C802.571 577.211 802.272 576.219 801.675 575.344C801.078 574.469 800.267 573.787 799.243 573.296C798.219 572.805 797.067 572.56 795.787 572.56C794.507 572.56 793.355 572.805 792.331 573.296C791.307 573.787 790.496 574.469 789.899 575.344C789.302 576.219 789.003 577.211 789.003 578.32C789.003 579.429 789.302 580.421 789.899 581.296C790.496 582.171 791.307 582.853 792.331 583.344C793.355 583.835 794.507 584.08 795.787 584.08ZM817.6 586.32C815.872 586.32 814.304 585.968 812.896 585.264C811.509 584.56 810.41 583.6 809.6 582.384C808.81 581.168 808.416 579.813 808.416 578.32C808.416 576.827 808.81 575.472 809.6 574.256C810.41 573.04 811.509 572.08 812.896 571.376C814.304 570.672 815.872 570.32 817.6 570.32C819.221 570.32 820.672 570.629 821.952 571.248C823.232 571.845 824.224 572.549 824.928 573.36L823.36 574.864C822.741 574.203 821.941 573.659 820.96 573.232C820 572.784 818.88 572.56 817.6 572.56C816.32 572.56 815.157 572.805 814.112 573.296C813.088 573.765 812.277 574.437 811.68 575.312C811.104 576.187 810.816 577.189 810.816 578.32C810.816 579.451 811.104 580.453 811.68 581.328C812.277 582.203 813.088 582.885 814.112 583.376C815.157 583.845 816.32 584.08 817.6 584.08C818.944 584.08 820.096 583.835 821.056 583.344C822.037 582.853 822.826 582.288 823.424 581.648L825.024 583.184C824.277 584.059 823.264 584.805 821.984 585.424C820.725 586.021 819.264 586.32 817.6 586.32ZM829.319 586V570.64H831.719V575.824H836.455C838.588 575.824 840.22 576.293 841.351 577.232C842.503 578.149 843.079 579.376 843.079 580.912C843.079 582.448 842.503 583.685 841.351 584.624C840.22 585.541 838.588 586 836.455 586H829.319ZM849.191 586H846.759V570.64H849.191V586ZM836.455 583.888C837.927 583.888 838.994 583.611 839.655 583.056C840.316 582.501 840.647 581.787 840.647 580.912C840.647 580.037 840.316 579.323 839.655 578.768C838.994 578.213 837.927 577.936 836.455 577.936H831.719V583.888H836.455Z" fill="#F2F2F2"/>
<path opacity="0.4" d="M95.72 673H76.968V650.6H95.4V652.936H79.592V660.2H92.2V662.504H79.592V670.664H95.72V673ZM110.067 664.68H98.6432V662.6H110.067V664.68ZM115.132 673V657.64H117.532V660.008H117.66C118.79 658.216 120.593 657.32 123.068 657.32C124.753 657.32 126.012 657.672 126.844 658.376C127.697 659.08 128.358 659.859 128.828 660.712H128.956C129.404 659.944 130.129 659.187 131.132 658.44C132.134 657.693 133.5 657.32 135.228 657.32C137.254 657.32 138.886 657.939 140.124 659.176C141.361 660.413 141.98 662.099 141.98 664.232V673H139.548V664.424C139.548 662.888 139.132 661.693 138.3 660.84C137.468 659.987 136.316 659.56 134.844 659.56C133.308 659.56 132.07 660.04 131.132 661C130.214 661.939 129.756 663.197 129.756 664.776V673H127.356V664.424C127.356 662.888 126.929 661.693 126.076 660.84C125.244 659.987 124.092 659.56 122.62 659.56C121.084 659.56 119.846 660.04 118.908 661C117.99 661.939 117.532 663.229 117.532 664.872V673H115.132ZM154.414 657.32C155.779 657.32 156.974 657.587 157.998 658.12C159.043 658.632 159.843 659.336 160.398 660.232C160.953 661.128 161.23 662.141 161.23 663.272V673H158.862V670.472H158.798C158.371 671.176 157.646 671.827 156.622 672.424C155.598 673.021 154.286 673.32 152.686 673.32C150.809 673.32 149.337 672.904 148.27 672.072C147.225 671.24 146.702 670.163 146.702 668.84C146.702 667.624 147.161 666.611 148.078 665.8C149.017 664.968 150.382 664.424 152.174 664.168L158.798 663.208V663.08C158.798 661.992 158.382 661.128 157.55 660.488C156.739 659.827 155.63 659.496 154.222 659.496C153.241 659.496 152.313 659.688 151.438 660.072C150.563 660.456 149.785 660.979 149.102 661.64L147.63 660.104C148.441 659.251 149.433 658.579 150.606 658.088C151.779 657.576 153.049 657.32 154.414 657.32ZM152.942 671.208C154.137 671.208 155.171 670.973 156.046 670.504C156.942 670.035 157.625 669.416 158.094 668.648C158.563 667.88 158.798 667.08 158.798 666.248V665.16L152.622 666.056C151.406 666.227 150.51 666.536 149.934 666.984C149.379 667.411 149.102 667.987 149.102 668.712C149.102 669.501 149.433 670.12 150.094 670.568C150.777 670.995 151.726 671.208 152.942 671.208ZM169.504 673H167.104V657.64H169.504V673ZM168.288 654.344C167.861 654.344 167.499 654.195 167.2 653.896C166.923 653.597 166.784 653.245 166.784 652.84C166.784 652.435 166.923 652.093 167.2 651.816C167.499 651.517 167.861 651.368 168.288 651.368C168.715 651.368 169.077 651.517 169.376 651.816C169.696 652.093 169.856 652.435 169.856 652.84C169.856 653.245 169.696 653.597 169.376 653.896C169.077 654.195 168.715 654.344 168.288 654.344ZM178.098 673H175.698V650.6H178.098V673Z" fill="#F2F2F2"/>
<path opacity="0.4" d="M79.528 748.5H76.968V726.1H79.592V744.66H79.72L96.104 726.1H98.696V748.5H96.04V729.94H95.944L79.528 748.5ZM107.969 748.5H105.569V733.14H107.585L114.913 740.98H115.041L122.369 733.14H124.321V748.5H121.921V736.788H121.793L114.945 744.148L108.097 736.788H107.969V748.5ZM143.954 733.14V748.5H141.522V742.996H136.018H135.986L131.986 748.5H129.074L133.298 742.676C132.061 742.335 131.122 741.769 130.482 740.98C129.863 740.169 129.554 739.199 129.554 738.068C129.554 736.575 130.109 735.38 131.218 734.484C132.327 733.588 133.927 733.14 136.018 733.14H143.954ZM141.522 740.884V735.252H136.018C134.717 735.252 133.714 735.497 133.01 735.988C132.306 736.479 131.954 737.172 131.954 738.068C131.954 738.964 132.306 739.657 133.01 740.148C133.714 740.639 134.717 740.884 136.018 740.884H141.522Z" fill="#F2F2F2"/>
<path opacity="0.4" d="M85.192 823H82.568V802.936H73.896V800.6H93.896V802.936H85.192V823ZM103.191 823.32C101.42 823.32 99.8417 822.979 98.455 822.296C97.0683 821.592 95.991 820.632 95.223 819.416C94.4763 818.2 94.103 816.835 94.103 815.32C94.103 813.805 94.487 812.44 95.255 811.224C96.023 810.008 97.079 809.059 98.423 808.376C99.7883 807.672 101.324 807.32 103.031 807.32C104.716 807.32 106.231 807.661 107.575 808.344C108.919 809.005 109.964 809.933 110.711 811.128C111.458 812.301 111.831 813.624 111.831 815.096C111.831 815.629 111.799 816.013 111.735 816.248H96.631C96.7803 817.699 97.4417 818.872 98.615 819.768C99.8097 820.643 101.335 821.08 103.191 821.08C104.471 821.08 105.644 820.867 106.711 820.44C107.799 820.013 108.716 819.437 109.463 818.712L110.871 820.312C109.975 821.229 108.866 821.965 107.543 822.52C106.22 823.053 104.77 823.32 103.191 823.32ZM109.303 814.264C109.175 812.877 108.524 811.736 107.351 810.84C106.199 809.944 104.759 809.496 103.031 809.496C101.239 809.496 99.7563 809.944 98.583 810.84C97.4097 811.715 96.759 812.856 96.631 814.264H109.303ZM118.75 823H116.35V807.64H118.75V815.864L128.126 807.64H131.518L124.51 813.656L132.158 823H129.214L122.782 815.128L118.75 818.616V823ZM142.631 823.32C140.903 823.32 139.335 822.968 137.927 822.264C136.54 821.56 135.441 820.6 134.631 819.384C133.841 818.168 133.447 816.813 133.447 815.32C133.447 813.827 133.841 812.472 134.631 811.256C135.441 810.04 136.54 809.08 137.927 808.376C139.335 807.672 140.903 807.32 142.631 807.32C144.252 807.32 145.703 807.629 146.983 808.248C148.263 808.845 149.255 809.549 149.959 810.36L148.391 811.864C147.772 811.203 146.972 810.659 145.991 810.232C145.031 809.784 143.911 809.56 142.631 809.56C141.351 809.56 140.188 809.805 139.143 810.296C138.119 810.765 137.308 811.437 136.711 812.312C136.135 813.187 135.847 814.189 135.847 815.32C135.847 816.451 136.135 817.453 136.711 818.328C137.308 819.203 138.119 819.885 139.143 820.376C140.188 820.845 141.351 821.08 142.631 821.08C143.975 821.08 145.127 820.835 146.087 820.344C147.068 819.853 147.857 819.288 148.455 818.648L150.055 820.184C149.308 821.059 148.295 821.805 147.015 822.424C145.756 823.021 144.295 823.32 142.631 823.32ZM160.922 823H158.49V809.88H151.738V807.64H167.674V809.88H160.922V823ZM187.193 823.32C185.465 823.32 183.897 822.968 182.489 822.264C181.103 821.56 180.004 820.6 179.193 819.384C178.404 818.168 178.009 816.813 178.009 815.32C178.009 813.827 178.404 812.472 179.193 811.256C180.004 810.04 181.103 809.08 182.489 808.376C183.897 807.672 185.465 807.32 187.193 807.32C188.943 807.32 190.511 807.672 191.897 808.376C193.305 809.08 194.404 810.04 195.193 811.256C196.004 812.472 196.409 813.827 196.409 815.32C196.409 816.813 196.004 818.168 195.193 819.384C194.404 820.6 193.305 821.56 191.897 822.264C190.511 822.968 188.943 823.32 187.193 823.32ZM187.193 821.08C188.473 821.08 189.625 820.835 190.649 820.344C191.673 819.853 192.484 819.171 193.081 818.296C193.679 817.421 193.977 816.429 193.977 815.32C193.977 814.211 193.679 813.219 193.081 812.344C192.484 811.469 191.673 810.787 190.649 810.296C189.625 809.805 188.473 809.56 187.193 809.56C185.913 809.56 184.761 809.805 183.737 810.296C182.713 810.787 181.903 811.469 181.305 812.344C180.708 813.219 180.409 814.211 180.409 815.32C180.409 816.429 180.708 817.421 181.305 818.296C181.903 819.171 182.713 819.853 183.737 820.344C184.761 820.835 185.913 821.08 187.193 821.08ZM209.102 823.32C207.352 823.32 205.795 822.936 204.43 822.168C203.086 821.379 202.03 820.248 201.262 818.776C200.515 817.283 200.142 815.523 200.142 813.496C200.142 809.72 200.984 806.861 202.67 804.92C204.355 802.957 206.606 801.752 209.422 801.304C210.872 801.069 212.131 800.781 213.198 800.44C214.286 800.099 215.064 799.8 215.534 799.544L216.686 801.528C215.662 802.168 213.326 802.829 209.678 803.512C205.496 804.323 203.182 806.84 202.734 811.064H202.83C203.406 810.253 204.238 809.539 205.326 808.92C206.414 808.28 207.704 807.96 209.198 807.96C210.798 807.96 212.248 808.301 213.55 808.984C214.872 809.667 215.907 810.595 216.654 811.768C217.4 812.941 217.774 814.232 217.774 815.64C217.774 817.048 217.39 818.339 216.622 819.512C215.875 820.685 214.84 821.613 213.518 822.296C212.195 822.979 210.723 823.32 209.102 823.32ZM209.198 821.08C210.392 821.08 211.448 820.845 212.366 820.376C213.304 819.907 214.03 819.267 214.542 818.456C215.075 817.624 215.342 816.685 215.342 815.64C215.342 814.595 215.075 813.667 214.542 812.856C214.03 812.024 213.304 811.373 212.366 810.904C211.448 810.435 210.392 810.2 209.198 810.2C207.96 810.2 206.862 810.435 205.902 810.904C204.942 811.373 204.195 812.024 203.662 812.856C203.128 813.667 202.862 814.595 202.862 815.64C202.862 816.685 203.128 817.624 203.662 818.456C204.195 819.267 204.942 819.907 205.902 820.376C206.862 820.845 207.96 821.08 209.198 821.08ZM222.413 829.72V807.64H224.813V810.328H224.941C225.495 809.624 226.317 808.952 227.405 808.312C228.514 807.651 229.975 807.32 231.789 807.32C233.389 807.32 234.839 807.672 236.141 808.376C237.442 809.059 238.466 810.008 239.213 811.224C239.959 812.44 240.333 813.805 240.333 815.32C240.333 816.835 239.959 818.2 239.213 819.416C238.466 820.632 237.442 821.592 236.141 822.296C234.839 822.979 233.389 823.32 231.789 823.32C229.975 823.32 228.514 823 227.405 822.36C226.317 821.699 225.495 821.016 224.941 820.312H224.813V829.72H222.413ZM231.469 821.08C232.663 821.08 233.751 820.835 234.733 820.344C235.714 819.832 236.493 819.139 237.069 818.264C237.645 817.389 237.933 816.408 237.933 815.32C237.933 814.232 237.645 813.251 237.069 812.376C236.493 811.501 235.714 810.819 234.733 810.328C233.751 809.816 232.663 809.56 231.469 809.56C230.21 809.56 229.069 809.816 228.045 810.328C227.042 810.819 226.253 811.501 225.677 812.376C225.101 813.251 224.813 814.232 224.813 815.32C224.813 816.408 225.101 817.389 225.677 818.264C226.253 819.139 227.042 819.832 228.045 820.344C229.069 820.835 230.21 821.08 231.469 821.08ZM251.727 807.32C253.092 807.32 254.287 807.587 255.311 808.12C256.356 808.632 257.156 809.336 257.711 810.232C258.265 811.128 258.543 812.141 258.543 813.272V823H256.175V820.472H256.111C255.684 821.176 254.959 821.827 253.935 822.424C252.911 823.021 251.599 823.32 249.999 823.32C248.121 823.32 246.649 822.904 245.583 822.072C244.537 821.24 244.015 820.163 244.015 818.84C244.015 817.624 244.473 816.611 245.391 815.8C246.329 814.968 247.695 814.424 249.487 814.168L256.111 813.208V813.08C256.111 811.992 255.695 811.128 254.863 810.488C254.052 809.827 252.943 809.496 251.535 809.496C250.553 809.496 249.625 809.688 248.751 810.072C247.876 810.456 247.097 810.979 246.415 811.64L244.943 810.104C245.753 809.251 246.745 808.579 247.919 808.088C249.092 807.576 250.361 807.32 251.727 807.32ZM250.255 821.208C251.449 821.208 252.484 820.973 253.359 820.504C254.255 820.035 254.937 819.416 255.407 818.648C255.876 817.88 256.111 817.08 256.111 816.248V815.16L249.935 816.056C248.719 816.227 247.823 816.536 247.247 816.984C246.692 817.411 246.415 817.987 246.415 818.712C246.415 819.501 246.745 820.12 247.407 820.568C248.089 820.995 249.039 821.208 250.255 821.208ZM291.361 827H288.961V823H264.257V807.64H266.657V820.76H275.073V807.64H277.505V820.76H285.921V807.64H288.321V820.76H291.361V827ZM303.066 823.32C301.295 823.32 299.717 822.979 298.33 822.296C296.943 821.592 295.866 820.632 295.098 819.416C294.351 818.2 293.978 816.835 293.978 815.32C293.978 813.805 294.362 812.44 295.13 811.224C295.898 810.008 296.954 809.059 298.298 808.376C299.663 807.672 301.199 807.32 302.906 807.32C304.591 807.32 306.106 807.661 307.45 808.344C308.794 809.005 309.839 809.933 310.586 811.128C311.333 812.301 311.706 813.624 311.706 815.096C311.706 815.629 311.674 816.013 311.61 816.248H296.506C296.655 817.699 297.317 818.872 298.49 819.768C299.685 820.643 301.21 821.08 303.066 821.08C304.346 821.08 305.519 820.867 306.586 820.44C307.674 820.013 308.591 819.437 309.338 818.712L310.746 820.312C309.85 821.229 308.741 821.965 307.418 822.52C306.095 823.053 304.645 823.32 303.066 823.32ZM309.178 814.264C309.05 812.877 308.399 811.736 307.226 810.84C306.074 809.944 304.634 809.496 302.906 809.496C301.114 809.496 299.631 809.944 298.458 810.84C297.285 811.715 296.634 812.856 296.506 814.264H309.178ZM318.625 823H316.225V807.64H318.625V814.072H329.633V807.64H332.065V823H329.633V816.216H318.625V823ZM340.057 823H337.913V807.64H340.313V819.48H340.441L351.641 807.64H353.785V823H351.385V811.16H351.257L340.057 823ZM373.423 807.64V823H370.991V817.496H365.487H365.455L361.455 823H358.543L362.767 817.176C361.529 816.835 360.591 816.269 359.951 815.48C359.332 814.669 359.023 813.699 359.023 812.568C359.023 811.075 359.577 809.88 360.687 808.984C361.796 808.088 363.396 807.64 365.487 807.64H373.423ZM370.991 815.384V809.752H365.487C364.185 809.752 363.183 809.997 362.479 810.488C361.775 810.979 361.423 811.672 361.423 812.568C361.423 813.464 361.775 814.157 362.479 814.648C363.183 815.139 364.185 815.384 365.487 815.384H370.991Z" fill="#F2F2F2"/>
<path d="M73 691H799" stroke="#F2F2F2" stroke-width="3" stroke-linecap="round"/>
<path d="M73 766H799" stroke="#F2F2F2" stroke-width="3" stroke-linecap="round"/>
<path d="M73 840H799" stroke="#F2F2F2" stroke-width="3" stroke-linecap="round"/>
<path d="M64.0691 101.387L69.5547 84.4538L59.3735 87.6363V78.011L50 76.1171L56.8259 68.3338L52.4854 58.4664L62.8264 60.075L69.5547 50L75.0403 57.6535L80.8188 50L87.4317 57.8611L95.4737 51.4096L99.6367 58.6653L107.705 58.06L106.88 65.2292L113.759 70.3488L106.463 74.5864L107.723 83.6322L97.5685 81.4702L93.6984 87.1347L86.402 81.8767L81.8751 87.6363L78.1292 83.2517L64.0691 101.387Z" fill="white"/>
<path d="M67.1484 66.855H72.1902V68.3857H68.7728V74.2145H67.1484V66.855Z" fill="#1D4DF5"/>
<path d="M76.5328 74.3704C75.7493 74.3701 74.9835 74.1439 74.3318 73.7202C73.6801 73.2965 73.1717 72.6943 72.8708 71.9895C72.5698 71.2847 72.4898 70.5089 72.6407 69.7599C72.7917 69.0109 73.1669 68.3221 73.719 67.7806C74.0885 67.4205 74.5272 67.135 75.01 66.9401C75.4928 66.7453 76.0102 66.645 76.5328 66.645C77.0554 66.645 77.5728 66.7453 78.0556 66.9401C78.5384 67.135 78.9771 67.4205 79.3466 67.7806C79.7161 68.1406 80.0093 68.568 80.2092 69.0383C80.4092 69.5087 80.5121 70.0129 80.5121 70.522C80.5121 71.0311 80.4092 71.5353 80.2092 72.0056C80.0093 72.476 79.7161 72.9034 79.3466 73.2634C78.9799 73.6251 78.5411 73.91 78.0572 74.1003C77.5733 74.2907 77.0545 74.3826 76.5328 74.3704ZM74.1895 70.522C74.1895 71.1275 74.4363 71.7082 74.8758 72.1364C75.3153 72.5645 75.9113 72.8051 76.5328 72.8051C77.1543 72.8051 77.7504 72.5645 78.1898 72.1364C78.6293 71.7082 78.8762 71.1275 78.8762 70.522C78.8762 69.9165 78.6293 69.3358 78.1898 68.9076C77.7504 68.4794 77.1543 68.2389 76.5328 68.2389C75.9113 68.2389 75.3153 68.4794 74.8758 68.9076C74.4363 69.3358 74.1895 69.9165 74.1895 70.522Z" fill="#1D4DF5"/>
<path d="M86.3919 70.2104V66.855H88.0163V74.2145H86.3919V71.7065C85.7837 71.9238 85.1402 72.0322 84.4924 72.0265C83.6902 72.0733 82.8981 71.8335 82.2644 71.352C81.9922 71.1 81.7803 70.7927 81.6438 70.4519C81.5072 70.1111 81.4494 69.7452 81.4744 69.3802V66.855H83.0899V69.2332C83.0899 70.098 83.6314 70.5477 84.7054 70.5477C85.2859 70.5539 85.8609 70.4389 86.3919 70.2104Z" fill="#1D4DF5"/>
<path d="M91.5164 71.4995L95.3599 66.8555H96.6115V74.2149H95.0137V69.5277L91.1703 74.2149H89.9453V66.8555H91.5431L91.5164 71.4995Z" fill="#1D4DF5"/>
<rect x="1204" y="50" width="666" height="51" rx="25.5" fill="white"/>
<path d="M1252.4 82.2C1251.32 82.2 1250.35 82.0267 1249.48 81.68C1248.61 81.32 1247.88 80.82 1247.28 80.18C1246.68 79.54 1246.21 78.78 1245.88 77.9C1245.56 77.02 1245.4 76.0533 1245.4 75C1245.4 73.9467 1245.56 72.98 1245.88 72.1C1246.21 71.22 1246.68 70.46 1247.28 69.82C1247.88 69.18 1248.61 68.6867 1249.48 68.34C1250.35 67.98 1251.32 67.8 1252.4 67.8C1253.48 67.8 1254.45 67.98 1255.32 68.34C1256.19 68.6867 1256.92 69.18 1257.52 69.82C1258.12 70.46 1258.58 71.22 1258.9 72.1C1259.23 72.98 1259.4 73.9467 1259.4 75C1259.4 76.0533 1259.23 77.02 1258.9 77.9C1258.58 78.78 1258.12 79.54 1257.52 80.18C1256.92 80.82 1256.19 81.32 1255.32 81.68C1254.45 82.0267 1253.48 82.2 1252.4 82.2ZM1252.4 80.48C1253.2 80.48 1253.91 80.34 1254.54 80.06C1255.17 79.78 1255.69 79.3933 1256.12 78.9C1256.56 78.4067 1256.89 77.8267 1257.1 77.16C1257.33 76.4933 1257.44 75.7733 1257.44 75C1257.44 74.2267 1257.33 73.5067 1257.1 72.84C1256.89 72.1733 1256.56 71.5933 1256.12 71.1C1255.69 70.6067 1255.17 70.22 1254.54 69.94C1253.91 69.66 1253.2 69.52 1252.4 69.52C1251.6 69.52 1250.89 69.66 1250.26 69.94C1249.63 70.22 1249.1 70.6067 1248.66 71.1C1248.23 71.5933 1247.91 72.1733 1247.68 72.84C1247.47 73.5067 1247.36 74.2267 1247.36 75C1247.36 75.7733 1247.47 76.4933 1247.68 77.16C1247.91 77.8267 1248.23 78.4067 1248.66 78.9C1249.1 79.3933 1249.63 79.78 1250.26 80.06C1250.89 80.34 1251.6 80.48 1252.4 80.48ZM1267.4 68H1269.28V73.88H1277.46V68H1279.34V82H1277.46V75.56H1269.28V82H1267.4V68ZM1287.17 68H1289.67L1295.39 82H1293.41L1292.15 78.92H1284.69L1283.43 82H1281.45L1287.17 68ZM1291.45 77.24L1288.47 69.7H1288.37L1285.37 77.24H1291.45ZM1303.47 82.2C1302.39 82.2 1301.42 82.0267 1300.55 81.68C1299.69 81.32 1298.95 80.82 1298.35 80.18C1297.75 79.54 1297.29 78.78 1296.95 77.9C1296.63 77.02 1296.47 76.0533 1296.47 75C1296.47 73.9467 1296.63 72.98 1296.95 72.1C1297.29 71.22 1297.75 70.46 1298.35 69.82C1298.95 69.18 1299.69 68.6867 1300.55 68.34C1301.42 67.98 1302.39 67.8 1303.47 67.8C1304.7 67.8 1305.74 68.0067 1306.59 68.42C1307.46 68.8333 1308.16 69.3333 1308.69 69.92C1309.24 70.5067 1309.63 71.1333 1309.87 71.8C1310.13 72.4533 1310.25 73.02 1310.25 73.5H1308.31C1308.17 72.7667 1307.9 72.1067 1307.51 71.52C1307.34 71.2667 1307.13 71.02 1306.89 70.78C1306.65 70.54 1306.37 70.3267 1306.03 70.14C1305.71 69.9533 1305.34 69.8067 1304.91 69.7C1304.49 69.58 1304.01 69.52 1303.47 69.52C1302.67 69.52 1301.96 69.66 1301.33 69.94C1300.71 70.22 1300.17 70.6067 1299.73 71.1C1299.31 71.5933 1298.98 72.1733 1298.75 72.84C1298.54 73.5067 1298.43 74.2267 1298.43 75C1298.43 75.7733 1298.54 76.4933 1298.75 77.16C1298.98 77.8267 1299.31 78.4067 1299.73 78.9C1300.17 79.3933 1300.71 79.78 1301.33 80.06C1301.96 80.34 1302.67 80.48 1303.47 80.48C1304.01 80.48 1304.49 80.4267 1304.91 80.32C1305.34 80.2 1305.71 80.0467 1306.03 79.86C1306.37 79.6733 1306.65 79.4667 1306.89 79.24C1307.13 79 1307.34 78.7533 1307.51 78.5C1307.9 77.9133 1308.17 77.2467 1308.31 76.5H1310.25C1310.25 76.98 1310.13 77.5533 1309.87 78.22C1309.63 78.8733 1309.24 79.4933 1308.69 80.08C1308.16 80.6667 1307.46 81.1667 1306.59 81.58C1305.74 81.9933 1304.7 82.2 1303.47 82.2Z" fill="#1D4DF5"/>
<path d="M1350.4 82.2C1349.32 82.2 1348.35 82.0267 1347.48 81.68C1346.61 81.32 1345.88 80.82 1345.28 80.18C1344.68 79.54 1344.21 78.78 1343.88 77.9C1343.56 77.02 1343.4 76.0533 1343.4 75C1343.4 73.9467 1343.56 72.98 1343.88 72.1C1344.21 71.22 1344.68 70.46 1345.28 69.82C1345.88 69.18 1346.61 68.6867 1347.48 68.34C1348.35 67.98 1349.32 67.8 1350.4 67.8C1351.63 67.8 1352.67 68.0067 1353.52 68.42C1354.39 68.8333 1355.09 69.3333 1355.62 69.92C1356.17 70.5067 1356.56 71.1333 1356.8 71.8C1357.05 72.4533 1357.18 73.02 1357.18 73.5H1355.24C1355.09 72.7667 1354.83 72.1067 1354.44 71.52C1354.27 71.2667 1354.06 71.02 1353.82 70.78C1353.58 70.54 1353.29 70.3267 1352.96 70.14C1352.64 69.9533 1352.27 69.8067 1351.84 69.7C1351.41 69.58 1350.93 69.52 1350.4 69.52C1349.6 69.52 1348.89 69.66 1348.26 69.94C1347.63 70.22 1347.1 70.6067 1346.66 71.1C1346.23 71.5933 1345.91 72.1733 1345.68 72.84C1345.47 73.5067 1345.36 74.2267 1345.36 75C1345.36 75.7733 1345.47 76.4933 1345.68 77.16C1345.91 77.8267 1346.23 78.4067 1346.66 78.9C1347.1 79.3933 1347.63 79.78 1348.26 80.06C1348.89 80.34 1349.6 80.48 1350.4 80.48C1350.93 80.48 1351.41 80.4267 1351.84 80.32C1352.27 80.2 1352.64 80.0467 1352.96 79.86C1353.29 79.6733 1353.58 79.4667 1353.82 79.24C1354.06 79 1354.27 78.7533 1354.44 78.5C1354.83 77.9133 1355.09 77.2467 1355.24 76.5H1357.18C1357.18 76.98 1357.05 77.5533 1356.8 78.22C1356.56 78.8733 1356.17 79.4933 1355.62 80.08C1355.09 80.6667 1354.39 81.1667 1353.52 81.58C1352.67 81.9933 1351.63 82.2 1350.4 82.2ZM1366.88 82.2C1365.8 82.2 1364.83 82.0267 1363.96 81.68C1363.1 81.32 1362.36 80.82 1361.76 80.18C1361.16 79.54 1360.7 78.78 1360.36 77.9C1360.04 77.02 1359.88 76.0533 1359.88 75C1359.88 73.9467 1360.04 72.98 1360.36 72.1C1360.7 71.22 1361.16 70.46 1361.76 69.82C1362.36 69.18 1363.1 68.6867 1363.96 68.34C1364.83 67.98 1365.8 67.8 1366.88 67.8C1367.96 67.8 1368.94 67.98 1369.8 68.34C1370.67 68.6867 1371.4 69.18 1372 69.82C1372.6 70.46 1373.06 71.22 1373.38 72.1C1373.72 72.98 1373.88 73.9467 1373.88 75C1373.88 76.0533 1373.72 77.02 1373.38 77.9C1373.06 78.78 1372.6 79.54 1372 80.18C1371.4 80.82 1370.67 81.32 1369.8 81.68C1368.94 82.0267 1367.96 82.2 1366.88 82.2ZM1366.88 80.48C1367.68 80.48 1368.4 80.34 1369.02 80.06C1369.65 79.78 1370.18 79.3933 1370.6 78.9C1371.04 78.4067 1371.37 77.8267 1371.58 77.16C1371.81 76.4933 1371.92 75.7733 1371.92 75C1371.92 74.2267 1371.81 73.5067 1371.58 72.84C1371.37 72.1733 1371.04 71.5933 1370.6 71.1C1370.18 70.6067 1369.65 70.22 1369.02 69.94C1368.4 69.66 1367.68 69.52 1366.88 69.52C1366.08 69.52 1365.37 69.66 1364.74 69.94C1364.12 70.22 1363.58 70.6067 1363.14 71.1C1362.72 71.5933 1362.39 72.1733 1362.16 72.84C1361.95 73.5067 1361.84 74.2267 1361.84 75C1361.84 75.7733 1361.95 76.4933 1362.16 77.16C1362.39 77.8267 1362.72 78.4067 1363.14 78.9C1363.58 79.3933 1364.12 79.78 1364.74 80.06C1365.37 80.34 1366.08 80.48 1366.88 80.48ZM1377.08 68H1387.14V69.68H1378.96V73.32H1383.02C1384.85 73.32 1386.22 73.6867 1387.14 74.42C1388.06 75.14 1388.52 76.22 1388.52 77.66C1388.52 79.1 1388.06 80.1867 1387.14 80.92C1386.22 81.64 1384.85 82 1383.02 82H1377.08V68ZM1383.02 80.32C1384.15 80.32 1385.03 80.1133 1385.64 79.7C1386.25 79.2733 1386.56 78.5933 1386.56 77.66C1386.56 76.7267 1386.25 76.0533 1385.64 75.64C1385.03 75.2133 1384.15 75 1383.02 75H1378.96V80.32H1383.02ZM1391.51 68H1393.39V72.68H1396.81C1398.67 72.68 1400.06 73.08 1400.99 73.88C1401.94 74.6667 1402.41 75.82 1402.41 77.34C1402.41 78.86 1401.94 80.02 1400.99 80.82C1400.06 81.6067 1398.67 82 1396.81 82H1391.51V68ZM1396.81 80.32C1397.97 80.32 1398.87 80.08 1399.49 79.6C1400.13 79.1067 1400.45 78.3533 1400.45 77.34C1400.45 76.3267 1400.13 75.58 1399.49 75.1C1398.87 74.6067 1397.97 74.36 1396.81 74.36H1393.39V80.32H1396.81ZM1404.41 68H1406.29V82H1404.41V68ZM1413.51 69.68H1408.49V68H1420.39V69.68H1415.39V82H1413.51V69.68ZM1422.59 68H1424.47V79.96H1424.53L1431.87 68H1434.57V82H1432.69V70.04H1432.63L1425.29 82H1422.59V68ZM1440.72 76.66C1440.66 76.66 1440.48 76.6 1440.18 76.48C1439.88 76.36 1439.56 76.1467 1439.22 75.84C1438.87 75.52 1438.56 75.0867 1438.28 74.54C1438 73.9933 1437.86 73.3 1437.86 72.46C1437.86 71.8067 1437.97 71.2067 1438.2 70.66C1438.42 70.1 1438.74 69.6267 1439.16 69.24C1439.57 68.8533 1440.07 68.5533 1440.66 68.34C1441.26 68.1133 1441.93 68 1442.68 68H1448.52V82H1446.64V77H1442.62L1439.7 82H1437.58L1440.72 76.66ZM1446.64 75.32V69.68H1442.68C1442.28 69.68 1441.9 69.7533 1441.54 69.9C1441.19 70.0333 1440.88 70.2267 1440.62 70.48C1440.36 70.72 1440.16 71.0133 1440.02 71.36C1439.87 71.7067 1439.8 72.0867 1439.8 72.5C1439.8 72.9267 1439.86 73.3133 1440 73.66C1440.13 73.9933 1440.32 74.2867 1440.56 74.54C1440.8 74.7933 1441.08 74.9867 1441.42 75.12C1441.76 75.2533 1442.14 75.32 1442.56 75.32H1446.64Z" fill="#1D4DF5"/>
<path d="M1482.8 68H1494.56V82H1492.68V69.68H1484.68V82H1482.8V68ZM1498.15 68H1500.03V79.96H1500.09L1507.43 68H1510.13V82H1508.25V70.04H1508.19L1500.85 82H1498.15V68ZM1517.36 69.68H1512.34V68H1524.24V69.68H1519.24V82H1517.36V69.68ZM1532.43 82.2C1531.35 82.2 1530.37 82.0267 1529.51 81.68C1528.64 81.32 1527.91 80.82 1527.31 80.18C1526.71 79.54 1526.24 78.78 1525.91 77.9C1525.59 77.02 1525.43 76.0533 1525.43 75C1525.43 73.9467 1525.59 72.98 1525.91 72.1C1526.24 71.22 1526.71 70.46 1527.31 69.82C1527.91 69.18 1528.64 68.6867 1529.51 68.34C1530.37 67.98 1531.35 67.8 1532.43 67.8C1533.51 67.8 1534.48 67.98 1535.35 68.34C1536.21 68.6867 1536.95 69.18 1537.55 69.82C1538.15 70.46 1538.61 71.22 1538.93 72.1C1539.26 72.98 1539.43 73.9467 1539.43 75C1539.43 76.0533 1539.26 77.02 1538.93 77.9C1538.61 78.78 1538.15 79.54 1537.55 80.18C1536.95 80.82 1536.21 81.32 1535.35 81.68C1534.48 82.0267 1533.51 82.2 1532.43 82.2ZM1532.43 80.48C1533.23 80.48 1533.94 80.34 1534.57 80.06C1535.19 79.78 1535.72 79.3933 1536.15 78.9C1536.59 78.4067 1536.91 77.8267 1537.13 77.16C1537.35 76.4933 1537.47 75.7733 1537.47 75C1537.47 74.2267 1537.35 73.5067 1537.13 72.84C1536.91 72.1733 1536.59 71.5933 1536.15 71.1C1535.72 70.6067 1535.19 70.22 1534.57 69.94C1533.94 69.66 1533.23 69.52 1532.43 69.52C1531.63 69.52 1530.91 69.66 1530.29 69.94C1529.66 70.22 1529.13 70.6067 1528.69 71.1C1528.26 71.5933 1527.93 72.1733 1527.71 72.84C1527.49 73.5067 1527.39 74.2267 1527.39 75C1527.39 75.7733 1527.49 76.4933 1527.71 77.16C1527.93 77.8267 1528.26 78.4067 1528.69 78.9C1529.13 79.3933 1529.66 79.78 1530.29 80.06C1530.91 80.34 1531.63 80.48 1532.43 80.48ZM1542.62 68H1545.5L1549.84 76.5H1549.92L1554.26 68H1557.14V82H1555.26V70.2H1555.18L1551.06 78.26H1548.7L1544.58 70.2H1544.5V82H1542.62V68ZM1571.99 82H1560.75V68H1562.63V80.32H1570.01V68H1571.89V80.32H1573.87V85.4H1571.99V82ZM1576.28 68H1578.16V72.68H1581.58C1583.43 72.68 1584.82 73.08 1585.76 73.88C1586.7 74.6667 1587.18 75.82 1587.18 77.34C1587.18 78.86 1586.7 80.02 1585.76 80.82C1584.82 81.6067 1583.43 82 1581.58 82H1576.28V68ZM1581.58 80.32C1582.74 80.32 1583.63 80.08 1584.26 79.6C1584.9 79.1067 1585.22 78.3533 1585.22 77.34C1585.22 76.3267 1584.9 75.58 1584.26 75.1C1583.63 74.6067 1582.74 74.36 1581.58 74.36H1578.16V80.32H1581.58ZM1589.18 68H1591.06V82H1589.18V68Z" fill="#1D4DF5"/>
<path d="M1624.8 68H1627.68L1632.02 76.5H1632.1L1636.44 68H1639.32V82H1637.44V70.2H1637.36L1633.24 78.26H1630.88L1626.76 70.2H1626.68V82H1624.8V68ZM1647.15 68H1649.65L1655.37 82H1653.39L1652.13 78.92H1644.67L1643.41 82H1641.43L1647.15 68ZM1651.43 77.24L1648.45 69.7H1648.35L1645.35 77.24H1651.43ZM1657.46 68H1667.54V69.68H1659.34V82H1657.46V68ZM1672.16 68H1674.66L1680.38 82H1678.4L1677.14 78.92H1669.68L1668.42 82H1666.44L1672.16 68ZM1676.44 77.24L1673.46 69.7H1673.36L1670.36 77.24H1676.44ZM1687.62 82.2C1686.79 82.2 1686.02 82.1067 1685.32 81.92C1684.62 81.72 1684.02 81.44 1683.5 81.08C1682.99 80.72 1682.59 80.2867 1682.3 79.78C1682.02 79.2733 1681.88 78.7067 1681.88 78.08V77.32H1683.76V78.08C1683.76 78.48 1683.85 78.8333 1684.04 79.14C1684.24 79.4333 1684.51 79.68 1684.86 79.88C1685.2 80.08 1685.61 80.2333 1686.08 80.34C1686.54 80.4333 1687.06 80.48 1687.62 80.48C1688.18 80.48 1688.69 80.4333 1689.16 80.34C1689.62 80.2333 1690.03 80.08 1690.38 79.88C1690.72 79.68 1690.99 79.4333 1691.18 79.14C1691.38 78.8333 1691.48 78.48 1691.48 78.08C1691.48 77.28 1691.13 76.68 1690.44 76.28C1689.76 75.8667 1688.86 75.66 1687.74 75.66H1686.04V74H1687.78C1688.91 74 1689.74 73.7867 1690.28 73.36C1690.81 72.9333 1691.08 72.3933 1691.08 71.74C1691.08 71.0867 1690.76 70.5533 1690.12 70.14C1689.49 69.7267 1688.62 69.52 1687.5 69.52C1686.38 69.52 1685.5 69.7267 1684.86 70.14C1684.23 70.54 1683.92 71.12 1683.92 71.88V72.28H1682.04V71.88C1682.04 71.28 1682.16 70.7333 1682.42 70.24C1682.68 69.7333 1683.05 69.3 1683.52 68.94C1684 68.58 1684.57 68.3 1685.24 68.1C1685.92 67.9 1686.67 67.8 1687.5 67.8C1688.32 67.8 1689.07 67.9 1689.74 68.1C1690.42 68.3 1690.99 68.58 1691.46 68.94C1691.94 69.2867 1692.3 69.7 1692.56 70.18C1692.82 70.66 1692.96 71.18 1692.96 71.74C1692.96 72.34 1692.84 72.8333 1692.62 73.22C1692.39 73.5933 1692.14 73.8933 1691.88 74.12C1691.56 74.3733 1691.2 74.5667 1690.8 74.7V74.82C1691.28 74.9533 1691.7 75.1533 1692.08 75.42C1692.4 75.66 1692.69 75.9933 1692.96 76.42C1693.22 76.8333 1693.36 77.3867 1693.36 78.08C1693.36 78.72 1693.21 79.2933 1692.92 79.8C1692.64 80.3067 1692.24 80.74 1691.72 81.1C1691.21 81.4467 1690.6 81.72 1689.9 81.92C1689.2 82.1067 1688.44 82.2 1687.62 82.2ZM1696.36 68H1698.24V79.96H1698.3L1705.64 68H1708.34V82H1706.46V70.04H1706.4L1699.06 82H1696.36V68ZM1711.95 68H1713.83V73.88H1722.01V68H1723.89V82H1722.01V75.56H1713.83V82H1711.95V68Z" fill="#1D4DF5"/>
<path d="M1764.4 82.2C1763.32 82.2 1762.35 82.0267 1761.48 81.68C1760.61 81.32 1759.88 80.82 1759.28 80.18C1758.68 79.54 1758.21 78.78 1757.88 77.9C1757.56 77.02 1757.4 76.0533 1757.4 75C1757.4 73.9467 1757.56 72.98 1757.88 72.1C1758.21 71.22 1758.68 70.46 1759.28 69.82C1759.88 69.18 1760.61 68.6867 1761.48 68.34C1762.35 67.98 1763.32 67.8 1764.4 67.8C1765.63 67.8 1766.67 68.0067 1767.52 68.42C1768.39 68.8333 1769.09 69.3333 1769.62 69.92C1770.17 70.5067 1770.56 71.1333 1770.8 71.8C1771.05 72.4533 1771.18 73.02 1771.18 73.5H1769.24C1769.09 72.7667 1768.83 72.1067 1768.44 71.52C1768.27 71.2667 1768.06 71.02 1767.82 70.78C1767.58 70.54 1767.29 70.3267 1766.96 70.14C1766.64 69.9533 1766.27 69.8067 1765.84 69.7C1765.41 69.58 1764.93 69.52 1764.4 69.52C1763.6 69.52 1762.89 69.66 1762.26 69.94C1761.63 70.22 1761.1 70.6067 1760.66 71.1C1760.23 71.5933 1759.91 72.1733 1759.68 72.84C1759.47 73.5067 1759.36 74.2267 1759.36 75C1759.36 75.7733 1759.47 76.4933 1759.68 77.16C1759.91 77.8267 1760.23 78.4067 1760.66 78.9C1761.1 79.3933 1761.63 79.78 1762.26 80.06C1762.89 80.34 1763.6 80.48 1764.4 80.48C1764.93 80.48 1765.41 80.4267 1765.84 80.32C1766.27 80.2 1766.64 80.0467 1766.96 79.86C1767.29 79.6733 1767.58 79.4667 1767.82 79.24C1768.06 79 1768.27 78.7533 1768.44 78.5C1768.83 77.9133 1769.09 77.2467 1769.24 76.5H1771.18C1771.18 76.98 1771.05 77.5533 1770.8 78.22C1770.56 78.8733 1770.17 79.4933 1769.62 80.08C1769.09 80.6667 1768.39 81.1667 1767.52 81.58C1766.67 81.9933 1765.63 82.2 1764.4 82.2ZM1774.28 68H1780.22C1781.77 68 1782.94 68.3133 1783.74 68.94C1784.56 69.5667 1784.96 70.54 1784.96 71.86C1784.96 72.42 1784.86 72.8733 1784.64 73.22C1784.44 73.5667 1784.22 73.8467 1783.96 74.06C1783.67 74.3 1783.34 74.4867 1782.96 74.62V74.7C1783.47 74.8067 1783.93 74.9933 1784.34 75.26C1784.52 75.38 1784.68 75.52 1784.84 75.68C1785 75.84 1785.15 76.0333 1785.28 76.26C1785.42 76.4867 1785.52 76.7467 1785.6 77.04C1785.68 77.32 1785.72 77.6467 1785.72 78.02C1785.72 79.34 1785.3 80.3333 1784.46 81C1783.62 81.6667 1782.33 82 1780.58 82H1774.28V68ZM1780.58 80.32C1781.64 80.32 1782.43 80.14 1782.96 79.78C1783.5 79.42 1783.76 78.8333 1783.76 78.02C1783.76 77.2067 1783.5 76.62 1782.96 76.26C1782.43 75.8867 1781.64 75.7 1780.58 75.7H1776.16V80.32H1780.58ZM1780.22 74.06C1781.08 74.06 1781.75 73.9 1782.24 73.58C1782.75 73.2467 1783 72.6733 1783 71.86C1783 71.0467 1782.75 70.48 1782.24 70.16C1781.75 69.84 1781.08 69.68 1780.22 69.68H1776.16V74.06H1780.22ZM1791.26 76.66C1791.2 76.66 1791.02 76.6 1790.72 76.48C1790.42 76.36 1790.1 76.1467 1789.76 75.84C1789.41 75.52 1789.1 75.0867 1788.82 74.54C1788.54 73.9933 1788.4 73.3 1788.4 72.46C1788.4 71.8067 1788.51 71.2067 1788.74 70.66C1788.96 70.1 1789.28 69.6267 1789.7 69.24C1790.11 68.8533 1790.61 68.5533 1791.2 68.34C1791.8 68.1133 1792.47 68 1793.22 68H1799.06V82H1797.18V77H1793.16L1790.24 82H1788.12L1791.26 76.66ZM1797.18 75.32V69.68H1793.22C1792.82 69.68 1792.44 69.7533 1792.08 69.9C1791.73 70.0333 1791.42 70.2267 1791.16 70.48C1790.9 70.72 1790.7 71.0133 1790.56 71.36C1790.41 71.7067 1790.34 72.0867 1790.34 72.5C1790.34 72.9267 1790.4 73.3133 1790.54 73.66C1790.67 73.9933 1790.86 74.2867 1791.1 74.54C1791.34 74.7933 1791.62 74.9867 1791.96 75.12C1792.3 75.2533 1792.68 75.32 1793.1 75.32H1797.18ZM1807.8 82.2C1806.98 82.2 1806.21 82.1067 1805.5 81.92C1804.81 81.72 1804.2 81.44 1803.68 81.08C1803.18 80.72 1802.78 80.2867 1802.48 79.78C1802.2 79.2733 1802.06 78.7067 1802.06 78.08V77.32H1803.94V78.08C1803.94 78.48 1804.04 78.8333 1804.22 79.14C1804.42 79.4333 1804.7 79.68 1805.04 79.88C1805.39 80.08 1805.8 80.2333 1806.26 80.34C1806.73 80.4333 1807.24 80.48 1807.8 80.48C1808.36 80.48 1808.88 80.4333 1809.34 80.34C1809.81 80.2333 1810.22 80.08 1810.56 79.88C1810.91 79.68 1811.18 79.4333 1811.36 79.14C1811.56 78.8333 1811.66 78.48 1811.66 78.08C1811.66 77.28 1811.32 76.68 1810.62 76.28C1809.94 75.8667 1809.04 75.66 1807.92 75.66H1806.22V74H1807.96C1809.1 74 1809.93 73.7867 1810.46 73.36C1811 72.9333 1811.26 72.3933 1811.26 71.74C1811.26 71.0867 1810.94 70.5533 1810.3 70.14C1809.68 69.7267 1808.8 69.52 1807.68 69.52C1806.56 69.52 1805.68 69.7267 1805.04 70.14C1804.42 70.54 1804.1 71.12 1804.1 71.88V72.28H1802.22V71.88C1802.22 71.28 1802.35 70.7333 1802.6 70.24C1802.87 69.7333 1803.24 69.3 1803.7 68.94C1804.18 68.58 1804.76 68.3 1805.42 68.1C1806.1 67.9 1806.86 67.8 1807.68 67.8C1808.51 67.8 1809.26 67.9 1809.92 68.1C1810.6 68.3 1811.18 68.58 1811.64 68.94C1812.12 69.2867 1812.49 69.7 1812.74 70.18C1813.01 70.66 1813.14 71.18 1813.14 71.74C1813.14 72.34 1813.03 72.8333 1812.8 73.22C1812.58 73.5933 1812.33 73.8933 1812.06 74.12C1811.74 74.3733 1811.38 74.5667 1810.98 74.7V74.82C1811.46 74.9533 1811.89 75.1533 1812.26 75.42C1812.58 75.66 1812.88 75.9933 1813.14 76.42C1813.41 76.8333 1813.54 77.3867 1813.54 78.08C1813.54 78.72 1813.4 79.2933 1813.1 79.8C1812.82 80.3067 1812.42 80.74 1811.9 81.1C1811.4 81.4467 1810.79 81.72 1810.08 81.92C1809.39 82.1067 1808.63 82.2 1807.8 82.2ZM1816.55 68H1818.43V72.68H1822.25C1824.1 72.68 1825.5 73.08 1826.43 73.88C1827.38 74.6667 1827.85 75.82 1827.85 77.34C1827.85 78.86 1827.38 80.02 1826.43 80.82C1825.5 81.6067 1824.1 82 1822.25 82H1816.55V68ZM1822.25 80.32C1823.41 80.32 1824.3 80.08 1824.93 79.6C1825.57 79.1067 1825.89 78.3533 1825.89 77.34C1825.89 76.3267 1825.57 75.58 1824.93 75.1C1824.3 74.6067 1823.41 74.36 1822.25 74.36H1818.43V80.32H1822.25Z" fill="#1D4DF5"/>
<rect x="60" y="914" width="679" height="76" rx="38" fill="white"/>
<rect x="696.998" y="953.042" width="36" height="4" rx="2" transform="rotate(-180 696.998 953.042)" fill="#3964FA"/>
<rect x="698.678" y="950.829" width="21" height="4" rx="2" transform="rotate(135 698.678 950.829)" fill="#3964FA"/>
<rect width="21" height="4" rx="2" transform="matrix(0.707107 0.707107 0.707107 -0.707107 681.01 938.83)" fill="#3964FA"/>
<path d="M111.76 960.24C109.728 960.24 107.928 959.856 106.36 959.088C104.792 958.32 103.576 957.28 102.712 955.968C101.864 954.656 101.44 953.2 101.44 951.6C101.44 950 101.864 948.544 102.712 947.232C103.576 945.92 104.792 944.88 106.36 944.112C107.928 943.344 109.728 942.96 111.76 942.96C113.792 942.96 115.592 943.344 117.16 944.112C118.728 944.88 119.936 945.92 120.784 947.232C121.648 948.544 122.08 950 122.08 951.6C122.08 953.2 121.648 954.656 120.784 955.968C119.936 957.28 118.728 958.32 117.16 959.088C115.592 959.856 113.792 960.24 111.76 960.24ZM111.76 957.72C113.184 957.72 114.456 957.456 115.576 956.928C116.712 956.384 117.6 955.648 118.24 954.72C118.88 953.792 119.2 952.752 119.2 951.6C119.2 950.448 118.88 949.408 118.24 948.48C117.6 947.552 116.712 946.824 115.576 946.296C114.456 945.752 113.184 945.48 111.76 945.48C110.336 945.48 109.056 945.752 107.92 946.296C106.8 946.824 105.92 947.552 105.28 948.48C104.64 949.408 104.32 950.448 104.32 951.6C104.32 952.752 104.64 953.792 105.28 954.72C105.92 955.648 106.8 956.384 107.92 956.928C109.056 957.456 110.336 957.72 111.76 957.72ZM132.642 960H129.762V945.72H123.522V943.2H138.882V945.72H132.642V960ZM145.132 960H142.252V943.2H158.452V960H155.572V945.72H145.132V960ZM163.979 960V943.2H172.259C173.603 943.2 174.763 943.424 175.739 943.872C176.715 944.32 177.459 944.952 177.971 945.768C178.483 946.584 178.739 947.528 178.739 948.6C178.739 949.672 178.483 950.616 177.971 951.432C177.459 952.248 176.715 952.88 175.739 953.328C174.763 953.776 173.603 954 172.259 954H166.859V960H163.979ZM172.379 951.48C173.483 951.48 174.339 951.216 174.947 950.688C175.555 950.16 175.859 949.464 175.859 948.6C175.859 947.736 175.555 947.04 174.947 946.512C174.339 945.984 173.483 945.72 172.379 945.72H166.859V951.48H172.379ZM181.972 960H178.972L187.012 943.2H190.492L198.532 960H195.412L193.372 955.68H184.012L181.972 960ZM188.668 945.96L185.212 953.16H192.172L188.716 945.96H188.668ZM201.783 960V943.2H210.303C212.127 943.2 213.543 943.608 214.551 944.424C215.559 945.224 216.063 946.296 216.063 947.64C216.063 948.664 215.783 949.448 215.223 949.992C214.663 950.52 214.127 950.872 213.615 951.048C213.935 951.128 214.343 951.32 214.839 951.624C215.335 951.912 215.799 952.36 216.231 952.968C216.679 953.56 216.903 954.304 216.903 955.2C216.903 956.112 216.679 956.928 216.231 957.648C215.783 958.368 215.095 958.944 214.167 959.376C213.239 959.792 212.095 960 210.735 960H201.783ZM210.063 949.92C211.055 949.92 211.823 949.744 212.367 949.392C212.911 949.04 213.183 948.496 213.183 947.76C213.183 947.024 212.911 946.48 212.367 946.128C211.823 945.776 211.055 945.6 210.063 945.6H204.663V949.92H210.063ZM210.663 957.6C211.719 957.6 212.543 957.352 213.135 956.856C213.727 956.36 214.023 955.712 214.023 954.912C214.023 954.112 213.727 953.464 213.135 952.968C212.543 952.456 211.719 952.2 210.663 952.2H204.663V957.6H210.663ZM224.093 960H221.213V943.2H224.093V955.92H224.213L235.253 943.2H238.133V960H235.253V947.28H235.133L224.093 960ZM250.603 960H247.723V945.72H241.483V943.2H256.843V945.72H250.603V960ZM260.213 960V943.2H263.093V949.2H268.493C269.837 949.2 270.997 949.424 271.973 949.872C272.949 950.32 273.693 950.952 274.205 951.768C274.717 952.584 274.973 953.528 274.973 954.6C274.973 955.672 274.717 956.616 274.205 957.432C273.693 958.248 272.949 958.88 271.973 959.328C270.997 959.776 269.837 960 268.493 960H260.213ZM268.613 957.48C269.717 957.48 270.573 957.216 271.181 956.688C271.789 956.16 272.093 955.464 272.093 954.6C272.093 953.736 271.789 953.04 271.181 952.512C270.573 951.984 269.717 951.72 268.613 951.72H263.093V957.48H268.613Z" fill="#3964FA"/>
<path d="M1393.69 876.702C1393.69 841.939 1365.5 813.759 1330.74 813.759C1295.98 813.759 1267.8 841.939 1267.8 876.702C1267.8 911.465 1295.98 939.645 1330.74 939.645C1365.5 939.645 1393.69 911.465 1393.69 876.702Z" fill="#F2F2F2"/>
<path d="M1598.39 357.83C1598.39 323.067 1570.21 294.887 1535.44 294.887C1500.68 294.887 1472.5 323.067 1472.5 357.83C1472.5 392.593 1500.68 420.773 1535.44 420.773C1570.21 420.773 1598.39 392.593 1598.39 357.83Z" fill="#FF5903"/>
<path d="M1590.3 833.419L1598.39 825.239L1590.3 817.059L1595.71 806.86L1585.94 801.566L1588.24 790.595L1577.5 788.296L1576.74 777.229L1565.76 778.002L1561.97 767.536L1551.41 771.426L1544.73 762.309L1535.44 769.276L1526.16 762.309L1519.46 771.426L1508.92 767.536L1505.15 777.988L1494.16 777.216L1493.39 788.296L1482.65 790.595L1484.95 801.566L1475.17 806.874L1480.59 817.072L1472.5 825.253L1480.59 833.433L1475.2 843.631L1484.98 848.939L1482.68 859.91L1493.42 862.21L1494.18 873.276L1505.16 872.503L1508.94 882.956L1519.49 879.066L1526.16 888.196L1535.44 881.211L1544.74 888.196L1551.43 879.075L1561.97 882.951L1565.75 872.499L1576.73 873.271L1577.49 862.205L1588.23 859.906L1585.93 848.935L1595.71 843.627L1590.3 833.419ZM1589.4 817.318C1589.4 817.236 1589.37 817.154 1589.36 817.072L1589.54 817.172L1589.4 817.318ZM1481.49 817.3L1481.35 817.154L1481.53 817.054C1481.49 817.154 1481.49 817.236 1481.49 817.3ZM1481.49 833.156C1481.49 833.238 1481.52 833.319 1481.53 833.397L1481.35 833.301L1481.49 833.156ZM1535.44 880.375H1535.67L1535.44 880.675L1535.22 880.375H1535.44ZM1535.22 770.122L1535.44 769.822L1535.67 770.122H1535.22H1535.22ZM1589.42 833.174L1589.56 833.319L1589.38 833.415C1589.4 833.338 1589.4 833.256 1589.42 833.174Z" fill="#FF5903"/>
<path d="M1385.59 462.327L1393.69 454.147L1385.59 445.967L1391.01 435.768L1381.24 430.474L1383.54 419.503L1372.8 417.204L1372.04 406.137L1361.05 406.91L1357.27 396.444L1346.71 400.334L1340.03 391.217L1330.74 398.184L1321.45 391.217L1314.76 400.334L1304.22 396.444L1300.44 406.896L1289.46 406.124L1288.68 417.204L1277.95 419.503L1280.24 430.474L1270.46 435.782L1275.89 445.98L1267.8 454.161L1275.89 462.341L1270.5 472.539L1280.28 477.847L1277.98 488.818L1288.71 491.118L1289.47 502.184L1300.46 501.411L1304.23 511.864L1314.79 507.974L1321.45 517.104L1330.74 510.119L1340.04 517.104L1346.73 507.983L1357.27 511.859L1361.04 501.407L1372.03 502.179L1372.79 491.113L1383.52 488.814L1381.23 477.843L1391.01 472.535L1385.59 462.327ZM1384.69 446.226C1384.69 446.144 1384.67 446.062 1384.66 445.98L1384.84 446.08L1384.69 446.226ZM1276.79 446.207L1276.65 446.062L1276.83 445.962C1276.79 446.062 1276.79 446.144 1276.79 446.207ZM1276.79 462.064C1276.79 462.146 1276.81 462.227 1276.83 462.305L1276.65 462.209L1276.79 462.064ZM1330.74 509.283H1330.96L1330.74 509.583L1330.52 509.283H1330.74ZM1330.52 399.03L1330.74 398.73L1330.96 399.03H1330.51H1330.52ZM1384.72 462.082L1384.86 462.227L1384.68 462.323C1384.69 462.246 1384.69 462.164 1384.72 462.082Z" fill="#F2F2F2"/>
<path d="M1423.99 240.279C1425.93 239.927 1427.69 238.899 1428.95 237.374C1430.21 235.849 1430.9 233.924 1430.9 231.936C1430.9 229.948 1430.21 228.023 1428.95 226.498C1427.69 224.973 1425.93 223.945 1423.99 223.593C1425.66 222.723 1427 221.313 1427.78 219.587C1428.56 217.862 1428.75 215.922 1428.31 214.076C1427.87 212.231 1426.83 210.588 1425.36 209.409C1423.89 208.23 1422.07 207.584 1420.19 207.574H1420.01C1421.22 206.204 1421.96 204.474 1422.11 202.645C1422.26 200.816 1421.82 198.987 1420.85 197.433C1419.88 195.88 1418.44 194.685 1416.74 194.03C1415.04 193.375 1413.18 193.295 1411.43 193.801C1412.16 192.139 1412.34 190.285 1411.94 188.513C1411.54 186.741 1410.59 185.144 1409.23 183.959C1407.86 182.773 1406.16 182.062 1404.36 181.928C1402.57 181.795 1400.78 182.247 1399.26 183.218C1399.32 182.818 1399.35 182.413 1399.36 182.007C1399.36 180.248 1398.82 178.533 1397.81 177.099C1396.8 175.664 1395.38 174.581 1393.73 174C1392.09 173.419 1390.31 173.368 1388.63 173.855C1386.96 174.341 1385.47 175.341 1384.39 176.716C1384.21 174.75 1383.36 172.908 1381.98 171.508C1380.61 170.107 1378.79 169.234 1376.84 169.041C1374.9 168.847 1372.95 169.345 1371.33 170.447C1369.7 171.55 1368.51 173.189 1367.96 175.082C1367.41 173.189 1366.22 171.55 1364.6 170.447C1362.98 169.345 1361.02 168.847 1359.08 169.041C1357.13 169.234 1355.31 170.107 1353.94 171.508C1352.56 172.908 1351.71 174.75 1351.53 176.716C1350.45 175.341 1348.96 174.341 1347.29 173.854C1345.61 173.368 1343.83 173.419 1342.19 174.001C1340.54 174.583 1339.12 175.666 1338.11 177.101C1337.1 178.536 1336.56 180.252 1336.56 182.011C1336.57 182.417 1336.6 182.822 1336.66 183.223C1335.14 182.256 1333.35 181.807 1331.56 181.942C1329.77 182.077 1328.07 182.789 1326.7 183.972C1325.34 185.156 1324.39 186.749 1323.99 188.518C1323.59 190.287 1323.77 192.139 1324.49 193.801C1322.74 193.298 1320.88 193.381 1319.18 194.037C1317.49 194.693 1316.05 195.887 1315.08 197.44C1314.12 198.992 1313.67 200.819 1313.82 202.646C1313.97 204.474 1314.71 206.203 1315.91 207.574H1315.74C1313.85 207.574 1312.02 208.216 1310.53 209.396C1309.05 210.576 1308.01 212.226 1307.57 214.079C1307.13 215.932 1307.32 217.881 1308.11 219.611C1308.9 221.341 1310.25 222.752 1311.93 223.616C1309.99 223.968 1308.24 224.996 1306.97 226.521C1305.71 228.046 1305.02 229.971 1305.02 231.959C1305.02 233.947 1305.71 235.871 1306.97 237.396C1308.24 238.922 1309.99 239.95 1311.93 240.302C1310.25 241.165 1308.9 242.576 1308.11 244.306C1307.32 246.036 1307.13 247.985 1307.57 249.838C1308.01 251.692 1309.05 253.341 1310.53 254.521C1312.02 255.702 1313.85 256.343 1315.74 256.344H1315.91C1314.72 257.717 1314 259.44 1313.86 261.258C1313.72 263.076 1314.17 264.892 1315.13 266.434C1316.1 267.977 1317.53 269.164 1319.21 269.819C1320.9 270.474 1322.75 270.563 1324.49 270.071C1323.77 271.733 1323.6 273.583 1324 275.351C1324.4 277.119 1325.35 278.711 1326.71 279.893C1328.07 281.075 1329.77 281.785 1331.57 281.918C1333.36 282.052 1335.14 281.602 1336.66 280.635C1336.6 281.036 1336.57 281.441 1336.56 281.847C1336.56 283.606 1337.1 285.322 1338.11 286.757C1339.12 288.192 1340.54 289.276 1342.19 289.858C1343.83 290.439 1345.61 290.491 1347.29 290.004C1348.96 289.518 1350.45 288.518 1351.53 287.143C1351.71 289.11 1352.55 290.955 1353.93 292.359C1355.3 293.764 1357.12 294.64 1359.07 294.837C1361.01 295.034 1362.97 294.539 1364.59 293.437C1366.21 292.336 1367.41 290.697 1367.96 288.804C1368.51 290.696 1369.7 292.335 1371.32 293.438C1372.94 294.541 1374.9 295.039 1376.84 294.846C1378.79 294.653 1380.6 293.781 1381.98 292.381C1383.36 290.981 1384.21 289.14 1384.39 287.175C1385.47 288.55 1386.96 289.55 1388.63 290.036C1390.31 290.522 1392.09 290.471 1393.73 289.889C1395.38 289.308 1396.8 288.224 1397.81 286.789C1398.82 285.354 1399.36 283.638 1399.36 281.879C1399.35 281.473 1399.32 281.068 1399.26 280.667C1400.78 281.635 1402.57 282.084 1404.36 281.95C1406.16 281.815 1407.86 281.103 1409.22 279.918C1410.58 278.734 1411.53 277.139 1411.93 275.369C1412.33 273.599 1412.15 271.747 1411.43 270.085C1413.18 270.583 1415.03 270.497 1416.73 269.841C1418.42 269.185 1419.86 267.994 1420.82 266.445C1421.79 264.896 1422.23 263.073 1422.08 261.249C1421.94 259.425 1421.21 257.697 1420.01 256.325H1420.19C1422.07 256.325 1423.91 255.683 1425.39 254.503C1426.87 253.323 1427.92 251.673 1428.36 249.82C1428.8 247.967 1428.6 246.018 1427.81 244.288C1427.02 242.558 1425.68 241.147 1423.99 240.284V240.279Z" fill="#FFD916"/>
<path fill-rule="evenodd" clip-rule="evenodd" d="M1127.7 725.362C1123.62 706.657 1137.87 688.967 1157.01 688.967H1708.66C1727.8 688.967 1742.05 706.657 1737.97 725.362L1685.38 966.395C1682.37 980.175 1670.17 990 1656.07 990H1209.6C1195.5 990 1183.3 980.175 1180.29 966.395L1127.7 725.362ZM1230.32 757.931C1230.32 748.862 1237.67 741.511 1246.74 741.511C1255.81 741.511 1263.16 748.862 1263.16 757.931V812.664C1263.16 821.732 1255.81 829.084 1246.74 829.084C1237.67 829.084 1230.32 821.732 1230.32 812.664V757.931ZM1246.74 850.977C1237.67 850.977 1230.32 858.329 1230.32 867.397V922.131C1230.32 931.199 1237.67 938.551 1246.74 938.551C1255.81 938.551 1263.16 931.199 1263.16 922.131V867.397C1263.16 858.329 1255.81 850.977 1246.74 850.977ZM1602.51 757.931C1602.51 748.862 1609.86 741.511 1618.93 741.511C1628 741.511 1635.35 748.862 1635.35 757.931V812.664C1635.35 821.732 1628 829.084 1618.93 829.084C1609.86 829.084 1602.51 821.732 1602.51 812.664V757.931ZM1618.93 850.977C1609.86 850.977 1602.51 858.329 1602.51 867.397V922.131C1602.51 931.199 1609.86 938.551 1618.93 938.551C1628 938.551 1635.35 931.199 1635.35 922.131V867.397C1635.35 858.329 1628 850.977 1618.93 850.977ZM1528.07 757.931C1528.07 748.862 1535.42 741.511 1544.49 741.511C1553.56 741.511 1560.91 748.862 1560.91 757.931V812.664C1560.91 821.732 1553.56 829.084 1544.49 829.084C1535.42 829.084 1528.07 821.732 1528.07 812.664V757.931ZM1544.49 850.977C1535.42 850.977 1528.07 858.329 1528.07 867.397V922.131C1528.07 931.199 1535.42 938.551 1544.49 938.551C1553.56 938.551 1560.91 931.199 1560.91 922.131V867.397C1560.91 858.329 1553.56 850.977 1544.49 850.977ZM1453.63 757.931C1453.63 748.862 1460.98 741.511 1470.05 741.511C1479.12 741.511 1486.47 748.862 1486.47 757.931V812.664C1486.47 821.732 1479.12 829.084 1470.05 829.084C1460.98 829.084 1453.63 821.732 1453.63 812.664V757.931ZM1470.05 850.977C1460.98 850.977 1453.63 858.329 1453.63 867.397V922.131C1453.63 931.199 1460.98 938.551 1470.05 938.551C1479.12 938.551 1486.47 931.199 1486.47 922.131V867.397C1486.47 858.329 1479.12 850.977 1470.05 850.977ZM1379.2 757.931C1379.2 748.862 1386.55 741.511 1395.62 741.511C1404.68 741.511 1412.04 748.862 1412.04 757.931V812.664C1412.04 821.732 1404.68 829.084 1395.62 829.084C1386.55 829.084 1379.2 821.732 1379.2 812.664V757.931ZM1395.62 850.977C1386.55 850.977 1379.2 858.329 1379.2 867.397V922.131C1379.2 931.199 1386.55 938.551 1395.62 938.551C1404.68 938.551 1412.04 931.199 1412.04 922.131V867.397C1412.04 858.329 1404.68 850.977 1395.62 850.977ZM1304.76 757.931C1304.76 748.862 1312.11 741.511 1321.18 741.511C1330.25 741.511 1337.6 748.862 1337.6 757.931V812.664C1337.6 821.732 1330.25 829.084 1321.18 829.084C1312.11 829.084 1304.76 821.732 1304.76 812.664V757.931ZM1321.18 850.977C1312.11 850.977 1304.76 858.329 1304.76 867.397V922.131C1304.76 931.199 1312.11 938.551 1321.18 938.551C1330.25 938.551 1337.6 931.199 1337.6 922.131V867.397C1337.6 858.329 1330.25 850.977 1321.18 850.977Z" fill="#FFD916"/>
<rect x="1318.61" y="543.376" width="54.7333" height="197.04" rx="27.3667" transform="rotate(30 1318.61 543.376)" fill="#FF5903"/>
<rect width="54.7333" height="197.04" rx="27.3667" transform="matrix(-0.866025 0.5 0.5 0.866025 1546.63 543.376)" fill="#FF5903"/>
</g>
<defs>
<clipPath id="clip0_1_665">
<rect width="1920" height="1080" fill="white"/>
</clipPath>
</defs>
</svg>
