<svg width="587" height="620" viewBox="0 0 587 620" fill="none" xmlns="http://www.w3.org/2000/svg">
<rect width="587" height="620" rx="30" fill="#1D4DF5"/>
<rect x="565.311" y="586.364" width="36" height="4" rx="2" transform="rotate(-180 565.311 586.364)" fill="white"/>
<rect x="566.99" y="584.151" width="21" height="4" rx="2" transform="rotate(135 566.99 584.151)" fill="white"/>
<rect width="21" height="4" rx="2" transform="matrix(0.707107 0.707107 0.707107 -0.707107 549.322 572.151)" fill="white"/>
<path d="M24.8 578.8C24.352 579.072 23.792 579.28 23.12 579.424C22.448 579.568 21.728 579.64 20.96 579.64V577.48C22.08 577.432 23.024 577.184 23.792 576.736C24.56 576.288 25.096 575.776 25.4 575.2H27.68V592H24.8V578.8ZM39.7897 592.24C38.2697 592.24 36.8937 591.88 35.6617 591.16C34.4457 590.424 33.4857 589.408 32.7817 588.112C32.0937 586.8 31.7497 585.296 31.7497 583.6C31.7497 581.904 32.0937 580.408 32.7817 579.112C33.4857 577.8 34.4457 576.784 35.6617 576.064C36.8937 575.328 38.2697 574.96 39.7897 574.96C41.3097 574.96 42.6777 575.328 43.8937 576.064C45.1257 576.784 46.0857 577.8 46.7737 579.112C47.4777 580.408 47.8297 581.904 47.8297 583.6C47.8297 585.296 47.4777 586.8 46.7737 588.112C46.0857 589.408 45.1257 590.424 43.8937 591.16C42.6777 591.88 41.3097 592.24 39.7897 592.24ZM39.7897 589.72C40.7657 589.72 41.6457 589.48 42.4297 589C43.2137 588.504 43.8297 587.792 44.2777 586.864C44.7257 585.936 44.9497 584.848 44.9497 583.6C44.9497 582.352 44.7257 581.264 44.2777 580.336C43.8297 579.408 43.2137 578.704 42.4297 578.224C41.6457 577.728 40.7657 577.48 39.7897 577.48C38.8137 577.48 37.9337 577.728 37.1497 578.224C36.3657 578.704 35.7497 579.408 35.3017 580.336C34.8537 581.264 34.6297 582.352 34.6297 583.6C34.6297 584.848 34.8537 585.936 35.3017 586.864C35.7497 587.792 36.3657 588.504 37.1497 589C37.9337 589.48 38.8137 589.72 39.7897 589.72ZM58.5163 592.24C56.9963 592.24 55.6203 591.88 54.3883 591.16C53.1723 590.424 52.2123 589.408 51.5083 588.112C50.8203 586.8 50.4763 585.296 50.4763 583.6C50.4763 581.904 50.8203 580.408 51.5083 579.112C52.2123 577.8 53.1723 576.784 54.3883 576.064C55.6203 575.328 56.9963 574.96 58.5163 574.96C60.0363 574.96 61.4043 575.328 62.6203 576.064C63.8523 576.784 64.8123 577.8 65.5003 579.112C66.2043 580.408 66.5563 581.904 66.5563 583.6C66.5563 585.296 66.2043 586.8 65.5003 588.112C64.8123 589.408 63.8523 590.424 62.6203 591.16C61.4043 591.88 60.0363 592.24 58.5163 592.24ZM58.5163 589.72C59.4923 589.72 60.3723 589.48 61.1562 589C61.9403 588.504 62.5563 587.792 63.0043 586.864C63.4523 585.936 63.6763 584.848 63.6763 583.6C63.6763 582.352 63.4523 581.264 63.0043 580.336C62.5563 579.408 61.9403 578.704 61.1562 578.224C60.3723 577.728 59.4923 577.48 58.5163 577.48C57.5403 577.48 56.6603 577.728 55.8763 578.224C55.0923 578.704 54.4763 579.408 54.0283 580.336C53.5803 581.264 53.3563 582.352 53.3563 583.6C53.3563 584.848 53.5803 585.936 54.0283 586.864C54.4763 587.792 55.0923 588.504 55.8763 589C56.6603 589.48 57.5403 589.72 58.5163 589.72ZM77.2428 592.24C75.7228 592.24 74.3468 591.88 73.1148 591.16C71.8988 590.424 70.9388 589.408 70.2348 588.112C69.5468 586.8 69.2028 585.296 69.2028 583.6C69.2028 581.904 69.5468 580.408 70.2348 579.112C70.9388 577.8 71.8988 576.784 73.1148 576.064C74.3468 575.328 75.7228 574.96 77.2428 574.96C78.7628 574.96 80.1308 575.328 81.3468 576.064C82.5788 576.784 83.5388 577.8 84.2268 579.112C84.9308 580.408 85.2828 581.904 85.2828 583.6C85.2828 585.296 84.9308 586.8 84.2268 588.112C83.5388 589.408 82.5788 590.424 81.3468 591.16C80.1308 591.88 78.7628 592.24 77.2428 592.24ZM77.2428 589.72C78.2188 589.72 79.0988 589.48 79.8828 589C80.6668 588.504 81.2828 587.792 81.7308 586.864C82.1788 585.936 82.4028 584.848 82.4028 583.6C82.4028 582.352 82.1788 581.264 81.7308 580.336C81.2828 579.408 80.6668 578.704 79.8828 578.224C79.0988 577.728 78.2188 577.48 77.2428 577.48C76.2668 577.48 75.3868 577.728 74.6028 578.224C73.8188 578.704 73.2028 579.408 72.7548 580.336C72.3068 581.264 72.0828 582.352 72.0828 583.6C72.0828 584.848 72.3068 585.936 72.7548 586.864C73.2028 587.792 73.8188 588.504 74.6028 589C75.3868 589.48 76.2668 589.72 77.2428 589.72ZM95.9694 592.24C94.4494 592.24 93.0734 591.88 91.8414 591.16C90.6254 590.424 89.6654 589.408 88.9614 588.112C88.2734 586.8 87.9294 585.296 87.9294 583.6C87.9294 581.904 88.2734 580.408 88.9614 579.112C89.6654 577.8 90.6254 576.784 91.8414 576.064C93.0734 575.328 94.4494 574.96 95.9694 574.96C97.4894 574.96 98.8574 575.328 100.073 576.064C101.305 576.784 102.265 577.8 102.953 579.112C103.657 580.408 104.009 581.904 104.009 583.6C104.009 585.296 103.657 586.8 102.953 588.112C102.265 589.408 101.305 590.424 100.073 591.16C98.8574 591.88 97.4894 592.24 95.9694 592.24ZM95.9694 589.72C96.9454 589.72 97.8254 589.48 98.6094 589C99.3934 588.504 100.009 587.792 100.457 586.864C100.905 585.936 101.129 584.848 101.129 583.6C101.129 582.352 100.905 581.264 100.457 580.336C100.009 579.408 99.3934 578.704 98.6094 578.224C97.8254 577.728 96.9454 577.48 95.9694 577.48C94.9934 577.48 94.1134 577.728 93.3294 578.224C92.5454 578.704 91.9294 579.408 91.4814 580.336C91.0334 581.264 90.8094 582.352 90.8094 583.6C90.8094 584.848 91.0334 585.936 91.4814 586.864C91.9294 587.792 92.5454 588.504 93.3294 589C94.1134 589.48 94.9934 589.72 95.9694 589.72ZM118.285 585.52V587.08H125.245V588.88H118.285V592H115.405V588.88H113.005V587.08H115.405V585.52H113.005V583.12H115.405V575.2H123.205C124.453 575.2 125.533 575.432 126.445 575.896C127.373 576.36 128.085 576.992 128.581 577.792C129.077 578.576 129.325 579.448 129.325 580.408C129.325 581.368 129.077 582.24 128.581 583.024C128.101 583.792 127.397 584.4 126.469 584.848C125.541 585.296 124.453 585.52 123.205 585.52H118.285ZM118.285 577.72V583.12H123.205C124.181 583.12 124.965 582.856 125.557 582.328C126.149 581.8 126.445 581.16 126.445 580.408C126.445 579.656 126.149 579.024 125.557 578.512C124.981 577.984 124.197 577.72 123.205 577.72H118.285Z" fill="white"/>
<path d="M40 40H153.2V180H140V52H53.2V180H40V40ZM234.525 40H252.725L310.125 180H296.325L282.525 146.4H204.725L190.925 180H177.125L234.525 40ZM277.525 134.4L243.925 51.6H243.325L209.725 134.4H277.525ZM29.4 382C27.2667 382 25.5333 381.8 24.2 381.4C23.4 381.267 22.6667 381.067 22 380.8V368.4C22.5333 368.533 23.1333 368.667 23.8 368.8C24.4667 368.933 25.1333 369.067 25.8 369.2C26.6 369.2 27.4 369.2 28.2 369.2C32.0667 369.2 35.2 368.133 37.6 366C40 363.733 41.9333 360.933 43.4 357.6C44.8667 354.133 45.9333 350.267 46.6 346C47.4 341.733 48.0667 337.6 48.6 333.6L61.2 240H148V380H134.8V252H73.2L62.2 333.6C61.1333 341.467 59.8667 348.467 58.4 354.6C56.9333 360.6 54.9333 365.667 52.4 369.8C50 373.8 46.9333 376.867 43.2 379C39.6 381 35 382 29.4 382ZM229.447 240H247.647L305.047 380H291.247L277.447 346.4H199.647L185.847 380H172.047L229.447 240ZM272.447 334.4L238.847 251.6H238.247L204.647 334.4H272.447ZM386.008 382C375.341 382 365.741 380.2 357.208 376.6C348.674 373 341.408 368 335.408 361.6C329.541 355.2 325.008 347.6 321.808 338.8C318.608 330 317.008 320.4 317.008 310C317.008 299.6 318.608 290 321.808 281.2C325.008 272.4 329.541 264.8 335.408 258.4C341.408 252 348.674 247 357.208 243.4C365.741 239.8 375.341 238 386.008 238C394.274 238 401.674 239.067 408.208 241.2C414.741 243.2 420.474 245.867 425.408 249.2C430.341 252.4 434.474 256.133 437.808 260.4C441.274 264.533 444.074 268.733 446.208 273C448.474 277.133 450.074 281.133 451.008 285C452.074 288.733 452.608 291.933 452.608 294.6H439.408C439.408 293.933 439.074 292.333 438.408 289.8C437.741 287.267 436.608 284.4 435.008 281.2C433.541 277.867 431.474 274.4 428.808 270.8C426.274 267.2 423.008 263.933 419.008 261C415.141 257.933 410.474 255.4 405.008 253.4C399.541 251.4 393.208 250.4 386.008 250.4C377.208 250.4 369.341 251.933 362.408 255C355.608 258.067 349.808 262.267 345.008 267.6C340.341 272.933 336.741 279.267 334.208 286.6C331.808 293.8 330.608 301.6 330.608 310C330.608 318.4 331.808 326.267 334.208 333.6C336.741 340.8 340.341 347.067 345.008 352.4C349.808 357.733 355.608 361.933 362.408 365C369.341 368.067 377.208 369.6 386.008 369.6C393.208 369.6 399.541 368.6 405.008 366.6C410.474 364.6 415.141 362.133 419.008 359.2C423.008 356.133 426.274 352.8 428.808 349.2C431.474 345.6 433.541 342.2 435.008 339C436.608 335.667 437.741 332.8 438.408 330.4C439.074 327.867 439.408 326.2 439.408 325.4H452.608C452.608 328.067 452.074 331.333 451.008 335.2C450.074 338.933 448.474 342.933 446.208 347.2C444.074 351.333 441.274 355.533 437.808 359.8C434.474 363.933 430.341 367.667 425.408 371C420.474 374.2 414.741 376.867 408.208 379C401.674 381 394.274 382 386.008 382Z" fill="white"/>
</svg>
