<svg width="587" height="620" viewBox="0 0 587 620" fill="none" xmlns="http://www.w3.org/2000/svg">
<rect width="587" height="620" rx="30" fill="#1D4DF5"/>
<rect x="565.311" y="586.364" width="36" height="4" rx="2" transform="rotate(-180 565.311 586.364)" fill="white"/>
<rect x="566.99" y="584.151" width="21" height="4" rx="2" transform="rotate(135 566.99 584.151)" fill="white"/>
<rect width="21" height="4" rx="2" transform="matrix(0.707107 0.707107 0.707107 -0.707107 549.322 572.151)" fill="white"/>
<path d="M24.8 578.8C24.352 579.072 23.792 579.28 23.12 579.424C22.448 579.568 21.728 579.64 20.96 579.64V577.48C22.08 577.432 23.024 577.184 23.792 576.736C24.56 576.288 25.096 575.776 25.4 575.2H27.68V592H24.8V578.8ZM39.7897 592.24C38.2697 592.24 36.8937 591.88 35.6617 591.16C34.4457 590.424 33.4857 589.408 32.7817 588.112C32.0937 586.8 31.7497 585.296 31.7497 583.6C31.7497 581.904 32.0937 580.408 32.7817 579.112C33.4857 577.8 34.4457 576.784 35.6617 576.064C36.8937 575.328 38.2697 574.96 39.7897 574.96C41.3097 574.96 42.6777 575.328 43.8937 576.064C45.1257 576.784 46.0857 577.8 46.7737 579.112C47.4777 580.408 47.8297 581.904 47.8297 583.6C47.8297 585.296 47.4777 586.8 46.7737 588.112C46.0857 589.408 45.1257 590.424 43.8937 591.16C42.6777 591.88 41.3097 592.24 39.7897 592.24ZM39.7897 589.72C40.7657 589.72 41.6457 589.48 42.4297 589C43.2137 588.504 43.8297 587.792 44.2777 586.864C44.7257 585.936 44.9497 584.848 44.9497 583.6C44.9497 582.352 44.7257 581.264 44.2777 580.336C43.8297 579.408 43.2137 578.704 42.4297 578.224C41.6457 577.728 40.7657 577.48 39.7897 577.48C38.8137 577.48 37.9337 577.728 37.1497 578.224C36.3657 578.704 35.7497 579.408 35.3017 580.336C34.8537 581.264 34.6297 582.352 34.6297 583.6C34.6297 584.848 34.8537 585.936 35.3017 586.864C35.7497 587.792 36.3657 588.504 37.1497 589C37.9337 589.48 38.8137 589.72 39.7897 589.72ZM58.5163 592.24C56.9963 592.24 55.6203 591.88 54.3883 591.16C53.1723 590.424 52.2123 589.408 51.5083 588.112C50.8203 586.8 50.4763 585.296 50.4763 583.6C50.4763 581.904 50.8203 580.408 51.5083 579.112C52.2123 577.8 53.1723 576.784 54.3883 576.064C55.6203 575.328 56.9963 574.96 58.5163 574.96C60.0363 574.96 61.4043 575.328 62.6203 576.064C63.8523 576.784 64.8123 577.8 65.5003 579.112C66.2043 580.408 66.5563 581.904 66.5563 583.6C66.5563 585.296 66.2043 586.8 65.5003 588.112C64.8123 589.408 63.8523 590.424 62.6203 591.16C61.4043 591.88 60.0363 592.24 58.5163 592.24ZM58.5163 589.72C59.4923 589.72 60.3723 589.48 61.1562 589C61.9403 588.504 62.5563 587.792 63.0043 586.864C63.4523 585.936 63.6763 584.848 63.6763 583.6C63.6763 582.352 63.4523 581.264 63.0043 580.336C62.5563 579.408 61.9403 578.704 61.1562 578.224C60.3723 577.728 59.4923 577.48 58.5163 577.48C57.5403 577.48 56.6603 577.728 55.8763 578.224C55.0923 578.704 54.4763 579.408 54.0283 580.336C53.5803 581.264 53.3563 582.352 53.3563 583.6C53.3563 584.848 53.5803 585.936 54.0283 586.864C54.4763 587.792 55.0923 588.504 55.8763 589C56.6603 589.48 57.5403 589.72 58.5163 589.72ZM77.2428 592.24C75.7228 592.24 74.3468 591.88 73.1148 591.16C71.8988 590.424 70.9388 589.408 70.2348 588.112C69.5468 586.8 69.2028 585.296 69.2028 583.6C69.2028 581.904 69.5468 580.408 70.2348 579.112C70.9388 577.8 71.8988 576.784 73.1148 576.064C74.3468 575.328 75.7228 574.96 77.2428 574.96C78.7628 574.96 80.1308 575.328 81.3468 576.064C82.5788 576.784 83.5388 577.8 84.2268 579.112C84.9308 580.408 85.2828 581.904 85.2828 583.6C85.2828 585.296 84.9308 586.8 84.2268 588.112C83.5388 589.408 82.5788 590.424 81.3468 591.16C80.1308 591.88 78.7628 592.24 77.2428 592.24ZM77.2428 589.72C78.2188 589.72 79.0988 589.48 79.8828 589C80.6668 588.504 81.2828 587.792 81.7308 586.864C82.1788 585.936 82.4028 584.848 82.4028 583.6C82.4028 582.352 82.1788 581.264 81.7308 580.336C81.2828 579.408 80.6668 578.704 79.8828 578.224C79.0988 577.728 78.2188 577.48 77.2428 577.48C76.2668 577.48 75.3868 577.728 74.6028 578.224C73.8188 578.704 73.2028 579.408 72.7548 580.336C72.3068 581.264 72.0828 582.352 72.0828 583.6C72.0828 584.848 72.3068 585.936 72.7548 586.864C73.2028 587.792 73.8188 588.504 74.6028 589C75.3868 589.48 76.2668 589.72 77.2428 589.72ZM99.5581 585.52V587.08H106.518V588.88H99.5581V592H96.6781V588.88H94.2781V587.08H96.6781V585.52H94.2781V583.12H96.6781V575.2H104.478C105.726 575.2 106.806 575.432 107.718 575.896C108.646 576.36 109.358 576.992 109.854 577.792C110.35 578.576 110.598 579.448 110.598 580.408C110.598 581.368 110.35 582.24 109.854 583.024C109.374 583.792 108.67 584.4 107.742 584.848C106.814 585.296 105.726 585.52 104.478 585.52H99.5581ZM99.5581 577.72V583.12H104.478C105.454 583.12 106.238 582.856 106.83 582.328C107.422 581.8 107.718 581.16 107.718 580.408C107.718 579.656 107.422 579.024 106.83 578.512C106.254 577.984 105.47 577.72 104.478 577.72H99.5581Z" fill="white"/>
<path d="M40 40H53.2V168H111.6V40H124.8V168H183.2V40H196.4V180H40V40ZM299.284 182C288.618 182 279.018 180.2 270.484 176.6C262.084 173 254.884 168 248.884 161.6C243.018 155.2 238.484 147.6 235.284 138.8C232.084 130 230.484 120.4 230.484 110C230.484 99.6 232.084 90 235.284 81.2C238.484 72.4 243.018 64.8 248.884 58.4C254.884 52 262.084 47 270.484 43.4C279.018 39.8 288.618 38 299.284 38C309.818 38 319.351 39.8 327.884 43.4C336.418 47 343.618 52 349.484 58.4C355.484 64.8 360.084 72.4 363.284 81.2C366.484 90 368.084 99.6 368.084 110C368.084 120.4 366.484 130 363.284 138.8C360.084 147.6 355.484 155.2 349.484 161.6C343.618 168 336.418 173 327.884 176.6C319.351 180.2 309.818 182 299.284 182ZM299.284 169.6C307.818 169.6 315.484 168.067 322.284 165C329.218 161.933 335.018 157.733 339.684 152.4C344.484 147.067 348.151 140.8 350.684 133.6C353.218 126.267 354.484 118.4 354.484 110C354.484 101.6 353.218 93.8 350.684 86.6C348.151 79.2667 344.484 72.9333 339.684 67.6C335.018 62.2667 329.218 58.0667 322.284 55C315.484 51.9333 307.818 50.4 299.284 50.4C290.618 50.4 282.884 51.9333 276.084 55C269.284 58.0667 263.484 62.2667 258.684 67.6C254.018 72.9333 250.418 79.2667 247.884 86.6C245.351 93.8 244.084 101.6 244.084 110C244.084 118.4 245.351 126.267 247.884 133.6C250.418 140.8 254.018 147.067 258.684 152.4C263.484 157.733 269.284 161.933 276.084 165C282.884 168.067 290.618 169.6 299.284 169.6ZM402.109 40H515.309V180H502.109V52H415.309V180H402.109V40ZM40 240H153.2V380H140V252H53.2V380H40V240ZM193.125 240H294.125V252H206.325V302.2H282.725V314.2H206.325V368H294.125V380H193.125V240ZM327.109 240H377.909C395.376 240 408.776 244.2 418.109 252.6C427.443 260.867 432.109 272.933 432.109 288.8C432.109 304.533 427.443 316.6 418.109 325C408.776 333.267 395.376 337.4 377.909 337.4H340.309V380H327.109V240ZM377.909 325.4C390.709 325.4 400.643 322.333 407.709 316.2C414.909 310.067 418.509 300.933 418.509 288.8C418.509 276.533 414.909 267.333 407.709 261.2C400.643 255.067 390.709 252 377.909 252H340.309V325.4H377.909Z" fill="white"/>
</svg>
