<svg width="587" height="620" viewBox="0 0 587 620" fill="none" xmlns="http://www.w3.org/2000/svg">
<rect width="587" height="620" rx="30" fill="#1D4DF5"/>
<rect x="565.311" y="586.364" width="36" height="4" rx="2" transform="rotate(-180 565.311 586.364)" fill="white"/>
<rect x="566.99" y="584.151" width="21" height="4" rx="2" transform="rotate(135 566.99 584.151)" fill="white"/>
<rect width="21" height="4" rx="2" transform="matrix(0.707107 0.707107 0.707107 -0.707107 549.322 572.151)" fill="white"/>
<path d="M27.44 592.24C25.616 592.24 24.128 591.92 22.976 591.28C21.824 590.64 20.992 590.04 20.48 589.48L22.28 587.56C22.696 588.024 23.328 588.504 24.176 589C25.024 589.48 26.112 589.72 27.44 589.72C28.784 589.72 29.816 589.488 30.536 589.024C31.272 588.56 31.64 587.952 31.64 587.2C31.64 586.416 31.28 585.76 30.56 585.232C29.84 584.704 28.8 584.44 27.44 584.44H25.04V581.92H27.44C28.208 581.92 28.856 581.808 29.384 581.584C29.928 581.36 30.336 581.08 30.608 580.744C30.896 580.392 31.04 580.024 31.04 579.64C31.04 579.048 30.736 578.544 30.128 578.128C29.52 577.696 28.624 577.48 27.44 577.48C26.256 577.48 25.272 577.68 24.488 578.08C23.704 578.464 23.12 578.848 22.736 579.232L20.96 577.36C21.408 576.88 22.176 576.36 23.264 575.8C24.368 575.24 25.76 574.96 27.44 574.96C28.784 574.96 29.944 575.176 30.92 575.608C31.896 576.024 32.64 576.576 33.152 577.264C33.664 577.952 33.92 578.664 33.92 579.4C33.92 580.312 33.632 581.104 33.056 581.776C32.496 582.432 31.864 582.88 31.16 583.12C32.008 583.36 32.776 583.84 33.464 584.56C34.168 585.28 34.52 586.16 34.52 587.2C34.52 588.064 34.24 588.88 33.68 589.648C33.12 590.416 32.304 591.04 31.232 591.52C30.16 592 28.896 592.24 27.44 592.24ZM44.3609 592.24C42.4889 592.24 40.9609 591.944 39.7769 591.352C38.5929 590.744 37.7609 590.2 37.2809 589.72L39.1769 587.68C39.5289 588.064 40.1369 588.504 41.0009 589C41.8809 589.48 43.0009 589.72 44.3609 589.72C45.7849 589.72 46.8809 589.448 47.6489 588.904C48.4169 588.344 48.8009 587.576 48.8009 586.6C48.8009 585.64 48.4249 584.88 47.6729 584.32C46.9369 583.76 45.9129 583.48 44.6009 583.48C43.3849 583.48 42.4169 583.68 41.6969 584.08C40.9929 584.48 40.5209 584.832 40.2809 585.136L38.1209 584.8L38.9609 575.2H50.4809V577.84H41.4809L41.1209 581.752C41.5529 581.528 42.0969 581.344 42.7529 581.2C43.4249 581.04 44.1609 580.96 44.9609 580.96C46.2889 580.96 47.4649 581.208 48.4889 581.704C49.5129 582.184 50.2969 582.856 50.8409 583.72C51.4009 584.568 51.6809 585.528 51.6809 586.6C51.6809 587.688 51.3929 588.664 50.8169 589.528C50.2409 590.376 49.4009 591.04 48.2969 591.52C47.1929 592 45.8809 592.24 44.3609 592.24ZM62.4772 592.24C60.9572 592.24 59.5812 591.88 58.3492 591.16C57.1332 590.424 56.1732 589.408 55.4692 588.112C54.7812 586.8 54.4372 585.296 54.4372 583.6C54.4372 581.904 54.7812 580.408 55.4692 579.112C56.1732 577.8 57.1332 576.784 58.3492 576.064C59.5812 575.328 60.9572 574.96 62.4772 574.96C63.9972 574.96 65.3652 575.328 66.5812 576.064C67.8132 576.784 68.7732 577.8 69.4612 579.112C70.1652 580.408 70.5172 581.904 70.5172 583.6C70.5172 585.296 70.1652 586.8 69.4612 588.112C68.7732 589.408 67.8132 590.424 66.5812 591.16C65.3652 591.88 63.9972 592.24 62.4772 592.24ZM62.4772 589.72C63.4532 589.72 64.3332 589.48 65.1172 589C65.9012 588.504 66.5172 587.792 66.9652 586.864C67.4132 585.936 67.6372 584.848 67.6372 583.6C67.6372 582.352 67.4132 581.264 66.9652 580.336C66.5172 579.408 65.9012 578.704 65.1172 578.224C64.3332 577.728 63.4532 577.48 62.4772 577.48C61.5012 577.48 60.6212 577.728 59.8372 578.224C59.0532 578.704 58.4372 579.408 57.9892 580.336C57.5412 581.264 57.3172 582.352 57.3172 583.6C57.3172 584.848 57.5412 585.936 57.9892 586.864C58.4372 587.792 59.0532 588.504 59.8372 589C60.6212 589.48 61.5012 589.72 62.4772 589.72ZM81.2038 592.24C79.6838 592.24 78.3078 591.88 77.0758 591.16C75.8598 590.424 74.8998 589.408 74.1958 588.112C73.5078 586.8 73.1638 585.296 73.1638 583.6C73.1638 581.904 73.5078 580.408 74.1958 579.112C74.8998 577.8 75.8598 576.784 77.0758 576.064C78.3078 575.328 79.6838 574.96 81.2038 574.96C82.7238 574.96 84.0918 575.328 85.3078 576.064C86.5398 576.784 87.4998 577.8 88.1878 579.112C88.8918 580.408 89.2438 581.904 89.2438 583.6C89.2438 585.296 88.8918 586.8 88.1878 588.112C87.4998 589.408 86.5398 590.424 85.3078 591.16C84.0918 591.88 82.7238 592.24 81.2038 592.24ZM81.2038 589.72C82.1798 589.72 83.0598 589.48 83.8438 589C84.6278 588.504 85.2438 587.792 85.6918 586.864C86.1398 585.936 86.3638 584.848 86.3638 583.6C86.3638 582.352 86.1398 581.264 85.6918 580.336C85.2438 579.408 84.6278 578.704 83.8438 578.224C83.0598 577.728 82.1798 577.48 81.2038 577.48C80.2278 577.48 79.3478 577.728 78.5638 578.224C77.7798 578.704 77.1638 579.408 76.7158 580.336C76.2678 581.264 76.0438 582.352 76.0438 583.6C76.0438 584.848 76.2678 585.936 76.7158 586.864C77.1638 587.792 77.7798 588.504 78.5638 589C79.3478 589.48 80.2278 589.72 81.2038 589.72ZM103.519 585.52V587.08H110.479V588.88H103.519V592H100.639V588.88H98.2391V587.08H100.639V585.52H98.2391V583.12H100.639V575.2H108.439C109.687 575.2 110.767 575.432 111.679 575.896C112.607 576.36 113.319 576.992 113.815 577.792C114.311 578.576 114.559 579.448 114.559 580.408C114.559 581.368 114.311 582.24 113.815 583.024C113.335 583.792 112.631 584.4 111.703 584.848C110.775 585.296 109.687 585.52 108.439 585.52H103.519ZM103.519 577.72V583.12H108.439C109.415 583.12 110.199 582.856 110.791 582.328C111.383 581.8 111.679 581.16 111.679 580.408C111.679 579.656 111.383 579.024 110.791 578.512C110.215 577.984 109.431 577.72 108.439 577.72H103.519Z" fill="white"/>
<path d="M40 40H60.6L109.4 129H109.6H109.8L158.6 40H179.2V180H166V55H165.4L118 140.8H101.2L53.8 55H53.2V180H40V40ZM260.697 40H278.897L336.297 180H322.497L308.697 146.4H230.897L217.097 180H203.297L260.697 40ZM303.697 134.4L270.097 51.6H269.497L235.897 134.4H303.697ZM360.313 40H373.513V165.8H374.113L455.513 40H475.313V180H462.113V54.2H461.513L380.113 180H360.313V40ZM40 240H53.2V308.2L124.8 240H141.8L70.6 309.2L147.4 380H130.2L53.2 310.2V380H40V240ZM209.72 240H227.92L285.32 380H271.52L257.72 346.4H179.92L166.12 380H152.32L209.72 240ZM252.72 334.4L219.12 251.6H218.52L184.92 334.4H252.72Z" fill="white"/>
</svg>
