<svg width="64" height="52" viewBox="0 0 64 52" fill="none" xmlns="http://www.w3.org/2000/svg">
<path d="M14.0691 51.3867L19.5547 34.4538L9.37345 37.6363V28.011L0 26.1171L6.82593 18.3338L2.48538 8.46643L12.8264 10.075L19.5547 0L25.0403 7.65352L30.8188 0L37.4317 7.86107L45.4737 1.40963L49.6367 8.66534L57.7053 8.05997L56.8798 15.2292L63.759 20.3488L56.4626 24.5864L57.7231 33.6322L47.5685 31.4702L43.6984 37.1347L36.402 31.8767L31.8751 37.6363L28.1292 33.2517L14.0691 51.3867Z" fill="white"/>
<path d="M17.1484 16.8552H22.1902V18.3859H18.7728V24.2147H17.1484V16.8552Z" fill="#1D4DF5"/>
<path d="M26.5328 24.3704C25.7493 24.3702 24.9835 24.1439 24.3318 23.7202C23.6801 23.2965 23.1717 22.6943 22.8708 21.9896C22.5698 21.2848 22.4898 20.509 22.6407 19.76C22.7917 19.0109 23.1669 18.3222 23.719 17.7806C24.0885 17.4206 24.5272 17.135 25.01 16.9402C25.4928 16.7454 26.0102 16.6451 26.5328 16.6451C27.0554 16.6451 27.5728 16.7454 28.0556 16.9402C28.5384 17.135 28.9771 17.4206 29.3466 17.7806C29.7161 18.1406 30.0093 18.568 30.2092 19.0384C30.4092 19.5088 30.5121 20.0129 30.5121 20.522C30.5121 21.0312 30.4092 21.5353 30.2092 22.0057C30.0093 22.4761 29.7161 22.9035 29.3466 23.2635C28.9799 23.6252 28.5411 23.91 28.0572 24.1004C27.5733 24.2907 27.0545 24.3826 26.5328 24.3704V24.3704ZM24.1895 20.522C24.1895 21.1276 24.4363 21.7083 24.8758 22.1364C25.3153 22.5646 25.9113 22.8051 26.5328 22.8051C27.1543 22.8051 27.7504 22.5646 28.1898 22.1364C28.6293 21.7083 28.8762 21.1276 28.8762 20.522C28.8762 19.9165 28.6293 19.3358 28.1898 18.9077C27.7504 18.4795 27.1543 18.239 26.5328 18.239C25.9113 18.239 25.3153 18.4795 24.8758 18.9077C24.4363 19.3358 24.1895 19.9165 24.1895 20.522V20.522Z" fill="#1D4DF5"/>
<path d="M36.3919 20.2107V16.8552H38.0163V24.2147H36.3919V21.7068C35.7837 21.924 35.1402 22.0324 34.4924 22.0267C33.6902 22.0735 32.8981 21.8337 32.2644 21.3522C31.9922 21.1002 31.7803 20.7929 31.6438 20.4522C31.5072 20.1114 31.4494 19.7455 31.4744 19.3804V16.8552H33.0899V19.2334C33.0899 20.0982 33.6314 20.5479 34.7054 20.5479C35.2859 20.5541 35.8609 20.4391 36.3919 20.2107V20.2107Z" fill="#1D4DF5"/>
<path d="M41.5164 21.4992L45.3599 16.8552H46.6115V24.2147H45.0137V19.5275L41.1703 24.2147H39.9453V16.8552H41.5431L41.5164 21.4992Z" fill="#1D4DF5"/>
</svg>
