<svg width="70" height="94" viewBox="0 0 70 94" fill="none" xmlns="http://www.w3.org/2000/svg">
<path d="M34.8696 0.206055C15.6423 0.206055 0 15.7672 0 34.8946C0 63.3932 31.3988 91.2196 32.7359 92.3905C33.3455 92.9243 34.1074 93.1917 34.8696 93.1917C35.6318 93.1917 36.3937 92.9246 37.0036 92.3905C38.3401 91.2199 69.7392 63.3935 69.7392 34.8946C69.7392 15.7672 54.097 0.206055 34.8696 0.206055ZM34.8696 25.1565C40.2106 25.1565 44.5557 29.5249 44.5557 34.8946C44.5557 40.2642 40.2106 44.6327 34.8696 44.6327C29.5286 44.6327 25.1835 40.2642 25.1835 34.8946C25.1835 29.5249 29.5286 25.1565 34.8696 25.1565Z" fill="white"/>
</svg>
